<svg id="Capa_1" enable-background="new 0 0 512 512" height="512" viewBox="0 0 512 512" width="512" xmlns="http://www.w3.org/2000/svg"><g><path d="m319.748 7.5 114.696 48.173c12.438 6.327 21.146 18.17 23.477 31.929l16.217 108.35-61.385 16.186v279.383c0 7.168-5.811 12.978-12.978 12.978h-287.55c-7.168 0-12.978-5.811-12.978-12.978v-279.383l-61.385-16.186 16.217-108.35c2.331-13.759 11.039-25.602 23.477-31.929l114.697-48.173c42.498 19.437 84.997 19.437 127.495 0z" fill="#d6f6b2"/><path d="m319.748 7.5 114.696 48.173c12.438 6.327 21.146 18.17 23.477 31.929l16.217 108.35-61.385 16.186v279.383c0 7.168-5.811 12.978-12.978 12.978h-287.55c-7.168 0-12.978-5.811-12.978-12.978v-279.383l-61.385-16.186 16.217-108.35c2.331-13.759 11.039-25.602 23.477-31.929l114.697-48.173c42.498 19.437 84.997 19.437 127.495 0z" fill="#d6f6b2"/><path d="m457.922 87.602c-2.331-13.759-11.039-25.602-23.478-31.929l-114.696-48.173-25.361 16 114.696 48.173c12.438 6.327 21.146 18.17 23.477 31.929l5.992 46.084c1.797 13.822-6.519 26.959-19.781 31.248l-11.832 3.827c-11.952 3.866-20.043 15.004-20.023 27.566l.472 292.173h12.388c7.168 0 12.978-5.811 12.978-12.978v-279.384l61.385-16.186z" fill="#ccf49f"/><path d="m319.748 7.5c-42.499 19.437-84.997 19.437-127.495 0l-24.976 10.49c.25 22.94 9.175 44.576 25.228 61.015 16.284 16.676 38.084 26.165 61.386 26.719.714.017 1.431.025 2.14.025h.005c23.659 0 45.921-9.217 62.679-25.952 16.554-16.531 25.756-38.449 26.01-61.808z" fill="#95d6a4"/><path d="m254.485 80.731c35.79.851 65.263-27.929 65.263-63.73v-9.501c-42.499 19.437-84.997 19.437-127.495 0v9.501c0 34.616 27.625 62.907 62.232 63.73z" fill="#86a0af"/><path d="m319.748 17.001v-9.501c-14.034 6.419-28.068 10.703-42.103 12.883 1.031 17.435-2.891 41.009-25.157 60.25.665.036 1.326.081 1.996.097 35.791.852 65.264-27.929 65.264-63.729z" fill="#738b95"/><path d="m237.793 329.251-29.887-49.449c-4.09-6.767-4.09-15.243 0-22.009l29.887-49.449c8.276-13.694 28.139-13.694 36.415 0l29.887 49.449c4.09 6.767 4.09 15.243 0 22.009l-29.887 49.449c-8.276 13.693-28.139 13.693-36.415 0z" fill="#86a0af"/><path d="m304.095 257.792-29.887-49.449c-7.191-11.898-23.125-13.452-32.61-4.674 1.431 1.325 2.72 2.878 3.805 4.674l29.887 49.449c4.09 6.767 4.09 15.243 0 22.009l-29.887 49.449c-1.085 1.796-2.374 3.349-3.805 4.674 9.485 8.778 25.419 7.224 32.61-4.674l29.887-49.449c4.09-6.766 4.09-15.242 0-22.009z" fill="#738b95"/><g><path d="m243.699 51.624h24.602c4.143 0 7.5-3.358 7.5-7.5s-3.357-7.5-7.5-7.5h-24.602c-4.143 0-7.5 3.358-7.5 7.5s3.358 7.5 7.5 7.5z"/><path d="m264.712 276.297c4.143 0 7.5-3.357 7.5-7.5s-3.357-7.5-7.5-7.5h-17.423c-4.143 0-7.5 3.357-7.5 7.5s3.357 7.5 7.5 7.5z"/><path d="m280.627 204.464c-5.257-8.698-14.463-13.891-24.626-13.891-10.164 0-19.37 5.193-24.627 13.891l-10.211 16.894c-2.143 3.545-1.006 8.155 2.539 10.298 3.547 2.142 8.156 1.005 10.299-2.539l10.211-16.894c2.517-4.164 6.924-6.649 11.789-6.649 4.864 0 9.271 2.486 11.788 6.649l29.887 49.45c2.657 4.395 2.657 9.855 0 14.25l-29.887 49.449c-2.517 4.164-6.924 6.649-11.788 6.649-4.865 0-9.272-2.485-11.789-6.649l-29.888-49.449c-2.657-4.395-2.657-9.855 0-14.25l3.701-6.124c2.143-3.545 1.006-8.155-2.539-10.298-3.546-2.143-8.156-1.006-10.299 2.539l-3.701 6.124c-5.549 9.181-5.549 20.587 0 29.769l29.888 49.449c5.257 8.697 14.463 13.89 24.627 13.89 10.163 0 19.369-5.192 24.626-13.89l29.887-49.449c5.549-9.182 5.549-20.588 0-29.769z"/><path d="m481.556 194.842-16.217-108.35c-.007-.047-.015-.095-.022-.143-2.715-16.025-12.984-29.992-27.472-37.361-.162-.083-.328-.159-.496-.23-22.86-9.601-94.156-39.546-114.696-48.173-1.933-.811-4.117-.777-6.023.095-40.797 18.658-80.46 18.658-121.257 0-1.906-.872-4.091-.906-6.023-.095-20.541 8.627-91.86 38.581-114.698 48.173-.168.071-.334.147-.496.23-14.487 7.369-24.756 21.336-27.471 37.361-.008.048-.016.095-.022.143l-16.218 108.35c-.566 3.784 1.806 7.387 5.505 8.362l55.797 14.713v273.604c0 11.292 9.187 20.479 20.479 20.479h20.093c4.143 0 7.5-3.357 7.5-7.5s-3.357-7.5-7.5-7.5h-20.093c-3.021 0-5.479-2.458-5.479-5.479v-15.375h298.508v15.375c0 3.021-2.458 5.479-5.479 5.479h-237.471c-4.143 0-7.5 3.357-7.5 7.5s3.357 7.5 7.5 7.5h237.471c11.292 0 20.479-9.187 20.479-20.479v-273.604l55.797-14.713c3.698-.975 6.07-4.578 5.504-8.362zm-169.352-176.044c-.454 14.597-6.406 28.192-16.906 38.446-10.931 10.674-25.384 16.368-40.635 15.989-14.769-.351-28.585-6.365-38.906-16.934-9.9-10.139-15.519-23.397-15.961-37.501 37.344 14.314 75.063 14.315 112.408 0zm108.05 183.607v-36.331c0-4.142-3.357-7.5-7.5-7.5s-7.5 3.358-7.5 7.5v295.073h-298.508v-295.073c0-4.142-3.357-7.5-7.5-7.5s-7.5 3.358-7.5 7.5v36.331l-45.473-11.99 15.212-101.628c1.929-11.251 9.108-21.064 19.24-26.311l79.805-33.519c2.572 20.789 11.795 40.116 26.608 55.286 17.66 18.085 41.303 28.376 66.577 28.978.772.018 1.548.027 2.319.027 25.662 0 49.804-9.995 67.982-28.148.203-.203.399-.411.595-.62l.228-.24c2.893-2.964 2.834-7.713-.13-10.605-2.966-2.894-7.715-2.836-10.606.13-.148.152-.294.307-.439.462-.084.089-.166.18-.25.263-15.342 15.321-35.72 23.759-57.384 23.759-.651 0-1.31-.008-1.961-.023-21.332-.508-41.291-9.195-56.198-24.461-13.5-13.824-21.504-31.738-22.872-50.884l9.796-4.115c.439 18.055 7.57 35.046 20.23 48.011 13.072 13.388 30.574 21.005 49.28 21.451.584.014 1.165.021 1.746.021 18.698 0 36.298-7.161 49.726-20.273 13.423-13.107 20.977-30.526 21.427-49.209l9.811 4.121c-.695 9.843-3.132 19.336-7.278 28.282-1.742 3.758-.107 8.217 3.65 9.958 1.021.473 2.094.697 3.149.697 2.831 0 5.541-1.611 6.81-4.348 4.209-9.082 6.931-18.634 8.146-28.509l79.782 33.509c10.132 5.246 17.312 15.059 19.24 26.311l15.211 101.627z"/></g></g></svg>