<svg id="Capa_1" enable-background="new 0 0 512.098 512.098" height="512" viewBox="0 0 512.098 512.098" width="512" xmlns="http://www.w3.org/2000/svg"><g><path d="m225.382 156.628c-9.3-3.848-10.89-19.118-17.59-25.818-6.945-6.945-22.131-8.642-25.835-17.575-3.704-8.932 5.825-20.877 5.818-30.699-.007-9.475-9.689-21.389-5.841-30.689s19.118-10.89 25.818-17.59c6.945-6.945 8.642-22.131 17.575-25.835 8.932-3.704 20.877 5.825 30.699 5.818 9.475-.007 21.389-9.689 30.689-5.841s10.89 19.118 17.59 25.818c6.945 6.945 22.131 8.642 25.835 17.575 3.704 8.932-5.825 20.877-5.818 30.699.007 9.475 9.689 21.389 5.841 30.689s-19.118 10.89-25.818 17.59c-6.945 6.945-8.642 22.131-17.575 25.835-8.932 3.704-20.877-5.825-30.699-5.818-9.474.007-21.388 9.689-30.689 5.841z" fill="#f9f6f9"/><path d="m207.792 130.81c6.7 6.7 8.29 21.969 17.59 25.818s21.215-5.834 30.689-5.841c9.822-.008 21.767 9.521 30.699 5.818 8.932-3.704 10.629-18.89 17.575-25.835 6.7-6.7 21.97-8.29 25.818-17.59.61-1.473.878-3.012.901-4.597-22.848-10.742-48.313-16.718-75.015-16.718-26.672 0-52.111 5.963-74.94 16.683-.012 1.629.232 3.2.849 4.687 3.703 8.932 18.889 10.63 25.834 17.575z" fill="#dddaec"/><path d="m440.315 504.598h-368.532c-10.303 0-18.655-8.352-18.655-18.655v-30.001c0-10.303 8.352-18.655 18.655-18.655h368.532c10.303 0 18.655 8.352 18.655 18.655v30.001c0 10.303-8.352 18.655-18.655 18.655z" fill="#f9f6f9"/><path d="m440.315 437.287h-25.198c10.303 0 18.655 8.352 18.655 18.655v30.001c0 10.303-8.352 18.655-18.655 18.655h25.198c10.303 0 18.655-8.352 18.655-18.655v-30.001c0-10.303-8.352-18.655-18.655-18.655z" fill="#dddaec"/><path d="m256.049 110.247c-90.028 0-166.01 67.918-174.956 157.5-5.81 58.174-2.472 116.539 10.014 169.541h329.884c12.485-53.002 15.823-111.367 10.014-169.541-8.947-89.583-84.928-157.5-174.956-157.5z" fill="#dd636e"/><path d="m431.005 267.746c-8.946-89.582-84.928-157.5-174.956-157.5-6.04 0-12.014.315-17.912.913 82.007 8.308 148.698 73.015 157.044 156.586 5.81 58.174 2.472 116.539-10.014 169.541h35.823c12.487-53.001 15.825-111.366 10.015-169.54z" fill="#da4a54"/><path d="m406.757 194.999c-11.342 6.239-21.664 17.217-33.726 19.251-15.373 2.593-32.617-9.197-47.99-7.637-15.477 1.571-30.01 16.579-45.487 17.103-15.512.526-31.025-13.466-46.537-13.992-15.477-.524-31.898 12.388-47.375 10.817-15.373-1.561-28.874-17.504-44.247-20.097-13.132-2.215-28.326 5.417-42.021 5.239-5.526 10.764-9.967 22.195-13.179 34.159 2.17 1.136 4.427 2.039 6.815 2.601 15.206 3.575 33.178-7.072 48.384-4.507 15.373 2.593 28.875 18.536 44.248 20.097 15.477 1.571 31.898-11.342 47.375-10.817 15.512.526 31.025 14.518 46.537 13.992 15.477-.524 30.01-15.532 45.487-17.103 15.373-1.56 32.617 10.23 47.99 7.637 15.206-2.565 27.646-19.351 42.851-22.926 2.041-.48 4.18-.724 6.385-.809-4.032-11.629-9.25-22.677-15.51-33.008z" fill="#eab14d"/><path d="m406.757 194.999c-9.093 5.002-17.533 13.04-26.738 17.083 4.567 9.875 8.246 20.262 10.92 31.07 11.665-8.117 18.879-14.665 31.329-15.146-4.033-11.628-9.251-22.676-15.511-33.007z" fill="#e49542"/><path d="m433.428 304.298c-5.973-.982-11.884-1.553-17.545-.222-15.206 3.575-27.646 20.362-42.852 22.926-15.373 2.593-32.617-9.197-47.99-7.637-15.477 1.571-30.01 16.579-45.487 17.104-15.512.526-31.025-13.466-46.537-13.992-15.477-.524-31.898 12.388-47.375 10.817-15.373-1.56-28.874-17.504-44.247-20.097-15.206-2.565-33.178 8.082-48.384 4.507-4.996-1.175-9.797-3.943-14.532-7.274-.288 12.547-.13 25.033.44 37.414 4.369 3.335 8.927 6.137 14.091 7.351 15.206 3.575 33.178-7.072 48.384-4.507 15.373 2.593 28.875 18.536 44.248 20.097 15.477 1.571 31.898-11.342 47.375-10.817 15.512.526 31.025 14.518 46.537 13.992 15.477-.525 30.01-15.532 45.487-17.104 15.373-1.561 32.617 10.23 47.99 7.637 15.206-2.565 27.646-19.351 42.851-22.926 5.357-1.259 11.367-.934 17.562-.205.416-12.273.407-24.645-.016-37.064z" fill="#eab14d"/><path d="m433.428 304.298c-5.973-.982-11.884-1.553-17.545-.222-6.361 1.496-12.237 5.304-18.035 9.415.222 12.738-.004 25.41-.668 37.966 6.015-4.29 12.097-8.336 18.702-9.889 5.357-1.259 11.367-.934 17.562-.205.416-12.274.407-24.646-.016-37.065z" fill="#e49542"/><g><path d="m93.318 457.101c-4.143 0-7.5 3.357-7.5 7.5s3.357 7.5 7.5 7.5h144.819c4.143 0 7.5-3.357 7.5-7.5s-3.357-7.5-7.5-7.5z"/><path d="m429.768 478.841c0-4.143-3.357-7.5-7.5-7.5h-144.819c-4.143 0-7.5 3.357-7.5 7.5s3.357 7.5 7.5 7.5h144.819c4.143 0 7.5-3.357 7.5-7.5z"/><path d="m440.315 429.787h-9.965c1.668-7.814 3.135-15.752 4.422-23.788.738.234 1.504.354 2.272.354 1.86 0 3.725-.688 5.177-2.074 2.997-2.86 3.107-7.607.248-10.604l-.677-.71 4.252-2.177c3.688-1.887 5.146-6.406 3.259-10.093-1.888-3.688-6.408-5.147-10.093-3.259l-.738.378c3.721-36.297 3.641-74.298-.005-110.813-3.284-32.887-15.467-64.405-35.694-91.214l.594-.185c3.956-1.229 6.167-5.432 4.938-9.387-1.228-3.954-5.429-6.171-9.387-4.938l-1.392.432v-7.927c0-4.143-3.357-7.5-7.5-7.5-3.934 0-7.155 3.03-7.469 6.884-1.19-1.127-2.391-2.245-3.614-3.344-13.398-12.036-28.349-21.919-44.343-29.475.977-1.28 1.83-2.702 2.492-4.301 3.405-8.229.153-16.783-2.46-23.656-1.381-3.632-2.809-7.389-2.811-9.906-.002-2.765 1.458-6.684 2.871-10.474 1.156-3.104 2.379-6.387 3.119-9.76l8.951-3.697c3.828-1.581 5.65-5.967 4.068-9.795-1.581-3.828-5.967-5.649-9.795-4.068l-5.042 2.082c-3.709-6.437-10.699-9.643-16.947-12.492-3.68-1.679-7.484-3.414-9.438-5.369-1.781-1.781-3.431-5.445-5.025-8.989-3.018-6.705-6.772-15.05-15.001-18.455-7.604-3.145-15.501-.598-21.587 1.679l-27.384-1.045c-5.57-1.839-11.971-3.173-18.157-.607-7.913 3.28-11.485 11.111-14.637 18.02-1.6 3.507-3.254 7.11-5.097 9.133-.507-3.997-4.101-6.887-8.132-6.524-3.817.358-6.697 3.517-6.799 7.255l-2.71-1.09c-3.84-1.543-8.211.317-9.757 4.161-1.545 3.843.318 8.211 4.161 9.757l.162.065c-1.915 1.853-3.541 4.043-4.643 6.708-3.403 8.228-.152 16.781 2.461 23.653 1.381 3.633 2.809 7.39 2.811 9.909.002 2.764-1.458 6.683-2.87 10.472-2.651 7.116-5.656 15.182-2.375 23.095.654 1.576 1.496 2.978 2.469 4.239-15.995 7.556-30.946 17.439-44.345 29.476-1.83 1.644-3.616 3.327-5.371 5.036l-.64-2.167c-1.175-3.973-5.349-6.242-9.318-5.066-3.973 1.174-6.24 5.347-5.066 9.318l3.141 10.626c-26.454 31.15-39.277 66.025-42.782 105.14-7.052-5.4-15.996 3.902-10.326 10.741l4.329 5.221-2.579 1.639c-3.495 2.223-4.528 6.857-2.307 10.354 1.43 2.248 3.856 3.478 6.337 3.478.883 0 1.769-.174 2.623-.495-1.434 41.643 1.751 84.902 10.553 126.14h-9.965c-14.422 0-26.155 11.733-26.155 26.155v30.001c0 14.422 11.733 26.155 26.155 26.155h190.673c4.143 0 7.5-3.357 7.5-7.5s-3.357-7.5-7.5-7.5h-190.672c-6.151 0-11.155-5.004-11.155-11.155v-30.001c0-6.151 5.004-11.155 11.155-11.155h368.532c6.151 0 11.155 5.004 11.155 11.155v30.001c0 6.151-5.004 11.155-11.155 11.155h-147.872c-4.143 0-7.5 3.357-7.5 7.5s3.357 7.5 7.5 7.5h147.872c14.422 0 26.155-11.733 26.155-26.155v-30.001c0-14.423-11.733-26.156-26.155-26.156zm-36.183-224.28c2.93 5.382 5.557 10.922 7.874 16.595-7.876 2.375-14.672 7.25-21.26 11.986-6.599 4.743-12.831 9.224-18.962 10.258-6.268 1.059-13.689-1.159-21.551-3.506-8.398-2.506-17.078-5.097-25.949-4.197-8.934.907-16.955 5.204-24.712 9.359-7.199 3.855-13.999 7.498-20.271 7.71-6.3.226-13.344-2.968-20.802-6.336-8.005-3.615-16.281-7.353-25.228-7.656-8.941-.282-17.423 2.864-25.642 5.927-7.68 2.862-14.937 5.566-21.229 4.925-6.215-.631-12.741-4.708-19.651-9.024-7.482-4.674-15.219-9.507-24.106-11.006-8.783-1.48-17.613.542-26.154 2.497-7.739 1.772-15.057 3.439-21.142 2.229 2.393-7.64 5.326-15.086 8.782-22.28 5.319-.457 10.579-1.65 15.706-2.822 7.441-1.702 14.47-3.309 20.313-2.325 5.957 1.005 12.124 4.857 18.653 8.937 8.062 5.036 16.396 10.243 26.083 11.227 9.782.989 19.031-2.458 27.983-5.793 7.168-2.67 13.942-5.203 19.896-4.99 5.981.202 12.577 3.182 19.56 6.335 8.361 3.776 16.996 7.676 26.355 7.676.376 0 .753-.006 1.131-.019 9.765-.331 18.448-4.982 26.845-9.48 6.77-3.625 13.163-7.05 19.145-7.657 5.913-.6 12.824 1.465 20.144 3.647 9.16 2.734 18.635 5.558 28.337 3.923 9.565-1.613 17.527-7.334 25.227-12.867 1.573-1.134 3.106-2.227 4.625-3.273zm-318.274 117.728c1.838.755 3.636 1.347 5.436 1.771 9.591 2.257 19.228.049 28.544-2.084 7.441-1.704 14.47-3.312 20.311-2.328 5.957 1.005 12.124 4.857 18.653 8.937 8.062 5.036 16.396 10.243 26.083 11.227 9.779.997 19.03-2.456 27.983-5.793 7.168-2.671 13.942-5.205 19.896-4.99 5.982.202 12.577 3.182 19.561 6.335 8.361 3.776 16.996 7.676 26.355 7.676.375 0 .752-.006 1.129-.019 9.765-.331 18.448-4.982 26.845-9.48 6.77-3.625 13.163-7.05 19.139-7.657.426-.042.917-.071 1.501-.087 4.141-.112 7.406-3.56 7.294-7.7s-3.542-7.438-7.7-7.294c-.953.025-1.803.077-2.604.157-8.934.907-16.955 5.204-24.712 9.359-7.199 3.855-13.999 7.498-20.271 7.71-6.296.214-13.345-2.967-20.803-6.336-8.004-3.614-16.28-7.353-25.227-7.656-8.94-.29-17.423 2.864-25.641 5.927-7.68 2.862-14.937 5.571-21.23 4.925-6.215-.631-12.741-4.708-19.651-9.024-7.481-4.674-15.218-9.507-24.106-11.006-8.774-1.478-17.609.543-26.152 2.497-8 1.833-15.558 3.562-21.763 2.104-2.527-.594-5.321-1.858-8.619-3.907.502-16.636 1.866-40.377 5.399-56.708 9.52 2.174 19.082-.01 28.329-2.128 7.441-1.704 14.471-3.313 20.312-2.328 5.957 1.005 12.124 4.857 18.654 8.937 8.062 5.036 16.396 10.243 26.084 11.227 9.768.989 19.029-2.458 27.981-5.793 7.167-2.67 13.938-5.207 19.896-4.99 5.982.202 12.578 3.181 19.561 6.335 8.362 3.776 16.997 7.676 26.355 7.676.375 0 .752-.006 1.129-.019 9.765-.331 18.448-4.982 26.845-9.48 6.77-3.625 13.163-7.05 19.146-7.657 5.916-.604 12.824 1.463 20.145 3.647 9.16 2.734 18.635 5.56 28.334 3.923 9.564-1.613 17.525-7.335 25.224-12.869 6.077-4.369 11.828-8.495 17.553-10.008 3.195 10.429 5.386 21.214 6.487 32.231.911 9.127 1.57 18.258 2.022 27.371-3.697-.176-7.555.009-11.397.913-8.809 2.071-16.236 7.41-23.42 12.573-6.599 4.743-12.832 9.224-18.964 10.258-3.558.601-7.739.216-13.563-1.247-4.019-1.005-8.093 1.432-9.101 5.448-1.009 4.018 1.431 8.092 5.448 9.101 3.879.974 8.667 1.969 13.795 1.969 1.934-.001 3.917-.142 5.916-.479 9.564-1.613 17.525-7.335 25.224-12.869 6.27-4.506 12.19-8.763 18.099-10.151 2.696-.634 5.594-.68 8.519-.453.165 7.474.165 14.923.022 22.339-3.937-.127-8.021.074-11.976 1.004-8.81 2.071-16.237 7.41-23.42 12.574-6.599 4.743-12.832 9.224-18.962 10.258-6.264 1.059-13.688-1.159-21.551-3.506-8.398-2.506-17.085-5.098-25.948-4.197-8.936.907-16.957 5.204-24.715 9.359-7.198 3.855-13.998 7.497-20.269 7.71-6.3.204-13.344-2.968-20.802-6.336-8.005-3.615-16.281-7.353-25.228-7.656-8.926-.292-17.422 2.864-25.641 5.927-7.68 2.86-14.928 5.566-21.231 4.924-6.214-.63-12.741-4.708-19.652-9.024-7.481-4.674-15.217-9.506-24.105-11.006-8.774-1.477-17.611.542-26.153 2.497-8 1.833-15.558 3.565-21.761 2.105-2.63-.618-5.321-1.89-8.46-4.003-.27-6.858-.407-13.747-.411-20.663zm103.027-212.872c-1.021-2.461.89-7.588 2.575-12.111 1.878-5.038 3.818-10.247 3.814-15.721-.004-5.269-1.929-10.331-3.79-15.228-1.843-4.848-3.749-9.861-2.621-12.589 1.129-2.728 6.021-4.929 10.751-7.057 4.776-2.149 9.715-4.372 13.441-8.097 3.87-3.871 6.178-8.93 8.409-13.821 2.003-4.392 4.273-9.369 6.733-10.39 1.962-.812 5.617.263 8.583 1.291.699.243 1.431.381 2.17.408l29.987 1.145c1.001.041 2.007-.125 2.947-.482 4.117-1.562 9.245-3.504 11.961-2.383 2.728 1.129 4.929 6.021 7.058 10.751 2.149 4.775 4.372 9.715 8.097 13.44 3.871 3.87 8.929 6.178 13.82 8.409 4.392 2.003 9.37 4.274 10.391 6.734.247.596.319 1.35.267 2.211 0 .011-.001.022-.001.033-.172 2.696-1.57 6.453-2.842 9.867-1.877 5.038-3.818 10.248-3.814 15.722.004 5.269 1.929 10.33 3.79 15.226 1.844 4.849 3.749 9.862 2.62 12.592-.492 1.19-1.728 2.359-3.88 3.655-20.093-7.362-41.487-11.223-63.302-11.223h-.001c-21.774 0-43.128 3.846-63.187 11.18-1.786-1.046-3.445-2.283-3.976-3.562zm-45.708 50.62c31.038-27.882 71.123-43.236 112.872-43.236 56.646 0 109.203 28.316 140.311 74.899-1.907 1.297-3.775 2.632-5.609 3.95-6.601 4.743-12.835 9.224-18.969 10.258-6.263 1.056-13.69-1.159-21.553-3.505-8.398-2.507-17.086-5.097-25.947-4.198-8.934.907-16.955 5.204-24.712 9.359-7.199 3.855-13.999 7.498-20.271 7.71-6.339.209-13.347-2.969-20.804-6.336-8.004-3.614-16.279-7.353-25.226-7.656-8.94-.285-17.423 2.864-25.641 5.927-7.679 2.861-14.928 5.566-21.23 4.925-6.215-.631-12.741-4.708-19.651-9.024-7.481-4.674-15.218-9.507-24.106-11.006-8.78-1.483-17.611.54-26.152 2.493-1.043.239-2.071.471-3.093.699 8.17-12.942 18.158-24.817 29.781-35.259zm-46.089 268.804c-4.86-21.979-8.159-44.985-9.871-68.551 1.307.487 2.656.927 4.078 1.261 9.589 2.257 19.224.049 28.542-2.085 7.441-1.703 14.473-3.311 20.311-2.328 5.957 1.005 12.124 4.857 18.653 8.937 8.062 5.036 16.398 10.243 26.085 11.227 9.778.991 19.031-2.456 27.983-5.792 7.166-2.67 13.937-5.197 19.896-4.99 5.982.202 12.578 3.181 19.561 6.335 8.362 3.776 16.997 7.676 26.356 7.676.375 0 .751-.006 1.129-.019 9.764-.332 18.446-4.982 26.843-9.48 6.77-3.626 13.163-7.051 19.146-7.657 5.916-.601 12.825 1.462 20.145 3.647 9.158 2.734 18.63 5.56 28.335 3.923 9.563-1.613 17.523-7.336 25.222-12.869 6.27-4.507 12.19-8.763 18.098-10.152 2.471-.58 5.245-.707 8.042-.618-1.336 28.098-4.882 55.537-10.63 81.536h-317.924z"/></g></g></svg>