<svg id="Capa_1" enable-background="new 0 0 512 512" height="512" viewBox="0 0 512 512" width="512" xmlns="http://www.w3.org/2000/svg"><g><path d="m469.005 297.594-438.53 26.471c-12.458.752-22.975-9.149-22.975-21.63v-12.603c0-29.863 16.977-57.162 43.803-70.283 129.839-63.509 259.679-95.22 389.52-85.508 35.873 2.683 63.676 32.439 63.676 68.412v57.44c.001 19.975-15.554 36.498-35.494 37.701z" fill="#b3e59f"/><path d="m440.824 134.041c-21.443-1.604-42.887-2.071-64.33-1.459 9.443.272 18.887.752 28.33 1.459 35.873 2.683 63.676 32.438 63.676 68.412v64.439c0 13.289-6.888 25.042-17.367 31.781l17.871-1.079c19.94-1.204 35.495-17.726 35.495-37.702v-57.439c.001-35.974-27.802-65.729-63.675-68.412z" fill="#95d6a4"/><path d="m68.822 321.75c12.328 12.789 20.188 26.632 23.219 41.614 2.305 11.393 12.406 19.528 24.03 19.528h277.775c12.682 0 23.265-9.657 24.445-22.285 1.914-20.485 10.21-40.97 24.888-61.454z" fill="#86a0af"/><path d="m81.799 338.188 350.197-21.139c3.192-5.965 6.908-11.931 11.183-17.896l-374.357 22.597c5.104 5.296 9.43 10.775 12.977 16.438z" fill="#738b95"/><path d="m129.465 185.238c9.222-3.576 18.444-6.98 27.666-10.213-12.004-10.678-16.745-22.345-18.394-31.726-1.697-9.65-11.213-15.864-20.793-13.807-8.405 1.804-14.235 9.46-13.752 18.044.775 13.789 5.57 32.693 25.273 37.702z" fill="#d6f6b2"/><path d="m129.465 185.238c9.222-3.576 18.444-6.98 27.666-10.213-4.895-4.354-8.566-8.873-11.329-13.334-11.103 3.87-22.206 7.99-33.309 12.357 3.8 5.105 9.232 9.222 16.972 11.19z" fill="#ccf49f"/><path d="m491.601 150.65c-13.133-14.094-30.967-22.648-50.217-24.089-25.29-1.891-51.172-2.236-76.932-1.03-4.138.194-7.334 3.706-7.141 7.844.194 4.137 3.693 7.312 7.844 7.141 25.153-1.181 50.423-.844 75.109 1.005 15.476 1.157 29.81 8.031 40.362 19.355 10.56 11.33 16.374 26.096 16.374 41.576v57.439c0 15.981-12.495 29.253-28.447 30.216l-438.53 26.471c-8.17.481-15.023-5.975-15.023-14.143v-12.603c0-26.837 15.544-51.78 39.6-63.546 96.341-47.125 190.854-75.282 280.914-83.69 4.124-.386 7.155-4.041 6.771-8.165s-4.034-7.144-8.165-6.771c-56.884 5.311-115.452 18.325-175.066 38.836-6.983-7.162-11.328-15.384-12.93-24.496-1.164-6.621-4.896-12.35-10.507-16.129-5.613-3.78-12.629-5.133-19.246-3.712-12.092 2.595-20.362 13.444-19.667 25.797.903 16.053 6.118 28.44 15.03 36.302-21.142 8.599-42.392 18.118-63.724 28.552-29.165 14.266-48.01 44.499-48.01 77.022v12.603c0 16.73 14.12 30.137 30.928 29.116l34.815-2.102c7.157 7.917 12.471 16.237 15.802 24.774 1.156 2.963 3.989 4.775 6.989 4.775.906 0 1.829-.166 2.725-.515 3.858-1.506 5.766-5.854 4.261-9.714-2.735-7.009-6.535-13.844-11.348-20.434l47.295-2.855v49.91h-15.396c-3.505 0-6.883-1.06-9.77-3.064-3.402-2.364-8.076-1.521-10.438 1.882s-1.521 8.076 1.882 10.438c5.411 3.758 11.748 5.744 18.326 5.744h277.774c16.643 0 30.362-12.504 31.913-29.087 1.69-18.094 8.926-36.543 21.496-54.884l22.202-1.34c23.856-1.438 42.544-21.287 42.544-45.187v-57.439c0-19.29-7.244-37.687-20.399-51.803zm-379.921-3.536c-.277-4.927 3.019-9.254 7.838-10.288 2.691-.581 5.436-.052 7.72 1.488 2.2 1.481 3.66 3.713 4.112 6.284 1.735 9.867 6.011 19.13 12.507 27.286-4.867 1.773-9.74 3.588-14.621 5.46-10.73-3.695-16.636-13.848-17.556-30.23zm148.256 170.614 41.757-2.521v60.185h-41.742v-57.362c0-.103-.011-.202-.015-.302zm-14.985 57.664h-41.742v-54.24l41.742-2.52zm71.742-61.091 41.742-2.52v63.61h-41.742zm-170.226 10.276 41.742-2.52v53.335h-41.742zm264.356 35.332c-.825 8.826-8.124 15.482-16.978 15.482h-20.41v-64.516l55.319-3.339c-10.274 17.365-16.301 34.928-17.931 52.373z"/></g></svg>