<svg id="Capa_1" enable-background="new 0 0 512.022 512.022" height="512" viewBox="0 0 512.022 512.022" width="512" xmlns="http://www.w3.org/2000/svg"><g><path d="m305.104 435.146-98.524 66.901c-4.816 3.27-11.14 3.27-15.956 0l-98.524-66.901c-4.421-3.002-6.783-8.232-6.111-13.534l51.045-402.9c.812-6.408 6.263-11.212 12.723-11.212h97.691c6.459 0 11.911 4.804 12.723 11.212l51.045 402.9c.671 5.302-1.691 10.532-6.112 13.534z" fill="#e28086"/><path d="m311.215 421.612-51.045-402.9c-.812-6.408-6.263-11.212-12.723-11.212h-21.013l54.35 444.16 24.319-16.514c4.422-3.002 6.784-8.232 6.112-13.534z" fill="#dd636e"/><path d="m263.89 48.073 15.009 118.467 110.048 135.758c3.36 4.145 9.402 4.879 13.657 1.66l19.596-14.826c4.255-3.22 5.191-9.233 2.116-13.594z" fill="#da4a54"/><path d="m116 184.732 151.875-105.205-5.668-44.733-139.449 96.598z" fill="#f9f6f9"/><path d="m237.798 100.362 30.077-20.835-5.668-44.733-29.898 20.711z" fill="#dddaec"/><path d="m94.18 356.958 191.994-132.997-5.668-44.733-179.568 124.389z" fill="#f9f6f9"/><path d="m255.52 245.195 30.654-21.234-5.668-44.733-30.475 21.111z" fill="#dddaec"/><path d="m157.11 479.29 148.389-102.791-5.667-44.733-178.195 123.437z" fill="#f9f6f9"/><g fill="#dddaec"><path d="m274.237 398.154 31.262-21.655-5.667-44.733-31.084 21.532z"/><path d="m341.011 157.423-24.17-34.27-43.711-2.148 4.217 33.29z"/><path d="m409.033 253.87-24.17-34.27-65.565-3.222 27.93 34.456z"/></g><path d="m430.444 271.216-54.239-76.905c-2.386-3.384-7.064-4.195-10.451-1.807-3.386 2.387-4.194 7.066-1.807 10.451l5.923 8.399-46.856-2.302-36.944-45.575-.159-1.252 51.078 2.51 9.602 13.615c1.461 2.071 3.779 3.179 6.136 3.179 1.493 0 3.002-.445 4.315-1.372 3.386-2.387 4.194-7.066 1.807-10.451l-11.706-16.597c-.002-.002-.003-.005-.004-.007l-24.17-34.271c-.002-.003-.005-.006-.008-.01l-51.867-73.542-1.448-11.427c0-.003-.001-.005-.002-.008l-2.034-16.074c-1.283-10.13-9.951-17.77-20.163-17.77h-97.691c-10.212 0-18.88 7.64-20.163 17.77-2.206 17.412-47.412 374.217-51.045 402.899-1.031 8.146 2.547 16.07 9.338 20.682l29.534 20.055c.001.001.003.002.004.003l12.363 8.395 56.624 38.449c3.703 2.514 7.946 3.771 12.19 3.771s8.488-1.257 12.191-3.771l18.804-12.769c3.427-2.327 4.318-6.991 1.991-10.418s-6.99-4.318-10.418-1.992l-18.804 12.769c-2.287 1.553-5.243 1.553-7.53 0l-24.468-16.614 129.243-89.528 4.162 32.854c.318 2.517-.787 4.964-2.884 6.388l-54.855 37.248c-3.427 2.327-4.318 6.991-1.991 10.418 2.326 3.427 6.989 4.318 10.418 1.992l54.854-37.248c6.791-4.611 10.369-12.536 9.339-20.682l-29.006-228.961c9.232 11.389 84.084 103.728 93.472 115.31 3.446 4.253 8.443 6.47 13.501 6.47 3.659 0 7.35-1.16 10.508-3.55l19.596-14.827c7.523-5.692 9.156-16.189 3.72-23.897zm-49.603-44.305 13.198 18.714-43.095-2.117-15.251-18.814zm-272.883 80.967 166.661-115.447 3.542 27.957-174.427 120.827zm2.534-20.003 12.528-98.883 138.968-96.264c1.964 15.505 7.978 62.966 10.507 82.927zm173.506-140.763c-.016-.124-2.273-17.935-2.303-18.178l31.126 1.529 13.198 18.713zm17.85-32.206-22.068-1.084-4.633-36.565-.032-.256zm-157.374-95.252c.336-2.653 2.607-4.654 5.282-4.654h97.691c2.675 0 4.945 2.001 5.282 4.654l1.466 11.567-42.258 29.273c-3.405 2.358-4.253 7.031-1.894 10.436s7.03 4.254 10.436 1.895l35.842-24.828.118.933c.002.019.005.038.007.058l.028.223 3.388 26.744-134.308 93.035 4.224-33.337 66.05-45.754c3.405-2.358 4.253-7.031 1.894-10.436-2.358-3.404-7.03-4.254-10.436-1.895l-54.974 38.081zm12.593 450.54-11.029-7.489-11.14-7.565 159.047-110.173 3.542 27.957zm-35.472-24.086-25.283-17.168c-2.097-1.424-3.202-3.871-2.884-6.387l7.771-61.336 179.087-124.055 11.533 91.03zm296.078-162.958-19.596 14.827c-1.034.784-2.486.607-3.305-.402l-31.149-38.427 41.389 2.033 13.173 18.678c.749 1.063.524 2.508-.512 3.291z"/></g></svg>