<svg id="Capa_1" enable-background="new 0 0 512 512" height="512" viewBox="0 0 512 512" width="512" xmlns="http://www.w3.org/2000/svg"><g><path d="m258.333 205.084-30.198 30.198c-16.651 16.651-26.017 39.241-26.017 62.8v117.578h-165.925v-302.882c0-5.733 2.323-10.918 6.073-14.668 3.759-3.75 8.944-6.074 14.668-6.074 11.456 0 20.742 9.285 20.742 20.742v-31.561c0-5.733 2.324-10.918 6.074-14.668 3.759-3.75 8.945-6.074 14.668-6.074 11.456 0 20.742 9.285 20.742 20.742v-36.657c0-11.708 9.698-21.145 21.495-20.724 11.241.395 19.988 9.976 19.988 21.226v28.996c0-5.733 2.324-10.918 6.074-14.668 3.817-3.808 9.104-6.145 14.932-6.072 11.437.143 20.469 9.831 20.469 21.268v106.132c0 8.083 9.779 12.138 15.493 6.415l11.385-11.385c8.101-8.092 21.235-8.092 29.336 0 8.102 8.101 8.102 21.235.001 29.336z" fill="#f4c3c6"/><path d="m177.447 74.057v106.661c0 8.083 9.779 12.138 15.494 6.415l9.178-9.178v-103.898c0-11.456-9.285-20.742-20.733-20.742-4.619 0-8.887 1.515-12.338 4.07 5.094 3.78 8.399 9.839 8.399 16.672z" fill="#eab1b7"/><path d="m258.333 175.748c-7.367-7.358-18.883-8.002-27.004-1.978.81.601 1.598 1.245 2.333 1.978 8.101 8.101 8.101 21.235 0 29.336l-30.198 30.198c-16.651 16.651-26.017 39.241-26.017 62.8v102.157c0 8.514-6.899 15.422-15.413 15.422h40.084v-117.58c0-23.559 9.366-46.149 26.017-62.8l30.198-30.198c8.101-8.1 8.101-21.234 0-29.335z" fill="#eab1b7"/><path d="m230.811 430.918c0 8.729-9.27 14.301-17.003 10.253-5.253-2.75-9.844-5.855-20.213-5.855-18.608 0-18.608 10-37.216 10-18.609 0-18.609-10-37.218-10-18.608 0-18.608 10-37.217 10-18.611 0-18.611-10-37.222-10-10.374 0-14.965 3.107-20.22 5.857-7.733 4.047-17.002-1.525-17.002-10.253v-80.787c0-18.16 14.721-32.881 32.881-32.881h12.82c13.537 0 25.927 7.6 32.063 19.667 6.136 12.066 18.526 19.667 32.063 19.667h80.604c18.16 0 32.881 14.721 32.881 32.881v41.451z" fill="#e28086"/><g><path d="m197.93 356.585h-26.693c18.16 0 32.881 14.722 32.881 32.881v41.452c0 2.006-.507 3.834-1.356 5.428 4.55 1.142 7.665 3.054 11.046 4.824 7.733 4.048 17.003-1.524 17.003-10.252v-41.452c0-18.159-14.721-32.881-32.881-32.881z" fill="#dd636e"/></g><g><path d="m111.809 286.977-16.584-27.438c-2.269-3.755-2.269-8.458 0-12.213l16.584-27.438c4.592-7.598 15.614-7.598 20.206 0l16.584 27.438c2.269 3.755 2.269 8.458 0 12.213l-16.584 27.438c-4.592 7.599-15.613 7.599-20.206 0z" fill="#e28086"/><path d="m148.599 247.327-16.584-27.438c-4.492-7.432-15.119-7.574-19.88-.467.106.159.226.301.326.467l16.584 27.438c2.269 3.755 2.269 8.458 0 12.213l-16.584 27.438c-.1.166-.22.308-.326.467 4.761 7.108 15.388 6.966 19.88-.467l16.584-27.438c2.269-3.755 2.269-8.459 0-12.213z" fill="#dd636e"/></g><path d="m253.667 306.915 30.198-30.198c16.651-16.651 26.017-39.241 26.017-62.8v-117.577h165.925v302.882c0 5.733-2.323 10.918-6.073 14.668-3.759 3.75-8.944 6.074-14.668 6.074-11.456 0-20.742-9.285-20.742-20.742v31.561c0 5.733-2.324 10.918-6.074 14.668-3.759 3.75-8.945 6.074-14.668 6.074-11.456 0-20.742-9.285-20.742-20.742v36.657c0 11.708-9.698 21.145-21.495 20.724-11.241-.395-19.988-9.976-19.988-21.226v-28.996c0 5.733-2.324 10.918-6.074 14.668-3.817 3.808-9.104 6.145-14.932 6.072-11.437-.143-20.469-9.831-20.469-21.268v-106.132c0-8.083-9.779-12.138-15.493-6.415l-11.385 11.385c-8.101 8.092-21.235 8.092-29.336 0-8.102-8.101-8.102-21.235-.001-29.337z" fill="#f4c3c6"/><g><path d="m456.06 96.339v302.882c0 5.732-2.323 10.918-6.073 14.668-1.413 1.41-3.028 2.617-4.797 3.576 2.936 1.593 6.3 2.498 9.875 2.498 5.724 0 10.909-2.324 14.668-6.074 3.75-3.75 6.073-8.936 6.073-14.668v-302.882z" fill="#eab1b7"/></g><path d="m281.188 81.081c0-8.729 9.27-14.301 17.003-10.253 5.253 2.75 9.844 5.855 20.213 5.855 18.608 0 18.608-10 37.216-10 18.609 0 18.609 10 37.218 10 18.608 0 18.608-10 37.217-10 18.611 0 18.611 10 37.222 10 10.374 0 14.965-3.107 20.22-5.857 7.733-4.047 17.002 1.525 17.002 10.253v80.787c0 18.16-14.721 32.881-32.881 32.881h-12.82c-13.537 0-25.927-7.6-32.063-19.667-6.136-12.066-18.526-19.667-32.063-19.667h-80.604c-18.16 0-32.881-14.721-32.881-32.881v-41.451z" fill="#e28086"/><g><path d="m487.498 70.827c-3.044 1.593-5.873 3.302-9.724 4.461.969 1.673 1.538 3.635 1.538 5.792v80.787c0 16.077-11.541 29.45-26.789 32.309 2.052.364 4.147.572 6.276.572h12.82c18.16 0 32.881-14.721 32.881-32.881v-80.787c0-8.728-9.269-14.3-17.002-10.253z" fill="#dd636e"/></g><g><path d="m379.984 225.022-16.584 27.438c-2.269 3.755-2.269 8.458 0 12.213l16.584 27.438c4.592 7.598 15.614 7.598 20.206 0l16.584-27.438c2.269-3.755 2.269-8.458 0-12.213l-16.584-27.438c-4.592-7.598-15.613-7.598-20.206 0z" fill="#e28086"/><path d="m416.774 264.673-16.584 27.438c-4.492 7.432-15.119 7.574-19.88.467.106-.159.226-.301.326-.467l16.584-27.438c2.269-3.755 2.269-8.458 0-12.213l-16.584-27.438c-.1-.166-.22-.308-.326-.467 4.761-7.108 15.388-6.966 19.88.467l16.584 27.438c2.269 3.755 2.269 8.458 0 12.213z" fill="#dd636e"/></g><g><path d="m209.618 350.816v-52.735c0-21.716 8.459-42.136 23.82-57.496l30.198-30.197c11.036-11.038 11.042-28.9-.004-39.946-11.01-10.998-28.925-10.997-39.939.003l-11.389 11.389c-1.013 1.005-2.687.298-2.687-1.115v-106.133c0-15.671-12.505-28.576-27.875-28.768-4.823-.068-9.464 1.076-13.6 3.278v-4.034c0-15.311-12.213-28.195-27.22-28.722-7.738-.278-15.068 2.528-20.632 7.896-5.566 5.371-8.632 12.589-8.632 20.323v11.716c-3.952-2.106-8.46-3.301-13.242-3.301-7.532 0-14.623 2.935-19.972 8.271-5.333 5.334-8.271 12.427-8.271 19.972v6.62c-3.952-2.106-8.46-3.301-13.242-3.301-7.533 0-14.624 2.935-19.971 8.27-5.333 5.334-8.271 12.427-8.271 19.972v147.348c0 4.143 3.358 7.5 7.5 7.5s7.5-3.357 7.5-7.5v-147.349c0-3.539 1.377-6.864 3.871-9.358 2.51-2.504 5.838-3.883 9.371-3.883 7.299 0 13.237 5.936 13.241 13.233 0 .004-.001.007-.001.011v58.927c0 4.143 3.358 7.5 7.5 7.5s7.5-3.357 7.5-7.5c0-10.946.001-80.499.001-90.49 0-3.539 1.377-6.864 3.871-9.358 2.511-2.504 5.839-3.884 9.372-3.884 7.292 0 13.226 5.926 13.24 13.216 0 .008-.001.015-.001.022v82.313c0 4.143 3.358 7.5 7.5 7.5s7.5-3.357 7.5-7.5c0-1 .002-98.919.002-118.966 0-3.626 1.438-7.011 4.047-9.528 2.607-2.516 6.04-3.822 9.686-3.7 7.031.247 12.751 6.407 12.751 13.731-.001 18.119-.003 86.949-.003 111.536 0 4.143 3.358 7.5 7.5 7.5s7.5-3.357 7.5-7.5v-82.475c0-.023.003-.045.003-.068 0-3.539 1.377-6.864 3.87-9.357 2.555-2.549 5.926-3.925 9.542-3.883 7.202.09 13.062 6.267 13.062 13.77v106.132c0 6.73 4.019 12.742 10.239 15.316 6.217 2.57 13.307 1.159 18.058-3.598l11.382-11.382c5.166-5.161 13.57-5.16 18.732-.003 5.176 5.174 5.177 13.553 0 18.729l-30.197 30.197c-18.194 18.195-28.214 42.381-28.214 68.104v51.004h-77.292c-10.771 0-20.496-5.964-25.377-15.565-7.455-14.66-22.302-23.768-38.749-23.768h-9.508v-19.641c0-4.143-3.358-7.5-7.5-7.5s-7.5 3.357-7.5 7.5v21.372c-16.579 5.025-28.688 20.448-28.688 38.651v80.786c0 6.733 3.438 12.835 9.195 16.32 5.774 3.495 12.797 3.711 18.785.578.565-.297 1.124-.597 1.682-.896 4.271-2.294 7.643-4.106 15.061-4.106s10.791 1.812 15.061 4.106c4.886 2.626 10.968 5.894 22.161 5.894 11.192 0 17.273-3.268 22.159-5.894 4.27-2.294 7.642-4.106 15.058-4.106 7.417 0 10.789 1.812 15.059 4.106 4.886 2.626 10.967 5.894 22.16 5.894 11.191 0 17.272-3.268 22.158-5.894 4.27-2.294 7.642-4.106 15.058-4.106s10.789 1.812 15.058 4.107c.556.299 1.112.598 1.677.893 5.988 3.135 13.01 2.918 18.785-.576 5.758-3.485 9.196-9.587 9.196-16.321v-41.451c-.001-18.204-12.111-33.627-28.695-38.652zm13.694 80.102c0 2.076-1.373 3.131-1.963 3.488-.598.363-2.192 1.099-4.061.12-.516-.27-1.024-.543-1.533-.816-4.886-2.626-10.967-5.895-22.159-5.895s-17.273 3.268-22.159 5.894c-4.269 2.294-7.641 4.106-15.058 4.106s-10.79-1.812-15.059-4.106c-4.886-2.626-10.967-5.894-22.159-5.894s-17.272 3.268-22.159 5.894c-4.27 2.294-7.642 4.106-15.059 4.106-7.418 0-10.791-1.812-15.061-4.106-4.886-2.626-10.968-5.894-22.161-5.894-11.192 0-17.273 3.268-22.16 5.894-.51.273-1.021.548-1.538.818-1.87.979-3.464.242-4.062-.119-.59-.357-1.963-1.413-1.963-3.488v-80.786c0-13.995 11.386-25.382 25.381-25.382h12.82c10.771 0 20.495 5.965 25.377 15.566 7.455 14.66 22.302 23.767 38.749 23.767h80.604c13.995 0 25.381 11.387 25.381 25.382v41.451z"/><path d="m105.39 290.856c3.527 5.836 9.703 9.32 16.522 9.32s12.995-3.484 16.522-9.319l16.583-27.438c3.724-6.159 3.724-13.812.001-19.972l-16.583-27.438c-3.527-5.836-9.703-9.32-16.522-9.32s-12.995 3.484-16.522 9.319l-16.583 27.438c-3.724 6.159-3.724 13.812-.001 19.972zm-3.745-39.649 16.583-27.439c1.133-1.875 2.954-2.078 3.684-2.078s2.551.203 3.684 2.079l16.584 27.438c.83 1.373.83 3.079-.001 4.452l-16.583 27.439c-1.133 1.875-2.954 2.078-3.684 2.078s-2.551-.203-3.684-2.078c0 0 0 0 0-.001l-16.584-27.438c-.83-1.373-.83-3.079.001-4.452z"/><path d="m139.508 392.051h-84.322c-4.142 0-7.5 3.357-7.5 7.5s3.358 7.5 7.5 7.5h84.322c4.142 0 7.5-3.357 7.5-7.5s-3.358-7.5-7.5-7.5z"/><path d="m356.982 248.58c-3.723 6.16-3.723 13.812 0 19.973l16.584 27.438c3.526 5.835 9.702 9.319 16.521 9.319h.001c6.818 0 12.995-3.483 16.522-9.319l16.583-27.438c3.723-6.16 3.723-13.812 0-19.973l-16.583-27.438c-3.527-5.836-9.704-9.319-16.523-9.319-6.818.001-12.994 3.484-16.521 9.32v-.001zm29.422-19.678c0-.001 0-.001 0 0 1.134-1.876 2.953-2.079 3.684-2.079s2.551.203 3.685 2.079l16.583 27.437c.83 1.373.83 3.08 0 4.454l-16.582 27.438c-1.135 1.876-2.955 2.078-3.686 2.078s-2.551-.202-3.684-2.078l-16.584-27.438c-.83-1.373-.83-3.08 0-4.453z"/><path d="m456.814 119.949c4.143 0 7.5-3.357 7.5-7.5s-3.357-7.5-7.5-7.5h-84.322c-4.143 0-7.5 3.357-7.5 7.5s3.357 7.5 7.5 7.5z"/><path d="m502.804 64.76c-5.772-3.495-12.796-3.712-18.784-.578-5.484 2.87-8.532 5.002-16.742 5.002-7.418 0-10.791-1.812-15.062-4.106-4.887-2.626-10.968-5.894-22.161-5.894-11.191 0-17.272 3.268-22.158 5.894-4.27 2.294-7.642 4.106-15.059 4.106s-10.789-1.812-15.059-4.106c-4.886-2.626-10.967-5.894-22.159-5.894-11.191 0-17.272 3.268-22.158 5.894-4.27 2.294-7.642 4.106-15.059 4.106-8.25 0-11.402-2.208-16.734-4.999-5.988-3.135-13.012-2.919-18.785.575-5.758 3.485-9.196 9.587-9.196 16.321v41.452c0 18.202 12.109 33.625 28.693 38.649v52.735c0 21.717-8.459 42.136-23.82 57.496l-30.198 30.198c-11.012 11.012-11.012 28.931.003 39.946 11.012 11 28.927 10.997 39.94-.003l11.389-11.39c1.011-1.006 2.686-.298 2.686 1.115v106.133c0 15.671 12.505 28.576 27.876 28.768 4.769.067 9.463-1.077 13.599-3.279v4.035c0 15.311 12.213 28.195 27.221 28.722.349.013.696.019 1.044.019 7.353 0 14.273-2.788 19.587-7.914 5.566-5.371 8.632-12.589 8.632-20.323v-11.717c3.951 2.106 8.46 3.302 13.242 3.302 7.532 0 14.623-2.936 19.972-8.271 5.333-5.334 8.271-12.427 8.271-19.972v-6.62c3.951 2.106 8.459 3.301 13.241 3.301 7.532 0 14.623-2.936 19.972-8.271 5.333-5.334 8.271-12.427 8.271-19.972v-17.394c0-4.143-3.357-7.5-7.5-7.5s-7.5 3.357-7.5 7.5v17.394c0 3.538-1.377 6.864-3.871 9.358-2.511 2.505-5.839 3.884-9.371 3.884-7.298 0-13.236-5.936-13.241-13.233 0-.004.001-.007.001-.011v-58.928c0-4.143-3.357-7.5-7.5-7.5s-7.5 3.357-7.5 7.5c0 10.946-.001 80.495-.001 90.491 0 3.538-1.377 6.864-3.871 9.358-2.511 2.505-5.839 3.884-9.371 3.884-7.292 0-13.224-5.924-13.241-13.212 0-.009.001-.018.001-.027v-82.312c0-4.143-3.357-7.5-7.5-7.5s-7.5 3.357-7.5 7.5c0 4.088-.003 114.876-.003 118.966 0 3.626-1.438 7.011-4.047 9.528-2.608 2.517-6.04 3.842-9.686 3.7-7.03-.247-12.751-6.407-12.751-13.731 0-11.298.004-101.918.004-111.536 0-4.143-3.357-7.5-7.5-7.5s-7.5 3.357-7.5 7.5v82.464c0 .026-.004.051-.004.077 0 3.539-1.377 6.865-3.87 9.357-2.515 2.509-5.838 3.885-9.373 3.885-.057 0-.113-.001-.169-.001-7.203-.09-13.062-6.267-13.062-13.77v-106.13c0-6.73-4.02-12.742-10.239-15.316-6.22-2.572-13.307-1.158-18.058 3.599l-11.381 11.382c-5.167 5.157-13.57 5.16-18.733.004-5.164-5.164-5.164-13.567 0-18.73l30.198-30.197c18.193-18.194 28.213-42.38 28.213-68.104v-51.004h14.33c4.143 0 7.5-3.357 7.5-7.5s-3.357-7.5-7.5-7.5h-17.643c-13.995 0-25.382-11.386-25.382-25.381v-41.453c0-3.086 3.277-5.044 6.025-3.606 7.241 3.778 12.398 6.709 23.69 6.709 11.191 0 17.272-3.268 22.158-5.894 4.27-2.294 7.642-4.106 15.059-4.106s10.79 1.812 15.06 4.106c4.886 2.626 10.967 5.894 22.158 5.894s17.272-3.268 22.158-5.894c4.27-2.294 7.642-4.106 15.059-4.106 7.418 0 10.791 1.812 15.062 4.106 4.887 2.626 10.968 5.894 22.161 5.894 11.376 0 16.768-3.096 23.697-6.711 2.744-1.439 6.024.521 6.024 3.607v80.786c0 13.995-11.386 25.381-25.381 25.381h-12.819c-10.771 0-20.496-5.965-25.378-15.565-7.455-14.66-22.303-23.768-38.748-23.768h-32.975c-4.143 0-7.5 3.357-7.5 7.5s3.357 7.5 7.5 7.5h32.975c10.771 0 20.495 5.965 25.377 15.566 7.455 14.66 22.303 23.767 38.749 23.767h9.508v149.595c0 4.143 3.357 7.5 7.5 7.5s7.5-3.357 7.5-7.5v-151.326c16.584-5.026 28.693-20.448 28.693-38.65v-80.786c0-6.733-3.438-12.835-9.196-16.32z"/></g></g></svg>