<svg id="Capa_1" enable-background="new 0 0 512 512" height="512" viewBox="0 0 512 512" width="512" xmlns="http://www.w3.org/2000/svg"><g><path d="m470.834 358.851-62.522-27.034c-68.599-29.662-120.536-88.203-141.809-159.849-13.911-46.851-22.369-110.155-22.325-154.877.005-5.302-4.3-9.592-9.601-9.592h-129.163c-5.794 0-10.225 5.085-9.518 10.836 7.184 58.45-28.773 126.053-64.811 177.851-7.265 10.442-12.887 21.773-16.823 33.616 8.057 23.911 25.394 57.026 62.165 77.87 8.962-13.931 24.615-22.654 41.699-22.654 22.026 0 41.317 14.553 47.591 35.666 15.124 50.889 40.77 104.504 72.403 159.67 8.558 14.924 24.44 24.146 41.644 24.146h205.178c10.798 0 19.551-8.753 19.551-19.551v-74.873c.001-22.26-13.227-42.391-33.659-51.225z" fill="#86a0af"/><g><path d="m470.834 358.85-62.522-27.034c-68.599-29.662-120.536-88.203-141.809-159.849-13.911-46.851-22.37-110.155-22.325-154.876.005-5.302-4.3-9.592-9.601-9.592h-26.03c.231.825.363 1.692.362 2.592-.045 44.721 9.413 128.026 23.325 174.876 21.274 71.646 73.21 130.187 141.809 159.849l62.522 27.034c20.432 8.835 33.66 28.966 33.66 51.226v74.873c0 2.302-.418 4.5-1.149 6.551h15.867c10.798 0 19.551-8.753 19.551-19.551v-74.873c0-22.26-13.228-42.391-33.66-51.226z" fill="#738b95"/></g><g><path d="m484.943 457.736h-229.177c-17.141 0-33.026-9.12-41.554-23.989-4.556-7.943-8.971-15.849-13.265-23.724 11.066 23.145 23.603 46.671 37.264 70.488 8.528 14.869 24.413 23.989 41.554 23.989h205.178c10.798 0 19.551-8.753 19.551-19.551v-46.765c0 10.799-8.753 19.552-19.551 19.552z" fill="#d0e2e7"/></g><path d="m484.943 457.736h-14.718v40.213c0 2.302-.418 4.5-1.149 6.551h15.866c10.798 0 19.551-8.753 19.551-19.551v-46.765c.001 10.799-8.752 19.552-19.55 19.552z" fill="#b4d0d5"/><path d="m14.263 229.803c-7.135 21.468-8.709 44.624-4.333 67.262 10.362 53.602 9.587 117.405 2.939 186.588-1.074 11.177 7.731 20.847 18.96 20.847 10.126 0 18.487-7.917 19.026-18.029 3.333-62.577 5.929-126.503 20.526-168.438 1.288-3.699 2.992-7.166 5.046-10.36-36.77-20.844-54.107-53.958-62.164-77.87z" fill="#d0e2e7"/><path d="m167.566 193.453 20.52-185.953h-41.04z" fill="#86a0af"/><path d="m167.566 193.453 20.52-185.953h-41.04z" fill="#738b95"/><g><path d="m281.745 438.63c4.143 0 7.5-3.357 7.5-7.5s-3.357-7.5-7.5-7.5h-11.697c-4.143 0-7.5 3.357-7.5 7.5s3.357 7.5 7.5 7.5z"/><path d="m324.16 438.63c4.143 0 7.5-3.357 7.5-7.5s-3.357-7.5-7.5-7.5h-11.697c-4.143 0-7.5 3.357-7.5 7.5s3.357 7.5 7.5 7.5z"/><path d="m366.575 438.63c4.143 0 7.5-3.357 7.5-7.5s-3.357-7.5-7.5-7.5h-11.697c-4.143 0-7.5 3.357-7.5 7.5s3.357 7.5 7.5 7.5z"/><path d="m408.99 438.63c4.143 0 7.5-3.357 7.5-7.5s-3.357-7.5-7.5-7.5h-11.697c-4.143 0-7.5 3.357-7.5 7.5s3.357 7.5 7.5 7.5z"/><path d="m451.405 438.63c4.143 0 7.5-3.357 7.5-7.5s-3.357-7.5-7.5-7.5h-11.698c-4.143 0-7.5 3.357-7.5 7.5s3.357 7.5 7.5 7.5z"/><path d="m473.81 351.967-62.521-27.034c-66.746-28.861-116.898-85.393-137.597-155.1-6.936-23.358-12.942-52.72-16.914-82.676-.545-4.108-4.332-6.999-8.42-6.449-4.106.544-6.994 4.314-6.449 8.42 4.13 31.155 10.148 60.539 17.404 84.975 21.965 73.976 75.188 133.97 146.022 164.598l62.521 27.034c17.7 7.654 29.137 25.059 29.137 44.342v28.108c0 6.645-5.406 12.051-12.052 12.051h-60.959c-4.143 0-7.5 3.357-7.5 7.5s3.357 7.5 7.5 7.5h60.959c4.329 0 8.42-1.028 12.052-2.843v22.557c0 6.645-5.406 12.051-12.051 12.051h-205.177c-14.467 0-27.931-7.808-35.138-20.376-2.896-5.05-5.707-10.035-8.447-14.967 6.171 2.329 12.796 3.578 19.586 3.578h138.23c4.143 0 7.5-3.357 7.5-7.5s-3.357-7.5-7.5-7.5h-138.23c-14.465 0-27.894-7.748-35.048-20.22-4.363-7.608-8.766-15.48-13.086-23.398-15.155-31.713-26.64-60.869-34.725-88.07-7.294-24.541-29.309-41.029-54.781-41.029-17.073 0-32.924 7.441-43.667 20.213-29.674-18.993-44.72-46.691-52.264-67.938 3.7-10.426 8.756-20.28 15.047-29.323 49.962-71.812 72.2-133.398 66.099-183.05-.106-.864.283-1.451.525-1.725.28-.317.777-.696 1.548-.696h34.914l3.424 31.026h-7.806c-4.143 0-7.5 3.357-7.5 7.5s3.357 7.5 7.5 7.5h9.461l3.44 31.174h-9.612c-4.143 0-7.5 3.357-7.5 7.5s3.357 7.5 7.5 7.5h11.267l9.609 87.075c.42 3.801 3.631 6.678 7.455 6.678 3.823 0 7.035-2.877 7.455-6.678l9.609-87.075h11.268c4.143 0 7.5-3.357 7.5-7.5s-3.357-7.5-7.5-7.5h-9.613l3.44-31.174h9.462c4.143 0 7.5-3.357 7.5-7.5s-3.357-7.5-7.5-7.5h-7.806l3.423-31.026h39.773c.725 0 1.212.336 1.494.618.277.277.607.757.606 1.467-.012 12.644.633 26.677 1.915 41.708.352 4.127 3.978 7.175 8.11 6.835 4.127-.352 7.188-3.983 6.835-8.11-1.246-14.604-1.872-28.203-1.86-40.418.005-4.562-1.769-8.854-4.994-12.082-3.232-3.236-7.531-5.018-12.106-5.018h-129.163c-4.888 0-9.547 2.099-12.783 5.758-3.257 3.682-4.78 8.6-4.179 13.493 3.103 25.245-2.177 54.737-15.691 87.657-10.796 26.297-26.889 54.895-47.831 84.996-7.589 10.907-13.572 22.862-17.784 35.532 0 .001-.001.003-.001.004-7.573 22.79-9.157 47.358-4.577 71.047 4.553 23.557 7.122 50.59 7.637 80.352.071 4.098 3.414 7.37 7.496 7.37.044 0 .089 0 .133-.001 4.142-.072 7.44-3.487 7.369-7.629-.53-30.627-3.19-58.531-7.908-82.938-2.66-13.762-2.978-27.851-1.028-41.62 9.815 19.471 25.425 40.557 50.154 56.364-.786 1.694-1.507 3.418-2.121 5.182-14.105 40.521-17.285 101.088-20.36 159.661l-.572 10.843c-.329 6.128-5.396 10.929-11.539 10.929-3.297 0-6.334-1.345-8.552-3.786-2.212-2.434-3.257-5.574-2.942-8.843 2.64-27.468 4.192-52.163 4.746-75.497.098-4.141-3.179-7.577-7.32-7.676-4.181-.097-7.577 3.181-7.676 7.32-.545 22.97-2.076 47.312-4.682 74.417-.713 7.421 1.755 14.844 6.771 20.365 5.023 5.529 12.187 8.7 19.655 8.7 14.117 0 25.765-11.038 26.516-25.131l.572-10.854c3.021-57.526 6.144-117.011 19.548-155.518 5.768-16.567 21.456-27.979 39.662-27.979 18.779 0 35.015 12.178 40.401 30.303 14.036 47.226 37.943 99.976 73.086 161.264 9.873 17.219 28.323 27.915 48.15 27.915h205.179c14.916 0 27.051-12.135 27.051-27.051v-74.873c0-25.27-14.988-48.079-38.184-58.109zm-294.097-336.967-12.147 110.075-12.147-110.075z"/></g></g></svg>