<svg id="Capa_1" enable-background="new 0 0 512.008 512.008" height="512" viewBox="0 0 512.008 512.008" width="512" xmlns="http://www.w3.org/2000/svg"><g><path d="m444.818 406.625c-.172 1.983-1.649 3.578-3.6 3.969-27.637 5.546-34.404-15.714-63.73-7.998-30.467 8.016-24.347 31.275-54.814 39.291-30.468 8.017-36.588-15.242-67.056-7.225-30.467 8.016-24.348 31.275-54.815 39.291-30.471 8.017-36.591-15.241-67.062-7.224-28.411 7.475-25.012 28.2-49.122 37.467-2.838 1.091-5.927-.88-6.171-3.911-3.772-46.938-28.273-356.218.469-442.539h365.623c26.229 48.828 12.099 212.948.278 348.879z" fill="#f4c3c6"/><path d="m444.54 79.845h-365.623s-3.87 10.117-9.363 27.994c-7.954 75.297-3.737 194.277 1.326 282.64 137.324-132.466 267.122-43.954 385.794-138.157 3.557-63.02 4.292-120.856-1.925-159.619-3.015-5.119-6.4-9.494-10.209-12.858z" fill="#eab1b7"/><path d="m78.917 7.5h365.623v50.247h-365.623z" fill="#dd636e"/><path d="m411.601 7.5h32.939v50.247h-32.939z" fill="#da4a54"/><path d="m78.917 57.747s-64.553 168.709-40.682 346.309c158.175-193.996 306.903-58.161 440.82-193.996 0 0 1.343-120.649-34.514-152.314h-365.624z" fill="#dd636e"/><path d="m444.54 57.747h-32.939c20.533 18.132 28.868 65.442 32.242 102.568 2.867 31.55-14.65 61.496-43.665 74.214-128.28 56.226-233.582 6.636-365.375 136.912.835 10.813 1.966 21.697 3.434 32.615 158.173-193.996 306.901-58.161 440.818-193.996 0 0 1.342-120.648-34.515-152.313z" fill="#da4a54"/><g fill="#e28086"><path d="m115.168 476.359.004.007c10.203-9.183 27.9-14.367 43.902-9.173l.002-.004-15.84-150.697z"/><path d="m280.897 435.109-15.733-149.68-27.852 158.635c10.227-9.053 27.781-14.068 43.585-8.955z"/><path d="m398.363 401.84-13.94-132.618-25.037 142.602c9.823-8.584 25.826-12.891 38.977-9.984z"/></g><path d="m482.689 144.873c-5.429-44.668-15.735-75.012-30.649-90.317v-47.056c0-4.143-3.357-7.5-7.5-7.5h-288.887c-4.143 0-7.5 3.357-7.5 7.5s3.357 7.5 7.5 7.5h281.387v35.246c-16.173 0-335.561 0-350.622 0v-35.246h39.248c4.143 0 7.5-3.357 7.5-7.5s-3.357-7.5-7.5-7.5h-46.748c-4.143 0-7.5 3.357-7.5 7.5v48.901c-4.215 11.504-34.213 96.372-43.313 203.991-.349 4.127 2.714 7.756 6.842 8.105 4.127.348 7.757-2.714 8.105-6.842 8.284-97.96 34.155-176.603 41.128-196.409h46.436c.768 3.455 1.145 8.671-1.405 14.008-1.785 3.737-.203 8.215 3.535 10 1.043.498 2.144.734 3.228.734 2.799 0 5.485-1.575 6.772-4.27 3.598-7.531 3.842-14.817 3.069-20.473h6.75c2.889 5.757 7.578 19.609-.152 39.66-1.49 3.865.436 8.206 4.3 9.696.888.342 1.8.504 2.696.504 3.012 0 5.852-1.826 7-4.804 7.59-19.687 5.562-35.188 2.284-45.057h186.073c-3.278 9.869-5.305 25.37 2.284 45.057 1.148 2.978 3.988 4.804 7 4.804.896 0 1.809-.162 2.696-.504 3.864-1.49 5.79-5.831 4.3-9.696-7.731-20.051-3.041-33.904-.152-39.66h6.749c-.773 5.656-.529 12.941 3.069 20.473 1.287 2.695 3.974 4.27 6.772 4.27 1.084 0 2.185-.236 3.228-.734 3.738-1.785 5.32-6.263 3.535-10-2.559-5.357-2.188-10.55-1.413-14.008h48.698c24.793 25.763 30.06 107.744 30.04 141.695-58.16 57.628-119.319 63.123-184.021 68.936-42.437 3.812-82.587 7.623-124.568 23.758-47.493 18.254-86.202 48.872-119.33 86.432-3.102-30.029-3.96-61.584-2.55-94.056.18-4.138-3.029-7.639-7.168-7.818-4.106-.193-7.64 3.029-7.818 7.168-1.717 39.537-.14 77.789 4.686 113.693.875 6.51 9.114 8.81 13.246 3.74 6.389-7.835 12.76-15.112 19.116-21.887 2.105 37.37 4.725 75.634 7.808 113.979.304 3.776 2.401 7.237 5.61 9.257 1.963 1.235 4.168 1.863 6.396 1.863 1.455 0 2.92-.269 4.332-.811 13.126-5.046 19.4-13.104 24.936-20.214 5.698-7.318 10.619-13.638 23.403-17.002 12.784-3.363 20.178-.284 28.739 3.282 9.673 4.029 20.639 8.596 38.323 3.941 17.686-4.653 24.98-14.023 31.417-22.291 5.696-7.317 10.616-13.637 23.397-17 11.823-3.109 18.615-.933 28.736 3.283 9.672 4.029 20.633 8.596 38.32 3.942 17.686-4.653 24.98-14.024 31.417-22.291 5.696-7.317 10.615-13.637 23.396-17 12.781-3.36 20.175-.282 28.733 3.283 8.924 3.718 19.038 7.933 34.563 4.815 5.194-1.043 9.141-5.431 9.598-10.673 1.367-15.731 2.917-33.562 4.383-51.135.345-4.128-2.722-7.754-6.85-8.098-4.126-.352-7.753 2.723-8.098 6.85-1.393 16.679-2.859 33.601-4.175 48.73-9.779 1.443-16.247-1.251-23.653-4.337-2.724-1.135-5.559-2.306-8.61-3.308l-12.897-122.693c20.591-6.835 39.546-16.27 57.185-28.51-1.25 23.42-3.033 49.802-5.418 80.167-.325 4.13 2.76 7.74 6.889 8.064.2.016.399.023.596.023 3.876 0 7.16-2.983 7.469-6.912 2.835-36.079 4.825-66.582 6.082-93.199 6.575-5.434 12.976-11.277 19.203-17.592 1.363-1.383 2.137-3.24 2.159-5.183.014-1.244.293-31.044-3.865-65.264zm-382.278 336.895c-4.255 5.465-8.012 10.29-14.816 13.793-3.299-41.485-6.05-82.831-8.192-123.016 18.734-17.863 37.323-31.546 55.772-42.111l-24.965 142.182c-3.015 3.011-5.465 6.154-7.799 9.152zm31.422-22.292c-2.323.611-4.462 1.305-6.449 2.066l15.987-91.052 9.171 87.252c-5.362-.517-11.465-.173-18.709 1.734zm90.46-9.777c-5.696 7.317-10.616 13.637-23.397 17-12.785 3.364-20.18.284-28.74-3.282-1.339-.558-2.707-1.124-4.11-1.677l-14.792-140.722c35.448-16.693 70.372-23.111 104.788-26.995l-25.677 146.252c-3.143 3.093-5.668 6.336-8.072 9.424zm31.417-22.291c-2.227.586-4.288 1.247-6.205 1.971l15.793-89.952 9.065 86.244c-5.347-.509-11.434-.162-18.653 1.737zm90.453-9.774c-5.696 7.317-10.615 13.637-23.396 17-12.781 3.362-20.173.284-28.736-3.283-1.356-.565-2.743-1.139-4.165-1.698l-14.444-137.418c5.169-.491 10.327-.955 15.473-1.417 28.44-2.554 57.722-5.19 86.317-12.493l-22.768 129.683c-3.24 3.153-5.824 6.47-8.281 9.626zm31.417-22.291c-2.156.567-4.155 1.206-6.02 1.902l12.997-74.026 7.376 70.173c-4.271-.011-9 .543-14.353 1.951z"/></g></svg>