<svg id="Capa_1" enable-background="new 0 0 512.004 512.004" height="512" viewBox="0 0 512.004 512.004" width="512" xmlns="http://www.w3.org/2000/svg"><g><path d="m454.777 93.928c-12.408 1.394-24.816 42.658-37.225 43.791-110.623 10.102-221.245 9.828-331.868-.822-9.486-.913-18.972-41.903-28.457-42.969v-43.24c0-10.286 8.828-18.343 19.073-17.422 119.801 10.77 239.602 10.77 359.403 0 10.245-.921 19.073 7.136 19.073 17.422v43.24z" fill="#cbe2ff"/><g><path d="m435.703 33.266c-6.435.578-12.869 1.12-19.304 1.636 6.341 3.417 10.877 11.607 10.877 21.306v40.588c9.167-.887 18.333-1.839 27.5-2.869v-43.24c.001-10.285-8.828-18.342-19.073-17.421z" fill="#bed8fb"/></g><path d="m287.063 457.685 3.713 13.092c1.828 6.445 8.932 9.792 15.069 7.104 70.785-30.996 121.332-51.116 188.684-57.673 6.155-.599 10.618-6.142 9.896-12.284-14.673-124.724-29.467-248.163-49.648-313.996-132.517 14.89-265.033 14.89-397.55 0-20.181 65.833-34.975 189.272-49.648 313.996-.723 6.142 3.74 11.685 9.896 12.284 67.352 6.557 117.899 26.677 188.684 57.673 6.137 2.687 13.241-.659 15.069-7.104l3.713-13.092c8.878-31.302 53.243-31.302 62.122 0z" fill="#9dc6fb"/><g><path d="m504.425 407.924c-14.673-124.724-29.467-248.163-49.648-313.996-8.888.999-17.776 1.925-26.665 2.79 19.524 66.374 32.117 203.73 46.426 325.906 6.519-.94 13.166-1.751 19.991-2.416 6.156-.6 10.618-6.142 9.896-12.284z" fill="#80b4fb"/></g><path d="m154.314 102.166c-32.363-1.86-64.725-4.602-97.088-8.238-8.343 27.215-15.764 64.281-22.638 107.207z" fill="#61a2f9"/><path d="m454.777 93.928c-32.363 3.636-64.725 6.378-97.088 8.238l119.725 98.969c-6.873-42.926-14.294-79.992-22.637-107.207z" fill="#61a2f9"/><path d="m444.092 173.59 33.322 27.545c-6.874-42.926-14.295-79.992-22.638-107.207-8.888.999-17.777 1.923-26.665 2.787 5.877 19.976 11.125 46.386 15.981 76.875z" fill="#5490f9"/><path d="m104.005 357.785c-9.006-4.452-13.327-14.882-10.106-24.398 5.323-15.729-9.688-30.739-25.416-25.416-9.516 3.221-19.947-1.1-24.398-10.106-4.335-8.769-13.482-12.367-21.773-10.804-5.05 38.805-9.898 79.764-14.733 120.863-.723 6.142 3.74 11.685 9.896 12.284 26.869 2.616 51.062 7.396 74.933 14.158 2.636-4.642 3.472-10.39 1.492-16.239-3.22-9.516 1.1-19.947 10.106-24.398 14.885-7.358 14.885-28.586-.001-35.944z" fill="#b3e59f"/><path d="m447.704 415.531c4.272-12.624-7.776-24.672-20.4-20.4-7.638 2.585-16.01-.883-19.583-8.112-5.906-11.948-22.944-11.948-28.85 0-3.573 7.229-11.945 10.697-19.583 8.112-12.624-4.272-24.673 7.776-20.4 20.4 2.585 7.638-.883 16.01-8.112 19.583-11.948 5.906-11.948 22.944 0 28.85 1.063.526 2.034 1.165 2.927 1.881 41.101-17.438 76.316-30.511 114.577-38.57-1.614-3.595-1.922-7.766-.576-11.744z" fill="#b3e59f"/><g><path d="m259.623 80.776c4.143 0 7.5-3.357 7.5-7.5s-3.357-7.5-7.5-7.5h-7.243c-4.143 0-7.5 3.357-7.5 7.5s3.357 7.5 7.5 7.5z"/><path d="m511.873 407.047c-2.944-25.034-6.084-51.622-9.235-77.284-.505-4.111-4.253-7.038-8.358-6.53-4.111.505-7.035 4.247-6.53 8.358 3.148 25.627 6.284 52.193 9.228 77.208.151 1.288-.413 2.208-.762 2.642-.349.433-1.126 1.177-2.412 1.302-13.64 1.328-26.577 3.205-39.107 5.586.037-.131.069-.264.113-.394 2.897-8.562.727-17.852-5.665-24.243s-15.685-8.562-24.244-5.665c-4.065 1.376-8.556-.488-10.455-4.331-4.006-8.104-12.109-13.137-21.148-13.137-9.04 0-17.144 5.033-21.149 13.138-1.898 3.844-6.393 5.708-10.455 4.33-8.562-2.895-17.852-.728-24.245 5.665-6.391 6.393-8.561 15.682-5.663 24.243 1.375 4.062-.487 8.557-4.331 10.456-8.104 4.006-13.137 12.109-13.137 21.148 0 5.332 1.762 10.329 4.862 14.361-5.344 2.308-10.776 4.673-16.339 7.109-1.292.564-2.4.217-2.946-.042-.546-.258-1.518-.89-1.899-2.238l-3.714-13.092c-4.985-17.574-20.01-28.93-38.277-28.93s-33.291 11.355-38.275 28.93l-3.714 13.092c-.383 1.349-1.354 1.98-1.899 2.238-.546.258-1.656.607-2.946.042-39.522-17.306-73.032-31.422-107.086-41.669.791-4.469.448-9.111-1.077-13.617-2.007-5.932.713-12.497 6.325-15.271 9.463-4.677 15.341-14.14 15.341-24.695s-5.878-20.019-15.34-24.695c-5.613-2.774-8.333-9.34-6.326-15.271 3.31-9.777.919-20.475-6.239-27.915-2.871-2.985-7.618-3.078-10.604-.206-2.985 2.872-3.077 7.619-.206 10.604 3.309 3.439 4.37 8.189 2.841 12.708-4.405 13.021 1.564 27.435 13.888 33.526 4.375 2.162 6.987 6.367 6.987 11.248s-2.612 9.086-6.988 11.248c-12.322 6.092-18.292 20.505-13.887 33.526.576 1.7.754 3.268.689 4.679-21.925-5.83-44.449-10.051-69.284-12.469-1.285-.125-2.062-.869-2.411-1.302-.35-.434-.913-1.354-.762-2.642 4.397-37.375 8.985-76.364 13.873-114.265 3.324.735 6.561 2.806 8.462 6.654 3.411 6.901 9.623 12.093 17.043 14.242.697.202 1.399.298 2.091.298 3.253 0 6.249-2.134 7.2-5.415 1.152-3.979-1.139-8.139-5.117-9.291-3.388-.98-6.219-3.343-7.77-6.48-4.024-8.14-11.466-13.495-19.96-14.937 3.414-25.813 6.976-50.941 10.723-74.511l115.283-95.298c4 .222 8.001.432 12.003.626-2.011 3.722-3.67 8.199-4.644 13.781-2.661 15.256 2.232 24.524 6.165 31.972 3.595 6.807 6.434 12.184 4.652 22.391-1.78 10.206-6.272 14.304-11.959 19.492-6.223 5.676-13.966 12.739-16.628 27.995-.712 4.08 2.02 7.966 6.1 8.678.437.076.87.112 1.298.112 3.577 0 6.744-2.567 7.38-6.212 1.78-10.206 6.272-14.304 11.959-19.492 6.223-5.676 13.966-12.739 16.628-27.995 2.661-15.256-2.232-24.525-6.165-31.973-3.595-6.807-6.434-12.184-4.652-22.39 1.323-7.584 4.145-11.794 7.841-15.585 20.546.793 41.106 1.234 61.669 1.32v40.161c0 4.143 3.357 7.5 7.5 7.5s7.5-3.357 7.5-7.5v-40.161c20.563-.086 41.124-.526 61.67-1.32 3.696 3.792 6.518 8.001 7.841 15.585 1.781 10.206-1.058 15.583-4.652 22.39-3.933 7.447-8.826 16.717-6.165 31.973 2.662 15.256 10.405 22.319 16.628 27.995 5.687 5.188 10.179 9.286 11.959 19.492.636 3.645 3.803 6.212 7.38 6.212.428 0 .862-.036 1.298-.112 4.08-.712 6.812-4.598 6.1-8.678-2.662-15.256-10.405-22.319-16.628-27.995-5.687-5.188-10.179-9.286-11.959-19.492-1.781-10.207 1.058-15.584 4.652-22.391 3.933-7.447 8.826-16.716 6.165-31.972-.974-5.583-2.632-10.06-4.644-13.781 4.002-.195 8.003-.405 12.003-.626l115.31 95.32c5.158 32.454 9.672 66.104 13.548 96.523.482 3.787 3.71 6.553 7.43 6.553.316 0 .636-.021.958-.062 4.108-.523 7.016-4.278 6.491-8.388-7.224-56.694-19.937-151.834-36.608-206.908v-42.143c0-6.999-2.962-13.721-8.127-18.442-5.171-4.727-12.13-7.082-19.118-6.449-75.556 6.792-152.212 9.3-227.85 7.441-.062-.001-.125-.002-.188-.002-4.057 0-7.394 3.238-7.494 7.316-.102 4.141 3.174 7.58 7.314 7.682 53.077 1.299 106.656.464 160.012-2.471l12.175 47.51c-16.025 1.112-32.066 2.008-48.118 2.685-5.554-5.068-9.93-9.199-11.681-19.235-.712-4.08-4.597-6.812-8.678-6.1-4.08.712-6.812 4.597-6.1 8.678 1.31 7.507 3.853 13.023 6.837 17.374-36.828 1.145-73.695 1.146-110.523 0 2.984-4.35 5.527-9.867 6.837-17.374.712-4.08-2.019-7.966-6.1-8.678-4.09-.713-7.966 2.02-8.678 6.1-1.751 10.036-6.127 14.166-11.682 19.235-16.052-.677-32.093-1.572-48.118-2.685l12.174-47.503c10.537.583 21.062 1.092 31.541 1.507 4.149.167 7.627-3.06 7.79-7.198.164-4.139-3.059-7.626-7.198-7.79-33.314-1.317-67.072-3.501-100.335-6.492-6.983-.633-13.948 1.723-19.118 6.449-5.165 4.722-8.127 11.443-8.127 18.442v42.135c-22.793 75.283-40.416 236.153-49.601 314.224-.588 4.99.826 9.894 3.979 13.807 3.152 3.91 7.641 6.332 12.638 6.818 69.686 6.784 122.502 29.097 186.402 57.078 2.374 1.04 4.909 1.559 7.442 1.559 2.708 0 5.414-.593 7.92-1.775 4.849-2.287 8.468-6.555 9.93-11.71l3.715-13.092c3.769-13.289 14.789-18.023 23.845-18.023 9.057 0 20.077 4.734 23.847 18.023l3.714 13.092c1.462 5.155 5.081 9.423 9.929 11.71 4.852 2.288 10.45 2.368 15.364.217 64.885-28.413 117.45-50.366 186.4-57.078 4.998-.486 9.486-2.908 12.639-6.818 3.153-3.914 4.567-8.818 3.979-13.808zm-466.573-224.496c5.372-31.168 11.121-58.78 17.342-80.49 24.052 2.616 48.163 4.743 72.311 6.379zm331.751-74.111c24.147-1.636 48.257-3.763 72.307-6.379 6.381 22.263 12.168 50.368 17.368 80.507zm5.031-63.576c18.141-1.135 36.249-2.506 54.293-4.128 2.832-.249 5.553.661 7.653 2.581 2.095 1.914 3.248 4.532 3.248 7.371v36.522c-17.663 1.917-35.358 3.557-53.077 4.94zm-317.355 5.824c0-2.839 1.153-5.457 3.248-7.371 2.099-1.92 4.819-2.831 7.653-2.581 18.002 1.619 36.148 2.995 54.291 4.135l-12.117 47.28c-17.718-1.383-35.413-3.023-53.076-4.94v-36.523zm269.372 406.553c-2.995-1.48-4.783-4.359-4.783-7.701s1.788-6.221 4.783-7.701c10.554-5.217 15.667-17.56 11.894-28.713-1.072-3.164-.301-6.464 2.062-8.827 2.363-2.362 5.662-3.135 8.829-2.062 11.154 3.771 23.496-1.339 28.711-11.893 1.48-2.996 4.36-4.784 7.702-4.784 3.341 0 6.221 1.788 7.701 4.783 5.217 10.554 17.558 15.665 28.711 11.894 3.167-1.073 6.466-.301 8.829 2.062s3.134 5.663 2.062 8.828c-.925 2.733-1.321 5.576-1.217 8.402-35.21 8.052-67.965 20.239-104.99 35.867-.099-.05-.195-.107-.294-.155z"/></g></g></svg>