<svg id="Capa_1" enable-background="new 0 0 511.99 511.99" height="512" viewBox="0 0 511.99 511.99" width="512" xmlns="http://www.w3.org/2000/svg"><g><path d="m478.251 141.2h-444.511v-39.883c0-8.18 6.632-14.812 14.812-14.812h414.887c8.18 0 14.812 6.632 14.812 14.812z" fill="#cbe2ff"/><path d="m463.439 86.505h-31c8.18 0 14.812 6.632 14.812 14.812v39.883h31v-39.883c0-8.18-6.632-14.812-14.812-14.812z" fill="#bed8fb"/><path d="m478.251 141.2h-222.256-222.255c-23.274 55.398-7.909 150.901-26.051 246.904-1.407 7.447 5.059 13.962 12.512 12.584 69.545-12.852 139.047-7.944 208.508 14.665 4.157 1.353 8.637-.837 10.137-4.943l9.509-26.032c2.603-7.125 12.679-7.125 15.282 0l9.509 26.032c1.5 4.106 5.98 6.296 10.137 4.943 69.46-22.609 138.963-27.517 208.508-14.665 7.453 1.377 13.919-5.137 12.512-12.584-18.143-96.003-2.779-191.506-26.052-246.904z" fill="#9dc6fb"/><g><path d="m504.301 388.104c-18.142-96.004-2.777-191.506-26.051-246.904h-31c23.274 55.398 7.909 150.9 26.051 246.904.67 3.545-.457 6.867-2.613 9.239 7.033.937 14.067 2.045 21.101 3.345 7.453 1.378 13.92-5.136 12.512-12.584z" fill="#80b4fb"/></g><g fill="#61a2f9"><path d="m287.612 285.66h-31.617v-144.46h51.698v124.379c0 11.091-8.991 20.081-20.081 20.081z"/><path d="m103.351 188.418v-47.218h-69.611c-10.733 25.547-13.245 59.634-14.62 98.354h33.095c28.242 0 51.136-22.894 51.136-51.136z"/><path d="m478.251 141.2h-69.612v47.218c0 28.242 22.895 51.137 51.137 51.137h33.095c-1.375-38.721-3.888-72.808-14.62-98.355z"/></g><path d="m492.87 239.555c-1.374-38.721-3.887-72.808-14.62-98.354h-31c10.734 25.548 13.248 59.631 14.622 98.354z" fill="#5490f9"/><path d="m61.356 192.614c-7.421 0-13.436 6.016-13.436 13.436v33.504h4.295c26.828 0 48.815-20.664 50.951-46.94z" fill="#5490f9"/><g><path d="m289.344 167.522c0-4.143-3.357-7.5-7.5-7.5s-7.5 3.357-7.5 7.5v5.584c0 4.143 3.357 7.5 7.5 7.5s7.5-3.357 7.5-7.5z"/><path d="m289.344 207.847c0-4.143-3.357-7.5-7.5-7.5s-7.5 3.357-7.5 7.5v5.583c0 4.143 3.357 7.5 7.5 7.5s7.5-3.357 7.5-7.5z"/><path d="m281.844 240.671c-4.143 0-7.5 3.357-7.5 7.5v5.584c0 4.143 3.357 7.5 7.5 7.5s7.5-3.357 7.5-7.5v-5.584c0-4.143-3.357-7.5-7.5-7.5z"/><path d="m270.207 113.853c0-4.143-3.357-7.5-7.5-7.5h-13.423c-4.143 0-7.5 3.357-7.5 7.5s3.357 7.5 7.5 7.5h13.423c4.142 0 7.5-3.358 7.5-7.5z"/><path d="m511.67 386.712c-1.909-10.104-3.493-20.434-4.844-31.576-.498-4.111-4.226-7.047-8.348-6.543-4.112.498-7.041 4.235-6.543 8.348 1.371 11.314 3.052 22.269 4.996 32.557.281 1.488-.436 2.472-.887 2.926-.449.449-1.428 1.162-2.893.891-70.71-13.066-142.15-7.89-212.193 14.908-.31.1-.655-.07-.77-.384l-9.509-26.032c-1.351-3.696-3.93-6.608-7.186-8.375v-80.272h24.116c15.208 0 27.581-12.373 27.581-27.581v-39.756c0-4.143-3.357-7.5-7.5-7.5s-7.5 3.357-7.5 7.5v39.756c0 6.938-5.644 12.581-12.581 12.581h-24.116v-129.46h36.697v47.136c0 4.143 3.357 7.5 7.5 7.5s7.5-3.357 7.5-7.5v-47.136h85.946v39.718c0 32.332 26.305 58.637 58.637 58.637h25.846c.145 4.536.282 9.135.42 13.802.627 21.177 1.275 43.075 2.964 65.752.308 4.13 3.892 7.215 8.036 6.923 4.131-.308 7.23-3.905 6.923-8.036-1.664-22.343-2.308-44.07-2.93-65.083-1.419-47.946-2.658-89.445-15.285-120.667v-38.429c0-12.303-10.009-22.312-22.312-22.312h-347.217c-4.143 0-7.5 3.357-7.5 7.5s3.357 7.5 7.5 7.5h33.426l-5.839 39.695h-102.565v-32.384c0-4.031 3.28-7.312 7.312-7.312h37.68c4.143 0 7.5-3.357 7.5-7.5s-3.357-7.5-7.5-7.5h-37.68c-12.303 0-22.312 10.009-22.312 22.312v38.426c-12.627 31.221-13.865 72.719-15.284 120.665-1.152 38.919-2.459 83.03-10.636 126.305-1.122 5.936.747 12.028 4.998 16.296 4.246 4.263 10.317 6.153 16.246 5.056 1.558-.288 3.117-.557 4.676-.826v8.516c0 4.143 3.357 7.5 7.5 7.5s7.5-3.357 7.5-7.5v-10.832c6.241-.843 12.489-1.543 18.742-2.094v10.289c0 4.143 3.357 7.5 7.5 7.5s7.5-3.357 7.5-7.5v-11.319c6.244-.317 12.492-.49 18.743-.517v10.231c0 4.143 3.357 7.5 7.5 7.5s7.5-3.357 7.5-7.5v-10.016c6.247.205 12.494.555 18.742 1.049v11.088c0 4.143 3.357 7.5 7.5 7.5s7.5-3.357 7.5-7.5v-9.632c6.249.726 12.497 1.598 18.742 2.613v11.992c0 4.143 3.357 7.5 7.5 7.5s7.5-3.357 7.5-7.5v-9.278c6.252 1.248 12.5 2.638 18.742 4.176v11.981c0 4.143 3.357 7.5 7.5 7.5s7.5-3.357 7.5-7.5v-7.996c5.483 1.557 10.962 3.214 16.435 4.995 8.037 2.62 16.601-1.556 19.504-9.5l9.509-26.032c.074-.204.152-.416.596-.416s.522.212.597.416l9.509 26.033c2.317 6.341 8.243 10.279 14.627 10.279 1.613 0 3.256-.252 4.876-.779 4.859-1.582 9.722-3.064 14.59-4.469v7.469c0 4.143 3.357 7.5 7.5 7.5s7.5-3.357 7.5-7.5v-11.515c6.243-1.567 12.491-2.988 18.743-4.265v8.9c0 4.143 3.357 7.5 7.5 7.5s7.5-3.357 7.5-7.5v-11.692c6.245-1.043 12.493-1.938 18.742-2.692v9.412c0 4.143 3.357 7.5 7.5 7.5s7.5-3.357 7.5-7.5v-10.944c6.248-.522 12.495-.903 18.742-1.137v9.96c0 4.143 3.357 7.5 7.5 7.5s7.5-3.357 7.5-7.5v-10.233c6.25-.002 12.498.141 18.742.429v11.409c0 4.143 3.357 7.5 7.5 7.5s7.5-3.357 7.5-7.5v-10.438c6.253.522 12.501 1.192 18.743 2.006v11.068c0 4.143 3.357 7.5 7.5 7.5s7.5-3.357 7.5-7.5v-8.839c2.174.366 4.348.749 6.521 1.15 5.927 1.095 12.001-.795 16.246-5.056 4.251-4.268 6.119-10.361 4.997-16.296zm-51.894-154.657c-24.062 0-43.637-19.575-43.637-43.637v-39.718h57c8.117 22.169 10.613 50.694 11.946 83.354h-25.309zm10.974-130.739v32.384h-102.565l-5.839-39.695h101.093c4.031 0 7.311 3.28 7.311 7.311zm-305.945-7.311h182.38l5.839 39.695h-194.058zm-68.954 54.695v36.414h-34.495c-11.544 0-20.937 9.392-20.937 20.936v26.005h-13.513c1.333-32.66 3.828-61.185 11.945-83.354h57zm-1.605 51.414c-4.85 17.405-20.236 30.453-38.827 31.81v-25.874c0-3.272 2.663-5.936 5.937-5.936zm147.063 181.692-9.509 26.031c-.113.313-.455.488-.771.385-73.035-23.77-144.518-27.412-212.192-14.908-1.471.272-2.444-.441-2.892-.892-.452-.453-1.168-1.437-.888-2.925 8.397-44.435 9.722-89.174 10.891-128.646.138-4.665.275-9.262.42-13.796h25.845c32.637 0 58.637-26.665 58.637-58.637v-39.718h137.645v224.73c-3.255 1.767-5.835 4.679-7.186 8.376z"/></g></g></svg>