<svg id="Capa_1" enable-background="new 0 0 512 512" height="512" viewBox="0 0 512 512" width="512" xmlns="http://www.w3.org/2000/svg"><g><path d="m256 23.841h-58.29v31.343h58.29 58.29v-31.343z" fill="#86a0af"/><circle cx="191.474" cy="39.459" fill="#eab14d" r="31.959"/><circle cx="140.498" cy="70.342" fill="#e49542" r="31.959"/><circle cx="94.57" cy="107.663" fill="#eab14d" r="31.959"/><circle cx="62.611" cy="152.18" fill="#e49542" r="31.959"/><circle cx="54.889" cy="212.962" fill="#eab14d" r="36.908"/><circle cx="67.092" cy="273.032" fill="#e49542" r="36.908"/><circle cx="108.539" cy="323.21" fill="#eab14d" r="36.908"/><circle cx="166.58" cy="353.726" fill="#e49542" r="36.908"/><circle cx="320.525" cy="39.459" fill="#eab14d" r="31.959"/><circle cx="371.502" cy="70.342" fill="#e49542" r="31.959"/><circle cx="417.43" cy="107.663" fill="#eab14d" r="31.959"/><circle cx="449.388" cy="152.18" fill="#e49542" r="31.959"/><circle cx="457.111" cy="212.962" fill="#eab14d" r="36.908"/><circle cx="444.908" cy="273.032" fill="#e49542" r="36.908"/><circle cx="403.461" cy="323.21" fill="#eab14d" r="36.908"/><circle cx="345.419" cy="353.726" fill="#e49542" r="36.908"/><path d="m256 421.925s11.071-14.572 32.949-14.572c19.506 0 32.949 14.96 32.949 32.382 0 20.166-18.325 44.026-65.899 64.764-47.574-20.738-65.899-44.598-65.899-64.764 0-17.422 13.443-32.382 32.949-32.382 21.88 0 32.951 14.572 32.951 14.572z" fill="#dd636e"/><path d="m288.949 407.353c-1.11 0-2.185.047-3.24.118 7.931 5.992 12.668 15.467 12.668 25.81 0 19.396-16.967 42.208-60.591 62.374 5.528 2.996 11.576 5.952 18.213 8.845 47.574-20.738 65.899-44.598 65.899-64.764.001-17.423-13.443-32.383-32.949-32.383z" fill="#da4a54"/><path d="m501.519 212.963c0-15.652-8.148-29.429-20.417-37.34 4.955-6.725 7.745-14.949 7.745-23.443 0-19.339-13.988-35.461-32.375-38.81.272-1.878.416-3.782.416-5.707 0-21.758-17.701-39.459-39.458-39.459-2.218 0-4.39.193-6.509.546-.839-21.022-18.194-37.868-39.418-37.868-4.218 0-8.28.672-12.093 1.903-3.182-18.588-19.401-32.785-38.884-32.785-13.128 0-24.771 6.45-31.948 16.341h-65.155c-7.178-9.891-18.821-16.341-31.949-16.341-19.483 0-35.702 14.197-38.883 32.786-3.813-1.231-7.875-1.903-12.093-1.903-21.224 0-38.58 16.846-39.418 37.868-2.119-.353-4.292-.546-6.509-.546-21.757 0-39.458 17.701-39.458 39.459 0 1.925.144 3.829.416 5.707-18.387 3.348-32.375 19.471-32.375 38.81 0 8.495 2.79 16.719 7.745 23.443-12.269 7.911-20.417 21.688-20.417 37.34 0 14.789 7.239 28.271 19.031 36.453-4.318 6.846-6.828 14.942-6.828 23.617 0 23.625 18.547 42.995 41.845 44.328-.253 1.916-.397 3.866-.397 5.851 0 24.486 19.921 44.407 44.407 44.407 5.201 0 10.287-.898 15.083-2.634 4.997 19.052 22.361 33.149 42.958 33.149 20.362 0 37.555-13.78 42.773-32.5 13.011 6.637 26.074 10.493 39.146 11.559v29.162c-6.297-3.511-14.782-6.5-25.449-6.5-22.682 0-40.449 17.519-40.449 39.882 0 12.869 6.196 26.042 17.919 38.095 2.886 2.969 7.634 3.036 10.605.146 2.969-2.888 3.035-7.636.146-10.605-8.943-9.195-13.671-18.752-13.671-27.636 0-14.185 10.94-24.882 25.449-24.882 17.64 0 26.641 11.183 26.978 11.609 1.418 1.867 3.627 2.963 5.972 2.963s4.554-1.096 5.972-2.963c.089-.116 9.314-11.609 26.979-11.609 14.509 0 25.449 10.697 25.449 24.882 0 19.269-21.233 39.789-58.399 56.561-7.893-3.562-15.152-7.327-21.618-11.217-3.55-2.134-8.157-.988-10.293 2.561-2.135 3.55-.988 8.158 2.561 10.293 7.834 4.712 16.701 9.235 26.354 13.442.956.417 1.977.625 2.997.625s2.041-.208 2.997-.625c26.293-11.461 70.402-36.01 70.402-71.64 0-22.363-17.768-39.882-40.449-39.882-10.667 0-19.153 2.99-25.45 6.5v-29.162c13.072-1.065 26.135-4.921 39.147-11.559 5.218 18.721 22.411 32.501 42.773 32.501 20.597 0 37.961-14.097 42.958-33.149 4.797 1.736 9.882 2.634 15.083 2.634 5.145 0 10.196-.879 15.017-2.611 3.897-1.401 5.922-5.696 4.521-9.595-1.4-3.898-5.701-5.922-9.595-4.521-3.188 1.146-6.532 1.727-9.942 1.727-4.892 0-9.622-1.216-13.874-3.503-1.205-11.626-6.921-21.927-15.354-29.138 1.615-14.7 14.104-26.174 29.228-26.174 16.215 0 29.407 13.192 29.407 29.408 0 3.852-.738 7.604-2.195 11.154-1.572 3.832.259 8.214 4.091 9.786.933.383 1.896.563 2.845.563 2.952 0 5.751-1.755 6.941-4.654 2.202-5.366 3.318-11.035 3.318-16.85 0-1.984-.144-3.935-.397-5.851 23.297-1.333 41.845-20.702 41.845-44.328 0-8.675-2.51-16.771-6.828-23.617 11.789-8.184 19.028-21.666 19.028-36.454zm-29.197 25.172c-7.556-5.948-17.074-9.511-27.414-9.511-4.025 0-7.923.548-11.634 1.557-3.615-4.983-5.571-10.956-5.571-17.218 0-16.216 13.192-29.408 29.407-29.408 16.216 0 29.408 13.192 29.408 29.408.001 10.442-5.449 19.903-14.196 25.172zm1.525-85.955c0 6.653-2.621 12.827-7.276 17.4-3.051-.665-6.213-1.025-9.46-1.025-7.19 0-13.981 1.729-19.995 4.776-7.496-4.334-12.186-12.308-12.186-21.151 0-13.631 11.143-24.459 24.458-24.459 13.487 0 24.459 10.972 24.459 24.459zm-31.959-44.517c0 2.02-.247 4.001-.728 5.927-10.899 2.322-20.144 9.155-25.684 18.447-12.576-1-22.505-11.546-22.505-24.374 0-13.486 10.973-24.459 24.459-24.459s24.458 10.973 24.458 24.459zm-45.927-37.321c0 1.521-.157 3.031-.437 4.52-6.549 4.388-11.709 10.684-14.696 18.085-2.943 1.212-6.119 1.854-9.326 1.854-13.486 0-24.459-10.973-24.459-24.459s10.973-24.459 24.459-24.459 24.459 10.972 24.459 24.459zm-75.435-55.342c14.122 0 25.439 12.03 24.379 26.222-5.51 5.038-9.589 11.615-11.552 19.043-3.849 2.388-8.23 3.653-12.827 3.653-13.486 0-24.459-10.973-24.459-24.459s10.973-24.459 24.459-24.459zm-38.615 16.341c-.55 2.621-.844 5.336-.844 8.118 0 2.82.303 5.57.868 8.225h-51.871c.565-2.654.868-5.404.868-8.225 0-2.782-.293-5.497-.844-8.118zm-90.437-16.341c13.486 0 24.459 10.973 24.459 24.459s-10.973 24.459-24.459 24.459c-4.596 0-8.978-1.265-12.827-3.653-1.964-7.428-6.042-14.005-11.552-19.043-1.059-14.187 10.251-26.222 24.379-26.222zm-75.435 55.342c0-13.486 10.973-24.459 24.459-24.459s24.459 10.973 24.459 24.459-10.973 24.459-24.459 24.459c-3.206 0-6.383-.641-9.326-1.854-2.987-7.401-8.148-13.698-14.697-18.086-.28-1.487-.436-2.997-.436-4.519zm-21.469 12.862c13.486 0 24.459 10.973 24.459 24.459 0 12.828-9.93 23.374-22.505 24.374-5.54-9.292-14.785-16.125-25.684-18.447-.481-1.926-.728-3.907-.728-5.927 0-13.486 10.971-24.459 24.458-24.459zm-56.417 68.976c0-14.265 12.236-25.565 26.474-24.369 12.546 1.029 22.443 11.562 22.443 24.369 0 8.838-4.685 16.808-12.171 21.143-6.101-3.081-12.919-4.768-20.009-4.768-3.247 0-6.41.36-9.46 1.025-4.656-4.573-7.277-10.747-7.277-17.4zm-.469 120.852c0-16.216 13.192-29.408 29.408-29.408 16.215 0 29.407 13.192 29.407 29.408 0 2.638-.355 5.228-1.041 7.739-11.269 3.48-20.632 11.336-26.105 21.573-17.239 1.318-31.669-12.363-31.669-29.312zm41.447 50.179c0-16.216 13.192-29.408 29.407-29.408 15.122 0 27.612 11.475 29.228 26.174-8.434 7.211-14.149 17.512-15.354 29.138-4.252 2.287-8.981 3.503-13.874 3.503-16.214 0-29.407-13.192-29.407-29.407zm87.45 59.923c-16.216 0-29.408-13.192-29.408-29.407 0-16.216 13.192-29.408 29.408-29.408 16.215 0 29.407 13.192 29.407 29.408 0 16.214-13.193 29.407-29.407 29.407zm178.838 0c-16.215 0-29.407-13.192-29.407-29.407 0-16.216 13.192-29.408 29.407-29.408 16.216 0 29.408 13.192 29.408 29.408.001 16.214-13.192 29.407-29.408 29.407zm15.082-71.175c-4.711-1.706-9.789-2.641-15.082-2.641-23.006 0-41.979 17.587-44.189 40.022-30.145 17.431-59.832 17.71-90.461 0-2.21-22.435-21.183-40.023-44.189-40.023-5.293 0-10.371.935-15.082 2.641-4.786-18.258-20.93-31.961-40.393-33.077.255-1.93.394-3.881.394-5.85 0-15.067-7.549-28.397-19.056-36.43 2.326-3.688 4.123-7.696 5.274-11.905 1.093-3.996-1.261-8.12-5.256-9.213-3.998-1.09-8.12 1.26-9.213 5.256-.926 3.387-2.482 6.581-4.547 9.434-3.703-1.004-7.593-1.55-11.609-1.55-10.34 0-19.858 3.562-27.414 9.511-8.746-5.269-14.197-14.729-14.197-25.172 0-16.216 13.192-29.408 29.408-29.408 5.601 0 10.953 1.576 15.539 4.437.073.05.149.093.223.14 3.545 2.256 6.622 5.283 8.984 8.956 2.241 3.485 6.88 4.491 10.365 2.25 3.483-2.24 4.491-6.881 2.25-10.365-1.421-2.209-3.024-4.253-4.765-6.141 9.099-7.355 14.584-18.496 14.584-30.651 0-1.938-.147-3.842-.418-5.707 17.885-3.256 31.599-18.599 32.337-37.232 2.147.359 4.323.56 6.509.56 19.478 0 35.694-14.189 38.881-32.772 3.864 1.244 7.926 1.889 12.096 1.889 13.081 0 24.689-6.403 31.873-16.234h24.673c-1.261 8.084-5.574 20.885-20.046 26.649-3.848 1.533-5.725 5.895-4.192 9.743 1.17 2.938 3.989 4.727 6.97 4.727.924 0 1.863-.172 2.773-.534 11.081-4.414 18.077-11.5 22.499-18.908 4.421 7.409 11.417 14.494 22.498 18.908.91.362 1.85.534 2.773.534 2.98 0 5.8-1.789 6.97-4.727 1.532-3.849-.345-8.21-4.192-9.743-14.471-5.764-18.784-18.566-20.045-26.649h24.625c7.183 9.831 18.792 16.234 31.873 16.234 4.17 0 8.232-.646 12.096-1.889 3.187 18.583 19.403 32.772 38.881 32.772 2.186 0 4.362-.2 6.509-.559.738 18.633 14.452 33.975 32.337 37.232-.271 1.864-.418 3.768-.418 5.707 0 12.158 5.489 23.302 14.593 30.657-7.329 7.923-11.819 18.508-11.819 30.126 0 8.496 2.389 16.634 6.829 23.657-11.494 8.035-19.032 21.356-19.032 36.413 0 1.97.139 3.92.394 5.85-19.465 1.114-35.609 14.818-40.395 33.075zm82.145-9.615c-5.473-10.237-14.836-18.092-26.105-21.573-.686-2.51-1.041-5.1-1.041-7.739 0-16.216 13.192-29.408 29.407-29.408 16.216 0 29.408 13.192 29.408 29.408.001 16.954-14.434 30.63-31.669 29.312z"/></g></svg>