<svg id="Capa_1" enable-background="new 0 0 512.012 512.012" height="512" viewBox="0 0 512.012 512.012" width="512" xmlns="http://www.w3.org/2000/svg"><g><path d="m117.374 311.472s23.033-53.609 0-129.088l26.484-14.709s36.814 43.786 13.949 155.15l-28.631 4.703z" fill="#dd636e"/><path d="m117.373 182.383 2.064-13.235c3.116-19.974 16.066-37.133 34.554-45.31 28.825-12.748 59.172-21.95 90.905-27.919 2.771-.521 5.383 1.487 5.625 4.297l2.001 23.264c.208 2.415-1.426 4.585-3.796 5.089-42.589 9.067-86.475 27.762-131.353 53.814z" fill="#dd636e"/><path d="m143.858 167.674-26.484 14.709c1.761 5.771 3.25 11.413 4.503 16.914 10.351-5.645 20.645-10.871 30.881-15.669-4.689-10.937-8.9-15.954-8.9-15.954z" fill="#da4a54"/><path d="m414.454 296.242h-15.618c-16.253 0-31.566 7.622-41.365 20.589l-57.115 73.527 25.393 24.946 63.159-29.013z" fill="#da4a54"/><path d="m122.602 415.618h-91.384c-6.598 0-12.044-5.069-12.621-11.642-1.792-20.448-11.548-41.05-11.084-62.621h127.755v61.596c.001 6.996-5.671 12.667-12.666 12.667z" fill="#86a0af"/><path d="m114.373 341.354v61.596c0 6.996-5.671 12.667-12.667 12.667h20.895c6.996 0 12.667-5.671 12.667-12.667v-61.596z" fill="#738b95"/><path d="m7.514 341.354h111.318c10.808 0 21.465 2.532 31.117 7.394l86.965 43.804c30.834 15.531 64.879 23.621 99.404 23.621h168.194c0-16.504-13.379-29.883-29.883-29.883h-138.311c-34.525 0-68.57-8.09-99.404-23.621l-85.663-43.148c-10.508-5.293-22.111-8.05-33.877-8.05h-91.511c-10.134 0-18.349 8.215-18.349 18.349v11.534z" fill="#eab14d"/><path d="m336.318 416.174 52.513-109.469c3.067-6.394 9.531-10.462 16.623-10.462h32.868c11.026 0 19.586 9.613 18.313 20.565l-11.548 99.367h-108.769z" fill="#dd636e"/><path d="m438.322 296.242h-21.662c11.026 0 19.586 9.613 18.313 20.565l-11.548 99.367h21.662l11.548-99.367c1.273-10.952-7.287-20.565-18.313-20.565z" fill="#da4a54"/><path d="m474.629 378.791h-17.646l2.508-21.576c.478-4.115-2.47-7.838-6.584-8.316-4.111-.472-7.837 2.47-8.316 6.584l-6.182 53.191h-90.174l47.358-98.725c1.81-3.771 5.681-6.207 9.861-6.207h32.868c3.164 0 6.064 1.301 8.168 3.663s3.061 5.395 2.695 8.536l-1.11 9.554c-.478 4.115 2.47 7.838 6.584 8.316 4.117.481 7.839-2.469 8.316-6.584l1.11-9.554c.854-7.344-1.477-14.722-6.394-20.243-4.916-5.521-11.977-8.688-19.37-8.688h-32.868c-1.448 0-5.802 0-6.618 0-18.496 0-36.197 8.811-47.288 23.488l-49.514 63.743c-21.438-3.503-42.357-10.235-61.746-20.001l-74.016-37.281c16.304-85.139-1.876-130.971-11.511-148.024 11.341-5.678 22.439-10.746 33.332-15.212.988 3.177 3.91 5.283 7.133 5.283.603 0 1.215-.073 1.825-.226 4.019-1.005 6.461-5.077 5.457-9.096l-.358-1.431c16.439-6.059 32.439-10.737 48.139-14.08 6.062-1.291 10.235-6.907 9.707-13.066l-2.002-23.263c-.297-3.456-2.052-6.642-4.814-8.74-2.753-2.09-6.275-2.928-9.668-2.286-3.126.588-6.419 1.248-10.068 2.02-4.053.855-6.645 4.835-5.788 8.888.854 4.053 4.834 6.64 8.888 5.788 2.398-.506 4.634-.963 6.765-1.381l1.538 17.873c-15.164 3.343-30.58 7.882-46.352 13.625l-4.677-18.708c4.663-1.518 9.364-2.962 14.101-4.314 3.982-1.138 6.29-5.288 5.152-9.271-1.138-3.982-5.284-6.289-9.271-5.152-4.574 1.306-9.12 2.689-13.63 4.145l-.012-.047c-1.006-4.019-5.078-6.459-9.096-5.457-4.019 1.005-6.461 5.077-5.457 9.096l.325 1.3c-8.504 3.092-16.849 6.437-24.97 10.028-20.832 9.214-35.386 28.284-38.931 51.013l-2.064 13.235c-.172 1.119-.069 2.347.236 3.345 11.424 37.436 10.899 69.112 8.448 89.095-1.747 14.234-4.691 24.73-6.526 30.305h-86.26c-14.253 0-25.849 11.596-25.849 25.849v11.534c0 .006.001.013.001.019-.253 13.231 2.933 25.756 6.018 37.87 2.25 8.837 4.375 17.183 5.094 25.388.924 10.539 9.562 18.487 20.092 18.487h10.179c4.143 0 7.5-3.357 7.5-7.5s-3.357-7.5-7.5-7.5h-10.18c-2.695 0-4.909-2.062-5.148-4.798-.825-9.416-3.202-18.751-5.501-27.778-2.333-9.158-4.556-17.92-5.302-26.688 105.058.237 103.863-.589 112.503.684v53.413c0 2.849-2.318 5.167-5.168 5.167h-51.218c-4.143 0-7.5 3.357-7.5 7.5s3.357 7.5 7.5 7.5h51.218c11.121 0 20.168-9.047 20.168-20.167v-49.244c4.067 1.709-.516-.366 90.771 45.543 31.714 15.975 67.248 24.419 102.758 24.422.007 0 .013.001.02.001 9.894 0 158.307-.001 168.194-.001 4.143 0 7.5-3.357 7.5-7.5 0-20.617-16.769-37.386-37.383-37.386zm-111.175-57.439c4.343-5.747 10.021-10.271 16.413-13.301l-33.935 70.74c-6.897-.081-14.15.297-26.551-.7zm-211.002-114.762c8.744 35.508 5.219 75.249-.144 105.115-7.778-3.615-16.13-6.003-24.644-7.077 5.544-18.646 14.338-62.275-1.44-118.677 5.111-2.91 10.17-5.699 15.18-8.373 3.026 5.285 7.543 14.777 11.048 29.012zm4.573-75.892c7.345-3.249 14.886-6.282 22.564-9.107l4.798 19.193c-17.267 6.985-36.279 15.922-57.168 27.416 3.294-16.729 14.311-30.648 29.806-37.502zm-3.702 211.353c-10.645-5.362-22.571-8.196-34.491-8.196h-103.819v-4.034c0-5.982 4.866-10.849 10.849-10.849 5.823 0 97.342.002 91.531 0 10.536.003 21.076 2.509 30.484 7.249l85.663 43.147c22.021 11.092 45.884 18.544 70.302 22.071 12.808 2.432 34.795 2.349 34.895 2.352l-7.106 14.813c-31.618-.707-63.101-8.524-91.343-22.75zm300.187 66.623 1.73-14.883h19.39c9.712 0 18 6.219 21.091 14.883z"/></g></svg>