<svg id="Capa_1" enable-background="new 0 0 512 512" height="512" viewBox="0 0 512 512" width="512" xmlns="http://www.w3.org/2000/svg"><g><path d="m150.14 7.5h211.72v34.849h-211.72z" fill="#eab14d"/><path d="m342.066 7.5h19.794v34.849h-19.794z" fill="#e49542"/><path d="m381.651 496.278c-4.69-185.364-8.647-378.518-19.791-453.929h-211.72c-11.145 75.411-15.102 268.565-19.791 453.929-.114 4.51 3.51 8.222 8.022 8.222h90.061c4.25 0 7.763-3.313 8.011-7.555l16.712-285.308c.21-3.578 5.481-3.578 5.69 0l16.712 285.308c.249 4.242 3.761 7.555 8.011 7.555h90.061c4.512 0 8.136-3.712 8.022-8.222z" fill="#eab14d"/><g><path d="m361.86 42.349h-19.794c11.145 75.411 15.102 268.565 19.791 453.929.114 4.51-3.51 8.222-8.022 8.222h19.794c4.511 0 8.136-3.712 8.022-8.222-4.69-185.364-8.646-378.518-19.791-453.929z" fill="#e49542"/></g><g fill="#ffe07d"><path d="m273.638 117.808h-17.638v-75.459h28.535v64.562c0 6.018-4.879 10.897-10.897 10.897z"/><path d="m187.664 85.635v-43.286h-37.524c-2.261 15.299-4.225 35.455-5.961 59.398h27.373c8.898 0 16.112-7.214 16.112-16.112z"/><path d="m361.86 42.349h-37.524v43.286c0 8.898 7.214 16.112 16.112 16.112h27.373c-1.736-23.943-3.7-44.099-5.961-59.398z"/></g><path d="m367.821 101.747c-1.735-23.943-3.7-44.099-5.961-59.398h-19.794c2.261 15.301 4.227 35.45 5.962 59.398z" fill="#ffd064"/><path d="m138.1 220.688h57.646c3.134 0 5.674-2.54 5.674-5.674v-15.062c0-3.134-2.54-5.674-5.674-5.674h-56.597c-.361 8.606-.71 17.423-1.049 26.41z" fill="#ffe07d"/><path d="m135.436 301.023h24.786c13.115 0 23.747-10.632 23.747-23.747v-56.588h-45.869c-.962 25.504-1.84 52.449-2.664 80.335z" fill="#ffe07d"/><path d="m372.85 194.278h-56.597c-3.134 0-5.674 2.54-5.674 5.674v15.062c0 3.134 2.54 5.674 5.674 5.674h57.647c-.339-8.987-.688-17.804-1.05-26.41z" fill="#ffe07d"/><path d="m354.107 220.688h19.793c-.339-8.987-.688-17.804-1.05-26.411h-19.795c.362 8.613.713 17.417 1.052 26.411z" fill="#ffd064"/><path d="m373.9 220.688h-45.869v56.588c0 13.115 10.632 23.747 23.747 23.747h24.785c-.824-27.886-1.701-54.831-2.663-80.335z" fill="#ffe07d"/><path d="m356.77 301.023h19.794c-.824-27.886-1.701-54.831-2.664-80.335h-19.793c.962 25.502 1.839 52.452 2.663 80.335z" fill="#ffd064"/><g><path d="m257.461 32.425c4.143 0 7.5-3.357 7.5-7.5s-3.357-7.5-7.5-7.5h-2.923c-4.142 0-7.5 3.357-7.5 7.5s3.358 7.5 7.5 7.5z"/><path d="m369.36 41.817v-34.317c0-4.143-3.357-7.5-7.5-7.5h-145.446c-4.142 0-7.5 3.357-7.5 7.5s3.358 7.5 7.5 7.5h137.946v19.849h-196.72v-19.849h28.787c4.142 0 7.5-3.357 7.5-7.5s-3.358-7.5-7.5-7.5h-36.287c-4.142 0-7.5 3.357-7.5 7.5v34.313c-9.221 63.069-13.56 208.146-17.211 351.39-.105 4.141 3.166 7.583 7.307 7.689.065.001.13.002.194.002 4.053 0 7.39-3.233 7.494-7.309.727-28.507 1.481-57.083 2.294-85.062h17.504c17.229 0 31.247-14.018 31.247-31.247v-49.088h4.277c7.264 0 13.174-5.91 13.174-13.175v-15.062c0-7.265-5.91-13.175-13.174-13.175h-48.762c1.236-28.342 2.618-54.524 4.195-77.53h20.374c13.02 0 23.612-10.593 23.612-23.612v-35.785h53.335v154.776c-1.631 1.709-2.681 3.99-2.833 6.574l-15.14 258.469h-92.008c.112-4.472 1.022-41.01 1.148-46.099.104-4.141-3.169-7.582-7.31-7.686-4.166-.076-7.582 3.169-7.685 7.311-1.122 45.046-1.455 58.428-1.821 72.895-.107 4.218 1.456 8.205 4.401 11.226 2.946 3.022 6.895 4.687 11.118 4.687h90.062c8.21 0 15.018-6.421 15.498-14.617l12.07-206.063 12.07 206.062c.481 8.196 7.289 14.616 15.498 14.616h90.062c4.223 0 8.171-1.664 11.118-4.687 2.944-3.021 4.508-7.008 4.401-11.226-4.321-170.678-8.346-376.033-19.789-454.27zm-140.928 455.183h-90.062c-.055 0-.224 0-.377-.158-.152-.155-.148-.32-.146-.375.099-3.928.198-7.866.297-11.8h91.506l-.693 11.839c-.018.277-.248.494-.525.494zm89.648-283.812v-11.411h47.554c.154 3.768.306 7.574.455 11.411zm37.252-163.339c1.609 12.265 3.064 27.23 4.391 44.398h-19.275c-4.749 0-8.612-3.863-8.612-8.612v-35.786zm-178.863 227.427c0 8.959-7.289 16.247-16.247 16.247h-17.06c.674-22.362 1.39-44.257 2.166-65.335h31.141zm17.451-75.499v11.411h-48.025c.149-3.836.301-7.64.455-11.411zm-13.756-116.142c0 4.749-3.863 8.612-8.612 8.612h-19.282c1.327-17.13 2.785-32.104 4.399-44.398h23.496v35.786zm96.871-35.786v57.062c0 1.873-1.524 3.396-3.397 3.396h-10.137v-60.458zm-13.534 154.776v-79.318h10.137c10.145 0 18.397-8.253 18.397-18.396v-57.062h24.801v35.786c0 13.02 10.593 23.612 23.612 23.612h20.365c1.568 22.924 2.947 49.081 4.187 77.53h-48.747c-7.264 0-13.174 5.91-13.174 13.175v15.062c0 7.265 5.91 13.175 13.174 13.175h4.277v40.375c0 4.143 3.357 7.5 7.5 7.5s7.5-3.357 7.5-7.5v-40.375h31.126c.774 20.997 1.492 42.875 2.171 65.335h-17.05c-2.99 0-5.912-.818-8.448-2.366-3.533-2.158-8.15-1.042-10.309 2.494-2.158 3.535-1.042 8.15 2.494 10.309 4.891 2.985 10.514 4.563 16.263 4.563h17.496c1.514 51.904 2.839 106.339 4.207 161.144h-92.008l-15.14-258.47c-.151-2.584-1.201-4.864-2.831-6.573zm110.506 292.217c-.154.158-.322.158-.378.158h-90.062c-.277 0-.508-.218-.523-.494l-.693-11.839h91.506c.099 3.934.197 7.872.296 11.8.002.054.006.22-.146.375z"/></g></g></svg>