<svg id="Capa_1" enable-background="new 0 0 511.999 511.999" height="512" viewBox="0 0 511.999 511.999" width="512" xmlns="http://www.w3.org/2000/svg"><g><path d="m388.04 360.086-45.293-114.608c-8.241-20.853-4.213-44.568 10.481-61.505 19.215-22.147 19.955-52.652 5.547-84.896l-9.206-84.311c-.452-4.135-3.944-7.267-8.104-7.267h-17.271c-4.502 0-8.152 3.65-8.152 8.152v66.801c0 3.682-2.643 6.839-6.269 7.482-28.589 5.073-46.797 18.308-53.773 40.372-6.976-22.064-25.183-35.299-53.773-40.372-3.626-.643-6.269-3.8-6.269-7.482v-66.8c0-4.502-3.65-8.152-8.152-8.152h-17.271c-4.16 0-7.652 3.132-8.104 7.267l-9.206 84.311c-14.408 32.243-13.668 62.749 5.547 84.896 14.694 16.936 18.722 40.652 10.481 61.505l-45.293 114.607c-4.349 11.006 2.687 23.193 14.393 24.929 35.891 5.323 66.592 28.573 81.444 61.677l21.732 48.439c5.604 12.491 23.337 12.491 28.941 0l21.732-48.439c14.852-33.104 45.554-56.354 81.444-61.677 11.707-1.736 18.743-13.923 14.394-24.929z" fill="#9dc6fb"/><g><path d="m388.04 360.086-45.293-114.608c-8.241-20.853-4.213-44.568 10.481-61.504 19.215-22.147 19.955-52.652 5.547-84.896l-9.206-84.311c-.452-4.135-3.944-7.267-8.104-7.267h-17.271c-1.267 0-2.463.298-3.532.814 2.458 1.189 4.246 3.577 4.56 6.453l9.206 84.311c14.408 32.243 13.668 62.749-5.547 84.896-14.694 16.936-18.722 40.652-10.481 61.504l42.293 102.608c4.349 11.006-2.687 23.193-14.393 24.929-35.891 5.323-64.592 34.573-79.444 67.677l-21.732 50.439c-.833 1.858-1.94 3.432-3.23 4.737 5.963 11.74 23.087 11.5 28.578-.737l21.732-48.439c14.852-33.104 45.554-56.354 81.444-61.677 11.705-1.736 18.741-13.923 14.392-24.929z" fill="#80b4fb"/></g><path d="m346.653 255.363-163.676 147.211c12.886 8.854 23.791 20.523 31.781 34.306l150.232-135.12z" fill="#f4c3c6"/><path d="m347.924 317.109 17.065-15.349-18.336-46.397-17.641 15.866z" fill="#eab1b7"/><g><path d="m153.256 189.067c12.778 14.857 16.239 35.392 9.022 53.654l-23.38 59.161c-1.522 3.853.366 8.21 4.219 9.731.905.358 1.837.527 2.754.527 2.988 0 5.812-1.798 6.977-4.745l23.38-59.161c5.614-14.205 6.192-29.48 2.136-43.562 5.305 1.616 11.434 2.681 18.4 2.681 5.653 0 11.854-.699 18.603-2.365 4.021-.993 6.476-5.058 5.483-9.079s-5.055-6.48-9.08-5.483c-30.15 7.449-45.508-9.239-47.027-11.001-.103-.121-.201-.245-.306-.365-16.488-19.004-18.038-46.321-4.364-76.921.318-.712.523-1.47.608-2.245l9.207-84.312c.036-.331.315-.58.648-.58h17.271c.359 0 .652.292.652.651v66.801c0 7.333 5.239 13.586 12.458 14.867 26.226 4.653 41.905 16.184 47.933 35.248.986 3.119 3.88 5.239 7.151 5.239s6.165-2.12 7.151-5.239c6.028-19.064 21.707-30.595 47.933-35.248 7.219-1.281 12.458-7.534 12.458-14.867v-66.803c0-.359.292-.651.651-.651h17.271c.333 0 .611.249.647.581l1.442 13.207c.45 4.117 4.149 7.091 8.271 6.642 4.117-.45 7.091-4.152 6.642-8.271l-1.442-13.206c-.869-7.955-7.559-13.953-15.561-13.953h-17.271c-8.63 0-15.651 7.021-15.651 15.651v66.801c0 .046-.036.09-.079.098-24.6 4.365-42.174 14.518-52.462 30.256-10.289-15.738-27.863-25.891-52.462-30.256-.045-.008-.08-.051-.08-.098v-66.801c0-8.63-7.021-15.651-15.652-15.651h-17.271c-8.002 0-14.691 5.998-15.559 13.952l-9.081 83.156c-15.606 35.686-13.121 68.152 7.025 91.557.052.066.165.204.335.402z"/><path d="m395.014 357.329c-48.379-125.957-47.518-111.762-48.984-135.369.304-11.888 4.65-23.511 12.702-32.879.184-.214.308-.366.358-.428 0 0 .001-.001.001-.002 20.134-23.404 22.615-55.864 7.012-91.542l-4.363-39.962c-.45-4.116-4.147-7.097-8.271-6.642-4.117.45-7.091 4.152-6.642 8.271l4.49 41.117c.085.775.29 1.533.608 2.245 13.673 30.6 12.123 57.917-4.364 76.921-.102.117-.198.239-.299.356-1.323 1.546-16.711 18.5-47.035 11.01-4.016-.993-8.086 1.462-9.079 5.483s1.462 8.086 5.483 9.079c6.751 1.667 12.947 2.365 18.603 2.365 6.965 0 13.094-1.065 18.4-2.681-1.349 4.685-2.189 9.501-2.496 14.368l-177.022 161.721c-4.772-1.359-9.666-2.424-14.663-3.165-3.302-.489-6.154-2.429-7.823-5.319s-1.922-6.329-.695-9.434l10.891-27.559c1.522-3.853-.366-8.209-4.219-9.731-3.852-1.527-8.209.365-9.731 4.218l-10.891 27.559c-2.919 7.387-2.316 15.568 1.655 22.447 3.971 6.878 10.755 11.492 18.612 12.657 33.486 4.967 61.86 26.476 75.702 57.329l21.732 48.439c3.818 8.511 11.985 13.798 21.314 13.797 9.328 0 17.494-5.287 21.312-13.797l21.732-48.439c13.875-30.925 42.175-52.356 75.702-57.329 7.856-1.165 14.641-5.779 18.612-12.657 3.972-6.879 4.576-15.06 1.656-22.447zm-62.38-119.339c1.642 7.36 3.802 11.679 5.129 15.281l-155.473 139.834c-3.953-2.418-8.06-4.6-12.304-6.525zm47.734 134.286c-1.669 2.891-4.52 4.83-7.822 5.319-38.614 5.728-71.207 30.41-87.187 66.026l-21.732 48.439c-2.056 4.582-6.358 4.938-7.627 4.938-1.27.001-5.572-.355-7.628-4.938l-21.732-48.439c-.779-1.737-1.61-3.439-2.467-5.124l93.667-84.246c3.079-2.77 3.331-7.512.561-10.592-2.769-3.078-7.51-3.332-10.592-.561l-91.458 82.259c-6.092-8.825-13.344-16.669-21.523-23.356l148.817-133.848 12.454 31.514-25.963 23.351c-3.079 2.77-3.331 7.512-.561 10.592 1.48 1.646 3.525 2.484 5.578 2.484 1.787 0 3.58-.635 5.014-1.924l21.813-19.619 19.084 48.29c1.227 3.106.973 6.545-.696 9.435z"/></g></g></svg>