<svg id="Capa_1" enable-background="new 0 0 512.014 512.014" height="512" viewBox="0 0 512.014 512.014" width="512" xmlns="http://www.w3.org/2000/svg"><g><path d="m415.634 356.02-12.105-76.579-147.522-8.074-147.522 8.074-12.106 76.579-16.848 107.767c-.098.629-.181 1.257-.247 1.882-2.8 26.45 24.394 46.217 49.02 36.167 85.135-34.745 170.27-34.745 255.405 0 24.626 10.05 51.82-9.717 49.02-36.167-.066-.625-.148-1.253-.247-1.882z" fill="#b3e59f"/><path d="m415.634 394.301c2.027.497 4.076.756 6.115.831l-6.115-39.111-12.105-76.579-147.522-8.074-147.522 8.074-12.105 76.579-6.115 39.111c2.039-.074 4.088-.334 6.115-.831 106.417-26.084 212.835-26.084 319.254 0z" fill="#95d6a4"/><path d="m299.477 45.539h-86.94c-80.447 0-148.197 60.947-155.75 141.038-5.057 53.631-4.879 107.263 3.977 160.894.586 3.548 1.795 6.858 3.503 9.829 6.381 11.094 19.682 16.158 32.113 13.112 106.418-26.084 212.836-26.084 319.254 0 12.43 3.047 25.732-2.017 32.112-13.112 1.708-2.97 2.917-6.281 3.503-9.829 8.857-53.631 9.035-107.263 3.977-160.894-7.552-80.092-75.302-141.038-155.749-141.038z" fill="#b3e59f"/><g><path d="m455.226 186.577c-7.553-80.092-75.303-141.038-155.75-141.038h-27.856c80.447 0 148.197 60.947 155.75 141.038 5.057 53.632 4.879 107.263-3.977 160.894-.586 3.548-1.794 6.858-3.503 9.828-2.909 5.058-7.264 8.845-12.311 11.199 2.685.625 5.37 1.254 8.054 1.912 12.43 3.047 25.732-2.017 32.113-13.112 1.708-2.97 2.917-6.281 3.503-9.828 8.857-53.63 9.035-107.262 3.977-160.893z" fill="#95d6a4"/></g><path d="m145.198 203.046c-2.46 52.378-2.693 104.756.582 157.134 73.484-12.437 146.968-12.437 220.452 0 3.275-52.378 3.042-104.756.583-157.134-4.201-89.444-41.884-157.508-86.63-157.508h-48.357c-44.746.001-82.429 68.064-86.63 157.508z" fill="#d6f6b2"/><path d="m283.863 45.539h-55.712v-10.183c0-15.384 12.472-27.856 27.856-27.856 15.384 0 27.856 12.472 27.856 27.856z" fill="#86a0af"/><g><path d="m243.768 261.265-20.09-33.239c-2.749-4.548-2.749-10.246 0-14.794l20.09-33.239c5.563-9.205 18.915-9.205 24.478 0l20.09 33.239c2.749 4.548 2.749 10.246 0 14.794l-20.09 33.239c-5.564 9.205-18.915 9.205-24.478 0z" fill="#86a0af"/><path d="m288.335 213.232-20.09-33.239c-5.442-9.004-18.315-9.176-24.083-.565.129.192.273.364.395.565l20.09 33.239c2.749 4.548 2.749 10.246 0 14.794l-20.09 33.239c-.122.201-.266.373-.395.565 5.767 8.61 18.641 8.438 24.083-.565l20.09-33.239c2.749-4.548 2.749-10.246 0-14.794z" fill="#738b95"/></g><g><path d="m274.664 176.112c-3.983-6.589-10.958-10.523-18.658-10.523-7.699 0-14.674 3.935-18.657 10.523l-20.09 33.24c-4.203 6.955-4.203 15.598 0 22.554l20.09 33.238c3.983 6.59 10.958 10.524 18.657 10.524 7.7 0 14.675-3.935 18.658-10.524l20.09-33.239c4.203-6.955 4.203-15.598 0-22.554zm7.252 48.034-20.09 33.238c-1.791 2.964-4.667 3.284-5.82 3.284-1.152 0-4.028-.32-5.819-3.284l-20.09-33.237c-1.312-2.171-1.312-4.866 0-7.036l20.09-33.239c1.791-2.963 4.666-3.283 5.819-3.283 1.154 0 4.029.32 5.82 3.283l20.09 33.238c1.312 2.171 1.312 4.867 0 7.036z"/><path d="m462.694 185.873c-2.477-26.256-11.42-51.766-25.865-73.771-2.272-3.463-6.921-4.428-10.385-2.154-3.463 2.272-4.428 6.923-2.154 10.385 13.106 19.969 21.223 43.119 23.471 66.948 5.464 57.948 4.185 109.947-3.91 158.968-.428 2.59-1.305 5.05-2.604 7.312-4.572 7.95-14.369 11.882-23.826 9.566-14.411-3.532-28.851-6.573-43.31-9.155 2.689-47.211 2.756-96.776.197-151.278-2.082-44.326-12.393-85.368-29.034-115.563-7.508-13.624-16.068-24.606-25.337-32.706 32.722 4.441 62.837 19.507 86.348 43.543 2.894 2.959 7.644 3.017 10.605.117 2.961-2.896 3.014-7.645.117-10.605-31.187-31.883-72.927-49.441-117.53-49.441h-8.114v-2.682c0-19.497-15.862-35.357-35.357-35.357s-35.355 15.86-35.355 35.356v2.682h-8.114c-40.819 0-79.97 15.065-110.239 42.421-30.338 27.418-49.152 64.854-52.977 105.414-5.588 59.249-4.265 112.508 4.044 162.821.721 4.366 2.201 8.52 4.401 12.345 5.746 9.99 16.132 16.321 27.499 17.518l-13.146 84.08c-.116.748-.214 1.496-.293 2.242-1.576 14.879 4.722 29.201 16.845 38.311 7.754 5.827 16.881 8.824 26.111 8.824 5.504-.001 11.046-1.066 16.355-3.232 36.066-14.72 72.613-23.152 108.626-25.064 35.98-1.906 72.481 2.634 108.498 13.502 3.963 1.196 8.15-1.048 9.348-5.014 1.196-3.966-1.049-8.15-5.014-9.348-75.397-22.75-151.812-18.702-227.126 12.035-9.28 3.79-19.669 2.405-27.788-3.694-7.864-5.91-11.954-15.158-10.939-24.737.054-.506.12-1.014.198-1.516l13.735-87.846c103.086-24.858 207.574-24.858 310.662 0l13.735 87.85c.079.505.145 1.01.198 1.509 1.014 9.582-3.076 18.831-10.941 24.74-8.119 6.102-18.507 7.483-27.786 3.694-1.102-.449-2.204-.881-3.307-1.312l-1.23-.482c-3.853-1.52-8.209.377-9.726 4.231-1.518 3.854.377 8.208 4.231 9.726l1.262.495c1.033.404 2.067.808 3.102 1.23 5.31 2.167 10.85 3.232 16.354 3.232 9.23 0 18.357-2.997 26.11-8.823 12.124-9.11 18.422-23.432 16.847-38.313-.079-.748-.178-1.499-.295-2.248l-13.142-84.06c11.367-1.197 21.752-7.541 27.499-17.531 2.198-3.824 3.68-7.978 4.4-12.345 8.309-50.31 9.633-103.57 4.046-162.82zm-227.043-150.517c0-11.225 9.132-20.356 20.355-20.356 11.225 0 20.356 9.132 20.356 20.356v2.682h-40.712v-2.682zm-82.866 316.125c-.778-14.065-1.331-28.57-1.64-43.245-.087-4.14-3.487-7.411-7.656-7.34-4.141.087-7.428 3.515-7.34 7.656.324 15.422.912 30.668 1.75 45.421-14.457 2.582-28.895 5.622-43.304 9.154-9.456 2.322-19.252-1.615-23.825-9.565-1.301-2.263-2.178-4.723-2.605-7.312-8.095-49.022-9.374-101.021-3.909-158.969 3.472-36.813 20.554-70.798 48.101-95.693 22.396-20.24 50.143-33.075 79.703-37.146-9.261 8.098-17.815 19.074-25.318 32.689-16.642 30.195-26.952 71.237-29.034 115.563-1.222 26.019-1.849 51.49-1.862 75.708-.002 4.142 3.354 7.502 7.496 7.504h.004c4.141 0 7.498-3.355 7.5-7.496.014-23.985.635-49.224 1.847-75.013 1.976-42.08 11.631-80.8 27.187-109.026 14.689-26.654 33.139-41.333 51.951-41.333h48.356c18.812 0 37.262 14.679 51.951 41.333 15.556 28.227 25.211 66.946 27.187 109.026 2.506 53.347 2.476 101.887-.092 148.083-68.687-10.705-137.764-10.706-206.448.001z"/></g></g></svg>