<svg id="Capa_1" enable-background="new 0 0 512 512" height="512" viewBox="0 0 512 512" width="512" xmlns="http://www.w3.org/2000/svg"><g><path d="m135.483 7.5h241.037v31.424h-241.037z" fill="#eab14d"/><path d="m353.219 7.5h23.301v31.424h-23.301z" fill="#e49542"/><path d="m375.458 492.772c.577 6.876-6.604 11.791-12.754 8.664-8.103-4.12-12.339-10.936-26.353-10.936-20.085 0-20.085 14-40.17 14-20.086 0-20.086-14-40.172-14-20.085 0-20.085 14-40.171 14-20.088 0-20.088-14-40.177-14-14.018 0-18.254 6.818-26.361 10.938-6.151 3.126-13.33-1.789-12.754-8.664 15.802-188.417-31.51-344.714-1.062-453.85h241.036c30.448 109.135-16.864 265.432-1.062 453.848z" fill="#eab14d"/><g><path d="m376.52 38.924h-23.301c30.448 109.135-16.864 265.432-1.062 453.849.054.643.02 1.26-.055 1.864 3.659 2.179 6.678 4.805 10.601 6.8 6.15 3.127 13.331-1.788 12.754-8.664-15.801-188.417 31.511-344.714 1.063-453.849z" fill="#e49542"/></g><path d="m256.007 490.5c11.504 0 16.421 4.591 22.295 8.515v-460.091h-44.602v460.099c5.88-3.926 10.796-8.523 22.307-8.523z" fill="#ffe07d"/><g><path d="m256.001 69.369c-4.143 0-7.5 3.357-7.5 7.5v3.446c0 4.143 3.357 7.5 7.5 7.5s7.5-3.357 7.5-7.5v-3.446c0-4.142-3.357-7.5-7.5-7.5z"/><path d="m256.001 135.179c-4.143 0-7.5 3.357-7.5 7.5v3.446c0 4.143 3.357 7.5 7.5 7.5s7.5-3.357 7.5-7.5v-3.446c0-4.143-3.357-7.5-7.5-7.5z"/><path d="m256.001 200.987c-4.143 0-7.5 3.357-7.5 7.5v3.446c0 4.143 3.357 7.5 7.5 7.5s7.5-3.357 7.5-7.5v-3.446c0-4.142-3.357-7.5-7.5-7.5z"/><path d="m256.001 266.796c-4.143 0-7.5 3.357-7.5 7.5v3.446c0 4.143 3.357 7.5 7.5 7.5s7.5-3.357 7.5-7.5v-3.446c0-4.143-3.357-7.5-7.5-7.5z"/><path d="m256.001 332.605c-4.143 0-7.5 3.357-7.5 7.5v3.446c0 4.143 3.357 7.5 7.5 7.5s7.5-3.357 7.5-7.5v-3.446c0-4.142-3.357-7.5-7.5-7.5z"/><path d="m256.001 398.414c-4.143 0-7.5 3.357-7.5 7.5v3.446c0 4.143 3.357 7.5 7.5 7.5s7.5-3.357 7.5-7.5v-3.446c0-4.143-3.357-7.5-7.5-7.5z"/><path d="m386.692 151.899c-4.137-.114-7.62 3.077-7.775 7.215-1.054 28.237-3.46 58.287-6.008 90.101-5.815 72.634-12.407 154.958-4.925 244.185.056.667-.301 1.055-.61 1.263-.621.42-1.111.172-1.271.089-1.834-.933-3.556-2.133-5.38-3.404-5.335-3.719-11.975-8.347-24.373-8.347s-19.038 4.628-24.374 8.348c-4.708 3.281-8.109 5.652-15.796 5.652-4.592 0-7.652-.851-10.378-2.231v-448.346h30.156c-.001.007-.002.013-.002.021-.508 5.773.109 14.96 5.937 25.942 1.347 2.538 3.944 3.986 6.632 3.986 1.186-.001 2.389-.282 3.509-.877 3.659-1.941 5.051-6.481 3.109-10.141-4.521-8.521-4.685-15.061-4.095-18.932h2.869c.383 4.086 1.724 9.029 5.196 13.989 1.459 2.085 3.786 3.2 6.151 3.2 1.484 0 2.985-.44 4.294-1.356 3.394-2.376 4.219-7.052 1.844-10.445-1.315-1.879-1.991-3.744-2.322-5.388h21.669c5.852 23.24 8.634 49.812 8.727 83.005.012 4.136 3.367 7.479 7.5 7.479h.021c4.143-.012 7.491-3.379 7.479-7.521-.102-36.729-3.433-65.822-10.457-91.446v-30.44c0-4.143-3.357-7.5-7.5-7.5h-190.825c-4.143 0-7.5 3.357-7.5 7.5s3.357 7.5 7.5 7.5h183.326v16.424h-226.036v-16.424h12.723c4.143 0 7.5-3.357 7.5-7.5s-3.357-7.5-7.5-7.5h-20.223c-4.143 0-7.5 3.357-7.5 7.5v30.449c-16.134 58.895-10.442 130.093-3.845 212.464 5.771 72.06 12.312 153.734 4.933 241.734-.496 5.914 2.258 11.647 7.187 14.962 4.969 3.342 11.113 3.723 16.439 1.014 2.762-1.403 5.1-3.032 7.162-4.47 4.709-3.282 8.111-5.653 15.8-5.653s11.092 2.371 15.801 5.653c5.336 3.719 11.977 8.347 24.376 8.347 10.844 0 17.08-3.262 24.375-8.348 4.708-3.281 8.109-5.652 15.796-5.652 7.688 0 11.09 2.371 15.799 5.653 7.364 5.133 13.546 8.347 24.374 8.347 12.398 0 19.038-4.628 24.374-8.348 4.708-3.281 8.109-5.652 15.796-5.652s11.088 2.371 15.796 5.652c2.062 1.438 4.398 3.066 7.158 4.47 5.326 2.708 11.472 2.33 16.44-1.014 4.93-3.314 7.683-9.049 7.187-14.963-7.38-88.001-.84-169.675 4.93-241.733 2.561-31.978 4.979-62.182 6.046-90.737.153-4.14-3.078-7.62-7.216-7.776zm-145.492 333.869v-24.225c0-4.143-3.357-7.5-7.5-7.5s-7.5 3.357-7.5 7.5v33.232c-2.722 1.377-5.78 2.225-10.364 2.225-7.688 0-11.091-2.371-15.8-5.653-5.336-3.719-11.976-8.347-24.377-8.347-12.399 0-19.04 4.628-24.376 8.347-1.824 1.271-3.548 2.473-5.383 3.405-.16.08-.647.327-1.271-.089-.309-.208-.666-.597-.61-1.263 7.483-89.225.89-171.55-4.928-244.185-6.312-78.813-11.79-147.227 2.164-202.792h21.667c-.331 1.644-1.007 3.509-2.322 5.388-2.375 3.394-1.55 8.069 1.844 10.445 1.309.916 2.809 1.356 4.294 1.356 2.365 0 4.692-1.116 6.151-3.2 3.472-4.96 4.814-9.903 5.196-13.989h2.869c.59 3.871.426 10.411-4.095 18.932-1.941 3.659-.55 8.199 3.109 10.141 1.121.595 2.323.877 3.509.877 2.687-.001 5.285-1.448 6.632-3.986 5.827-10.982 6.444-20.169 5.937-25.942-.001-.007-.002-.013-.002-.021h30.156v385.132c0 4.143 3.357 7.5 7.5 7.5s7.5-3.357 7.5-7.5v-385.132h29.602v439.339c-3.87-1.613-8.617-2.762-14.795-2.762-6.184-.001-10.935 1.151-14.807 2.767z"/></g></g></svg>