<svg id="Capa_1" enable-background="new 0 0 511.967 511.967" height="512" viewBox="0 0 511.967 511.967" width="512" xmlns="http://www.w3.org/2000/svg"><g><path d="m448.102 135.628c-2.118-12.503-10.031-23.264-21.334-29.014l-86.052-43.775-84.733 7.831-84.733-7.831-86.05 43.775c-11.303 5.75-19.216 16.511-21.334 29.014l-12.085 71.325 53.129 15.066v270.654c0 6.513 5.28 11.793 11.793 11.793h278.561c6.513 0 11.793-5.28 11.793-11.793v-270.654l53.129-15.066z" fill="#b3e59f"/><path d="m448.102 135.628c-2.118-12.503-10.031-23.264-21.334-29.014l-86.052-43.775-48.087 4.444 31.557 12.82 77.588 44.309c8.023 4.582 13.567 12.523 15.103 21.634l4.357 25.843c1.783 10.576-4.167 20.936-14.202 24.725l-12.872 4.86c-8.734 3.298-14.514 11.658-14.514 20.994v282h15.617c6.513 0 11.793-5.28 11.793-11.793v-270.656l53.129-15.067z" fill="#95d6a4"/><path d="m236.156 92.053h39.655v122.754h-39.655z" fill="#d3f9e2"/><path d="m323.18 14.966c-44.797-10-89.595-10-134.392 0l-29.235 33.627c13.749 32.12 35.016 66.066 63.875 85.778l32.556-19.037 32.556 19.037c28.859-19.712 50.126-53.658 63.875-85.778z" fill="#d6f6b2"/><path d="m215.408 51.704c7.325 22.056 21.686 43.153 40.576 63.63 18.891-20.478 33.251-41.574 40.576-63.63-27.051-12.108-54.102-12.108-81.152 0z" fill="#b3e59f"/><path d="m236.801 92.053c5.672 7.859 12.109 15.614 19.183 23.282 18.891-20.478 33.251-41.574 40.576-63.63-6.799-3.044-13.599-5.321-20.398-6.834-5.186 12.956-16.387 32.77-39.361 47.182z" fill="#95d6a4"/><path d="m51.781 206.953-4.883 26.545 58.012 15.297v-26.776z" fill="#d6f6b2"/><path d="m460.187 206.953 4.883 26.545-58.012 15.297v-26.776z" fill="#ccf49f"/><path d="m334.355 249.661-10.771-17.821c-1.474-2.439-1.474-5.493 0-7.932l10.771-17.821c2.983-4.935 10.141-4.935 13.124 0l10.771 17.821c1.474 2.439 1.474 5.493 0 7.932l-10.771 17.821c-2.983 4.935-10.141 4.935-13.124 0z" fill="#86a0af"/><g><path d="m472.445 232.141-4.871-26.481-12.078-71.285c-2.481-14.645-11.812-27.418-24.984-34.258-.056-.032-.113-.062-.169-.092-.059-.03-.115-.065-.175-.096l-75.393-38.354c1.552-3.289 3.075-6.619 4.535-10.03 1.132-2.644.652-5.702-1.234-7.873l-29.236-33.627c-1.052-1.209-2.462-2.05-4.026-2.399-45.673-10.195-91.988-10.195-137.659 0-1.564.349-2.975 1.19-4.026 2.399l-29.235 33.627c-1.887 2.17-2.366 5.229-1.234 7.872 1.484 3.467 2.991 6.805 4.514 10.041-25.189 12.816-73.463 37.366-75.557 38.444-14.536 7.935-22.801 20.521-25.144 34.345l-12.081 71.286-4.871 26.481c-.71 3.857 1.672 7.609 5.464 8.609l52.425 13.823v238.099c0 10.639 8.655 19.294 19.293 19.294h27.856c4.143 0 7.5-3.357 7.5-7.5s-3.357-7.5-7.5-7.5h-27.856c-2.367 0-4.293-1.926-4.293-4.294v-16.56h287.147v16.56c0 2.367-1.926 4.294-4.293 4.294h-220.717c-4.143 0-7.5 3.357-7.5 7.5s3.357 7.5 7.5 7.5h220.718c10.638 0 19.293-8.655 19.293-19.294v-238.099l52.424-13.823c3.791-1 6.173-4.752 5.463-8.609zm-20.777-30.568-38.169 10.824c-4.457-43.243.582-75.407 15.001-95.833 6.402 4.962 10.835 12.22 12.207 20.317zm-380.408-64.692c1.373-8.097 5.805-15.356 12.207-20.318 14.418 20.425 19.458 52.59 15.001 95.833l-38.169-10.824zm-15.729 91.137 2.134-11.601 39.745 11.271v11.373zm56.879 233.095v-238.644c6.452-51.048 1.298-88.25-15.76-113.266l67.262-34.217c19.138 35.629 40.018 55.15 55.285 65.579 2.396 1.635 5.517 1.744 8.017.281l1.442-.843v74.805c0 4.142 3.357 7.5 7.5 7.5h39.654c4.143 0 7.5-3.358 7.5-7.5v-74.806l1.443.844c1.173.686 2.48 1.026 3.786 1.026 1.48 0 2.958-.438 4.23-1.307 6.537-4.465 12.966-9.811 19.107-15.888 2.944-2.914 2.969-7.662.056-10.606-2.914-2.945-7.663-2.969-10.606-.056-4.287 4.242-8.711 8.073-13.196 11.43l-20.448-11.957c17.648-20.358 29.448-39.811 35.934-59.245 0 0 0-.001.001-.001l4.43-12.324c1.401-3.898-.623-8.193-4.521-9.595-3.899-1.4-8.193.623-9.595 4.521l-1.786 4.97c-6.635-2.452-13.316-4.251-19.944-5.347-4.089-.679-7.947 2.09-8.623 6.176s2.089 7.947 6.176 8.623c5.72.946 11.508 2.501 17.279 4.641-6.27 15.609-16.497 31.485-31.05 48.196-14.553-16.712-24.781-32.587-31.05-48.196 5.772-2.139 11.561-3.695 17.28-4.641 4.087-.676 6.852-4.537 6.176-8.623s-4.539-6.854-8.623-6.176c-6.628 1.096-13.309 2.895-19.945 5.347l-1.786-4.97c-1.4-3.898-5.7-5.919-9.595-4.521-3.897 1.401-5.922 5.697-4.521 9.595l4.43 12.324s0 .001.001.001c6.485 19.433 18.286 38.886 35.934 59.245l-20.448 11.957c-27.666-20.703-46.016-54.359-55.509-75.513l24.491-28.17c41.928-9.011 84.405-9.01 126.329 0l24.494 28.173c-6.958 15.558-14.936 29.684-23.749 42.046-2.405 3.373-1.62 8.056 1.753 10.461 3.372 2.404 8.057 1.618 10.46-1.753 5.655-7.931 10.963-16.545 15.911-25.721l67.3 34.236c-17.059 25.016-22.213 62.219-15.759 113.265v238.645h-287.147zm143.573-337.091 12.327 7.208v76.077h-24.654v-76.077zm158.575 115.039v-11.373l39.744-11.271 2.134 11.601z"/><path d="m255.983 153.984c4.143 0 7.5-3.358 7.5-7.5v-1.513c0-4.142-3.357-7.5-7.5-7.5s-7.5 3.358-7.5 7.5v1.513c0 4.142 3.358 7.5 7.5 7.5z"/><path d="m255.983 193.999c4.143 0 7.5-3.358 7.5-7.5v-1.513c0-4.142-3.357-7.5-7.5-7.5s-7.5 3.358-7.5 7.5v1.513c0 4.142 3.358 7.5 7.5 7.5z"/><path d="m353.897 202.208c-2.771-4.584-7.623-7.322-12.98-7.322s-10.21 2.737-12.98 7.322l-10.771 17.821c-2.924 4.839-2.924 10.851 0 15.69l10.771 17.821c2.771 4.585 7.623 7.322 12.98 7.322s10.21-2.737 12.98-7.322l10.77-17.819c2.927-4.84 2.927-10.854.001-15.692zm-2.067 25.752-10.816 17.883c-.037.024-.156.024-.193 0-.004-.003-.021-.021-.046-.062l-10.771-17.82c-.032-.054-.032-.12 0-.173l10.817-17.883c.013-.008.035-.014.062-.014.053 0 .122.02.177.076l10.771 17.822c.032.052.032.118-.001.171z"/></g></g></svg>