<svg id="Capa_1" enable-background="new 0 0 512.007 512.007" height="512" viewBox="0 0 512.007 512.007" width="512" xmlns="http://www.w3.org/2000/svg"><g><path d="m329.676 175.004c-.077-.223-.156-.445-.235-.668-3.124-8.781-7.991-16.856-14.212-23.797-19.496-21.749-16.066-34.474-18.826-65.747 0 22.313-18.088 40.4-40.4 40.4s-40.4-18.088-40.4-40.4c-2.76 31.273.67 43.998-18.826 65.747-6.221 6.94-11.088 15.016-14.212 23.797-.079.223-.157.445-.235.668-7.178 20.694 1.329 43.519 20.047 54.895 17.763 10.795 22.831 25.362 22.723 49.353h30.902 30.902c-.107-23.991 4.96-38.558 22.724-49.353 18.719-11.376 27.227-34.201 20.048-54.895z" fill="#e28086"/><g><path d="m329.676 175.004c-.077-.223-.156-.446-.234-.668-3.124-8.781-7.991-16.856-14.212-23.797-19.496-21.749-16.066-34.474-18.826-65.747 0 14.769-7.928 27.681-19.756 34.727 1.792 10.535 5.689 19.516 16.001 31.02 6.221 6.94 11.088 15.016 14.212 23.797.079.222.157.445.235.668 7.178 20.694-1.329 43.519-20.047 54.895-17.763 10.795-22.831 25.362-22.724 49.353h22.581c-.107-23.991 4.96-38.558 22.724-49.353 18.717-11.376 27.225-34.201 20.046-54.895z" fill="#dd636e"/></g><path d="m332.538 478.533c-51.023 9.517-102.046 9.517-153.069 0-9.283-1.732-15.483-10.561-13.894-19.87l28.637-167.805c1.144-6.704 6.954-11.607 13.755-11.607h96.072c6.801 0 12.611 4.903 13.755 11.607l28.637 167.805c1.59 9.309-4.61 18.139-13.893 19.87z" fill="#f4c3c6"/><path d="m346.433 458.663-28.638-167.805c-1.144-6.704-6.954-11.607-13.755-11.607h-9.845l30.618 187.412c.874 5.122-.62 10.092-3.678 13.821 3.836-.609 7.672-1.254 11.508-1.971 9.242-1.726 15.371-10.581 13.79-19.85z" fill="#eab1b7"/><path d="m281.508 504.507h-51.008c-6.4 0-11.397-5.533-10.747-11.9l9.331-91.401h53.84l9.331 91.401c.65 6.367-4.347 11.9-10.747 11.9z" fill="#eab1b7"/><path d="m320.18 304.832-2.385-13.974c-1.144-6.704-6.954-11.607-13.755-11.607h-96.072c-6.801 0-12.611 4.903-13.755 11.607l-2.385 13.974z" fill="#86a0af"/><path d="m320.18 304.832-2.385-13.974c-1.144-6.704-6.954-11.607-13.755-11.607h-9.845l4.179 25.581z" fill="#738b95"/><g><path d="m353.826 457.402-2.716-15.912c-.697-4.084-4.575-6.825-8.655-6.132-4.083.697-6.828 4.572-6.132 8.655l2.716 15.911c.891 5.22-2.643 10.261-7.876 11.236-10.969 2.046-22.06 3.651-33.069 4.804l-7.71-75.52c-.421-4.12-4.097-7.129-8.223-6.699-4.121.421-7.12 4.102-6.699 8.223l9.332 91.399c.129 1.271-.468 2.144-.835 2.55-.368.407-1.175 1.09-2.452 1.09h-51.008c-1.276 0-2.083-.683-2.451-1.089-.367-.407-.964-1.279-.835-2.55l9.331-91.4c.421-4.121-2.578-7.803-6.699-8.223-4.123-.415-7.803 2.579-8.223 6.699l-7.71 75.52c-11.007-1.152-22.101-2.759-33.069-4.804-5.233-.976-8.768-6.017-7.876-11.235l25.187-147.593h22.702c4.143 0 7.5-3.357 7.5-7.5s-3.357-7.5-7.5-7.5h-20.143l.89-5.213c.531-3.11 3.207-5.368 6.363-5.368h96.071c3.156 0 5.832 2.258 6.362 5.368l.89 5.213h-60.446c-4.143 0-7.5 3.357-7.5 7.5s3.357 7.5 7.5 7.5h63.006l17.354 101.693c.696 4.083 4.57 6.824 8.655 6.132 4.083-.697 6.828-4.572 6.132-8.655l-20.805-121.906c-1.765-10.34-10.659-17.845-21.148-17.845h-9.458c.993-18.108 6.354-27.793 18.944-35.443 21.705-13.191 31.478-40.007 23.241-63.75-.213-.548-1.26-3.999-4.045-9.542-1.859-3.701-6.369-5.197-10.068-3.334-3.701 1.859-5.194 6.367-3.334 10.068 2.156 4.295 3.196 7.519 3.271 7.712 5.924 17.077-1.111 36.372-16.727 45.945-8.518 4.746-17.148 1.144-17.628.937-3.753-1.683-8.172-.031-9.891 3.716-1.727 3.766-.073 8.218 3.691 9.943.242.111 2.565 1.146 6.182 1.931-5.889 9.124-8.125 19.729-8.672 31.817h-3.788c.051-.117.094-.234.152-.351 1.844-3.709.333-8.211-3.376-10.056-1.073-.533-2.212-.786-3.334-.786-2.757.001-5.41 1.526-6.722 4.162-1.197 2.406-1.858 4.783-2.17 7.03h-8.61c-.312-2.248-.974-4.625-2.171-7.031-1.311-2.635-3.964-4.161-6.721-4.161-1.122 0-2.262.253-3.335.787-3.708 1.845-5.219 6.347-3.374 10.056.058.116.101.233.152.35h-3.788c-.547-12.087-2.784-22.693-8.673-31.817 3.617-.784 5.94-1.82 6.182-1.931 3.765-1.726 5.448-6.191 3.723-9.957-1.727-3.765-6.147-5.43-9.913-3.706-.366.161-9.056 3.846-17.632-.931-15.619-9.573-22.656-28.87-16.727-45.959.195-.419 3.426-11.289 12.941-21.905 12.709-14.177 16.67-25.365 18.348-38.399 8.763 9.552 21.341 15.547 35.293 15.547 13.956 0 26.536-5.998 35.299-15.554 1.303 10.097 3.977 19.112 11.007 29.215 2.366 3.399 7.039 4.236 10.44 1.872 3.399-2.366 4.238-7.041 1.872-10.44-8.134-11.687-8.671-20.949-9.646-37.765-.269-4.638-.574-9.892-1.089-15.747-.12-2.017-1.833-26.971-14.175-46.245-.456-.712-.933-1.407-1.428-2.083l4.957-2.86c6.252-3.608 9.6-10.302 8.738-17.469s-5.701-12.876-12.631-14.899c-5.776-1.687-11.949-.353-16.513 3.566l-16.831 14.448-16.83-14.449c-4.566-3.919-10.74-5.254-16.514-3.565-6.93 2.023-11.77 7.733-12.631 14.9s2.487 13.86 8.74 17.468l4.956 2.859c-.495.677-.972 1.371-1.428 2.083-12.256 19.142-14.031 43.892-14.173 46.209-.518 5.886-.823 11.163-1.093 15.822-1.18 20.409-1.719 29.724-15.838 45.475-29.855 33.307-21.518 73.266 7.29 90.774 12.589 7.651 17.951 17.336 18.944 35.443h-9.458c-10.489 0-19.384 7.505-21.149 17.845l-28.638 167.806c-2.261 13.248 6.672 26.035 19.913 28.505 11.372 2.121 22.878 3.787 34.295 4.98l-.098.959c-.524 5.142 1.161 10.291 4.626 14.126 3.464 3.836 8.414 6.035 13.582 6.035h51.008c5.168 0 10.119-2.2 13.583-6.035 3.465-3.836 5.15-8.984 4.626-14.127l-.098-.959c11.419-1.194 22.922-2.858 34.295-4.979 13.244-2.47 22.176-15.257 19.916-28.505zm-97.823-339.709c-18.079 0-32.795-14.659-32.896-32.714.16-2.313 1.872-23.323 11.822-38.862 4.604-7.188 12.481-11.481 21.074-11.481 8.594 0 16.472 4.293 21.075 11.482 9.868 15.409 11.647 36.444 11.821 38.854-.097 18.059-14.814 32.721-32.896 32.721zm29.14-102.577c1.503.439 1.862 1.624 1.942 2.292.08.667.013 1.903-1.343 2.686l-9.092 5.247c-1.06-.637-2.146-1.229-3.262-1.764l9.216-7.911c.703-.603 1.65-.805 2.539-.55zm-60.221 2.292c.08-.667.438-1.853 1.941-2.292.888-.256 1.838-.054 2.54.549l9.215 7.911c-1.116.535-2.202 1.127-3.262 1.764l-9.092-5.247c-1.355-.782-1.423-2.018-1.342-2.685z"/><path d="m201.208 368.101-9.326 52.864c-.72 4.079 2.004 7.969 6.083 8.688.44.078.879.115 1.312.115 3.57 0 6.735-2.56 7.377-6.198l9.326-52.864c.72-4.079-2.004-7.969-6.083-8.688-4.081-.729-7.97 2.003-8.689 6.083z"/><path d="m302.111 362.018c-4.079.72-6.803 4.609-6.083 8.688l9.326 52.864c.642 3.639 3.806 6.198 7.377 6.198.433 0 .871-.037 1.312-.115 4.079-.72 6.803-4.609 6.083-8.688l-9.326-52.864c-.721-4.079-4.608-6.805-8.689-6.083z"/></g></g></svg>