<svg id="Capa_1" enable-background="new 0 0 512 512" height="512" viewBox="0 0 512 512" width="512" xmlns="http://www.w3.org/2000/svg"><g><path d="m382.151 499.827c-30.916-237.296 11.133-338.118-20.842-454.015h-210.617c-31.975 115.897 10.074 216.718-20.842 454.015-.322 2.473 1.597 4.673 4.09 4.673h54.372c1.935 0 3.611-1.344 4.031-3.233l63.657-286.502 63.657 286.502c.42 1.889 2.095 3.233 4.031 3.233h54.372c2.494 0 4.413-2.2 4.091-4.673z" fill="#9dc6fb"/><path d="m382.151 499.827c-30.916-237.296 11.133-338.118-20.842-454.015h-210.617c-31.975 115.897 10.074 216.718-20.842 454.015-.322 2.473 1.597 4.673 4.09 4.673h54.372c1.935 0 3.611-1.344 4.031-3.233l63.657-286.502 63.657 286.502c.42 1.889 2.095 3.233 4.031 3.233h54.372c2.494 0 4.413-2.2 4.091-4.673z" fill="#9dc6fb"/><g><path d="m382.151 499.827c-30.916-237.296 11.133-338.118-20.842-454.015h-25.278c31.578 114.459-9.042 214.214 19.724 445.243.889 7.141-4.693 13.444-11.889 13.444h34.194c2.494.001 4.413-2.199 4.091-4.672z" fill="#80b4fb"/></g><path d="m150.692 7.5h210.617v38.313h-210.617z" fill="#cbe2ff"/><path d="m336.031 7.5h25.278v38.313h-25.278z" fill="#bed8fb"/><g fill="#61a2f9"><path d="m270.804 138.993h-14.804v-93.18h28.736v79.248c0 7.694-6.238 13.932-13.932 13.932z"/><path d="m199.966 45.813h-49.274c-6.436 23.328-9.868 46.048-11.504 69.391h29.752c17.136 0 31.027-13.891 31.027-31.027v-38.364z"/><path d="m312.035 45.813v38.364c0 17.136 13.891 31.027 31.027 31.027h29.752c-1.637-23.343-5.068-46.062-11.504-69.391z"/></g><path d="m372.813 115.203c-1.637-23.343-5.068-46.062-11.504-69.391h-25.278c6.436 23.329 9.872 46.047 11.508 69.391z" fill="#5490f9"/><path d="m139.187 115.203h29.752c2.931 0 5.763-.415 8.451-1.175v-31.614c0-3.509-2.844-6.353-6.353-6.353h-27.146c-2.284 12.996-3.78 25.97-4.704 39.142z" fill="#5490f9"/><path d="m323.688 504.5h54.373c2.494 0 4.412-2.2 4.09-4.672-1.167-8.965-2.225-17.727-3.193-26.313h-65.466l6.166 27.752c.419 1.889 2.095 3.233 4.03 3.233z" fill="#cbe2ff"/><path d="m382.151 499.828c-1.167-8.965-2.225-17.727-3.193-26.313h-25.275c.65 5.769 1.333 11.601 2.073 17.541.889 7.141-4.693 13.444-11.889 13.444h34.194c2.493 0 4.412-2.2 4.09-4.672z" fill="#bed8fb"/><path d="m198.509 473.514h-65.466c-.968 8.586-2.027 17.349-3.193 26.313-.322 2.473 1.597 4.672 4.09 4.672h54.372c1.935 0 3.611-1.344 4.031-3.233z" fill="#cbe2ff"/><g><path d="m265.4 26.656c0-4.143-3.357-7.5-7.5-7.5h-3.8c-4.143 0-7.5 3.357-7.5 7.5s3.357 7.5 7.5 7.5h3.801c4.142 0 7.499-3.357 7.499-7.5z"/><path d="m389.588 498.858c-3.688-28.313-6.556-56.563-8.522-83.967-.296-4.131-3.881-7.238-8.018-6.943-4.131.296-7.24 3.886-6.943 8.018 1.179 16.438 2.68 33.177 4.484 50.049h-51.081l-56.008-252.073v-67.45h7.304c11.818 0 21.433-9.614 21.433-21.432v-14.435c0-4.143-3.357-7.5-7.5-7.5s-7.5 3.357-7.5 7.5v14.435c0 3.547-2.886 6.432-6.433 6.432h-7.304v-78.18h13.736v27.326c0 4.143 3.357 7.5 7.5 7.5s7.5-3.357 7.5-7.5v-27.326h12.298v30.863c0 21.244 17.283 38.527 38.527 38.527h22.7c1.691 30.82.459 63.039-.937 99.454-1.773 46.242-3.782 98.654-.55 163.658.206 4.136 3.712 7.338 7.864 7.117 4.137-.205 7.323-3.726 7.118-7.863-3.201-64.343-1.205-116.404.557-162.337 2.581-67.321 4.615-120.581-11.005-177.901v-37.33c0-4.143-3.357-7.5-7.5-7.5h-161.745c-4.143 0-7.5 3.357-7.5 7.5s3.357 7.5 7.5 7.5h7.98l-2.565 23.312h-46.788v-23.312h11.385c4.143 0 7.5-3.357 7.5-7.5s-3.357-7.5-7.5-7.5h-18.885c-4.143 0-7.5 3.357-7.5 7.5v37.331c-15.617 57.317-13.583 110.566-10.999 177.875 2.655 69.205 5.961 155.335-9.78 276.151-.433 3.322.587 6.672 2.797 9.188 2.207 2.513 5.389 3.954 8.731 3.954h54.372c5.492 0 10.16-3.745 11.352-9.106 3.567-16.054 54.302-244.396 56.336-253.551 2.036 9.162 52.772 237.512 56.336 253.551 1.191 5.361 5.859 9.106 11.353 9.106h54.372c3.342 0 6.523-1.441 8.73-3.953 2.211-2.517 3.231-5.865 2.798-9.188zm-141.088-284.916-56.008 252.073h-51.083c11.13-104.084 8.188-180.933 5.771-243.884-1.397-36.405-2.63-68.615-.94-99.428h22.699c21.243 0 38.526-17.283 38.526-38.527v-30.864h41.034v160.63zm-78.61-106.263c-.316.013-.632.024-.95.024h-21.625c.723-8.096 1.685-16.127 2.938-24.143h19.637zm173.172.024c-12.973 0-23.527-10.555-23.527-23.527v-30.864h36.01c4.664 18.193 7.51 36.122 9.143 54.391zm10.747-69.391h-46.787l-2.565-23.312h49.351v23.312zm-131.175-23.312h66.732l2.565 23.312h-71.861zm-30.168 38.312v30.863c0 6.822-2.922 12.973-7.576 17.275v-19.036c0-7.639-6.215-13.854-13.854-13.854h-18.085c1.035-5.071 2.198-10.149 3.505-15.248zm-6.859 443.688h-47.831c.691-5.406 1.331-10.717 1.948-15.985h49.435zm140.786 0-3.552-15.985h49.435c.623 5.323 1.266 10.651 1.948 15.985z"/></g></g></svg>