<svg id="Capa_1" enable-background="new 0 0 512.001 512.001" height="512" viewBox="0 0 512.001 512.001" width="512" xmlns="http://www.w3.org/2000/svg"><g><path d="m499.574 462.47-56.68-366.081c-4.836-31.235-26.801-57.109-56.836-66.952l-66.94-21.937c-42.079 22.864-84.157 22.864-126.236 0l-66.94 21.937c-30.035 9.843-52 35.717-56.836 66.952l-56.68 366.081c-.219 1.416.876 2.694 2.309 2.694h74.429c1.111 0 2.068-.782 2.289-1.87l40.54-199.071v182.327h248.014v-182.328l40.54 199.071c.222 1.088 1.179 1.87 2.289 1.87h74.429c1.433.001 2.528-1.277 2.309-2.693z" fill="#f9f6f9"/><g><path d="m499.574 462.47-56.68-366.081c-4.836-31.235-26.801-57.109-56.836-66.952l-66.94-21.937c-42.079 22.864-66.228 35.864-24.15 13l66.94 21.937c30.035 9.843 52 35.717 56.836 66.952l55.084 355.775h23.436c1.434 0 2.529-1.278 2.31-2.694z" fill="#dddaec"/></g><path d="m319.118 7.5c-42.079 22.864-84.157 22.864-126.236 0l-28.854 9.456 2.534 15.535c3.458 21.203 14.376 40.543 30.744 54.458 16.367 13.914 37.212 21.577 58.695 21.577s42.328-7.663 58.695-21.578c16.368-13.914 27.286-33.254 30.743-54.456l2.534-15.536z" fill="#e28086"/><path d="m76.567 504.5h-64.558l6.154-39.336h64.559z" fill="#86a0af"/><path d="m435.433 504.5h64.558l-6.154-39.336h-64.558z" fill="#86a0af"/><path d="m493.837 465.164h-21.431l6.154 39.336h21.431z" fill="#738b95"/><path d="m366.112 479.938h-220.223c-7.674 0-13.895-6.221-13.895-13.895v-19.493h248.014v19.493c-.001 7.674-6.222 13.895-13.896 13.895z" fill="#86a0af"/><path d="m91.454 463.294 40.54-199.071c1.055-81.969-15.368-149.402-49.272-202.302-6.926 10.152-11.665 21.873-13.615 34.468l-56.681 366.081c-.219 1.416.876 2.694 2.309 2.694h74.429c1.111 0 2.068-.782 2.29-1.87z" fill="#e28086"/><path d="m420.595 463.294-40.54-199.071c-1.055-81.969 15.368-149.402 49.272-202.302 6.926 10.152 11.665 21.873 13.615 34.468l56.68 366.081c.219 1.416-.876 2.694-2.309 2.694h-74.429c-1.111 0-2.068-.782-2.289-1.87z" fill="#e28086"/><path d="m499.574 462.47-56.68-366.081c-1.948-12.58-6.678-24.288-13.591-34.431-5.798 9.05-11.073 18.536-15.848 28.438 2.469 6.025 4.266 12.388 5.289 18.994l55.084 355.775h23.436c1.434-.001 2.53-1.28 2.31-2.695z" fill="#dd636e"/><path d="m256 78.526c29.714 0 55.048-21.537 59.83-50.863l3.288-20.163c-42.079 22.864-84.157 22.864-126.236 0l3.288 20.162c4.783 29.327 30.116 50.864 59.83 50.864z" fill="#86a0af"/><path d="m254.029 78.481c.656.021 1.311.045 1.971.045 29.714 0 55.048-21.537 59.83-50.864l3.288-20.162c-11.618 6.313-23.237 10.874-34.855 13.701 2.311 21.812-4.739 36.899-30.234 57.28z" fill="#738b95"/><g><path d="m507.401 503.341-5.024-32.114c.876-.534 1.675-1.203 2.358-2 1.871-2.184 2.691-5.066 2.251-7.905l-49.246-318.068c-.635-4.094-4.469-6.886-8.56-6.265-4.094.634-6.898 4.466-6.265 8.56l48.325 312.114h-64.187l-39.502-193.983c-.899-74.438 13.09-137.26 41.596-186.984 3.038 6.5 5.198 13.495 6.335 20.84l2.791 18.026c.635 4.094 4.467 6.883 8.56 6.265 4.094-.634 6.898-4.466 6.265-8.56l-2.791-18.026c-5.297-34.206-29.02-62.151-61.912-72.931l-66.94-21.937c-1.961-.643-4.101-.449-5.917.537-40.062 21.77-79.01 21.771-119.073 0-1.815-.987-3.956-1.181-5.917-.537l-66.94 21.937c-32.894 10.779-56.617 38.725-61.914 72.931l-47.912 309.45c-.634 4.094 2.171 7.926 6.265 8.56.389.06.775.089 1.156.089 3.636 0 6.829-2.649 7.403-6.354l47.912-309.45c1.14-7.362 3.308-14.373 6.357-20.886 28.493 49.677 42.489 112.434 41.623 186.788l-39.552 194.226h-64.186l3.204-20.69c.634-4.094-2.171-7.926-6.265-8.56-4.09-.63-7.925 2.172-8.56 6.265l-4.124 26.641c-.441 2.842.379 5.725 2.25 7.908.683.797 1.482 1.467 2.358 2l-5.024 32.114c-.339 2.165.287 4.37 1.712 6.035s3.507 2.624 5.698 2.624h64.558c3.694 0 6.839-2.69 7.41-6.341l5.162-32.996h.025c4.655 0 8.708-3.311 9.639-7.873l25.69-126.155v127.407c0 11.798 9.598 21.396 21.395 21.396h153.226c4.143 0 7.5-3.357 7.5-7.5s-3.357-7.5-7.5-7.5h-153.226c-3.526 0-6.395-2.869-6.395-6.396v-11.993h233.013v11.993c0 3.526-2.868 6.396-6.395 6.396h-37.011c-4.143 0-7.5 3.357-7.5 7.5s3.357 7.5 7.5 7.5h37.011c11.797 0 21.395-9.598 21.395-21.396v-127.408l25.691 126.155c.929 4.562 4.982 7.873 9.638 7.873h.025l5.162 32.996c.571 3.65 3.716 6.341 7.41 6.341h64.558c2.191 0 4.273-.959 5.698-2.624s2.052-3.87 1.713-6.035zm-437.252-6.34h-49.375l3.808-24.337h49.375zm116.741-479.644 1.877 11.513c4.994 30.618 29.542 53.457 59.732 56.735v15.078c-17.013-1.545-33.238-8.312-46.337-19.448-15.013-12.764-25.027-30.503-28.199-49.951l-1.5-9.2zm76.61 68.248c30.192-3.277 54.739-26.117 59.733-56.735l1.877-11.514 14.426 4.728-1.501 9.201c-3.171 19.448-13.186 37.187-28.199 49.949-13.098 11.136-29.324 17.904-46.337 19.449v-15.078zm45.887-65.03-.959 5.881c-4.212 25.825-26.262 44.57-52.429 44.57-26.166 0-48.216-18.745-52.428-44.57l-.959-5.881c35.486 15.379 71.292 15.379 106.775 0zm-217.652 41.616c9.154-11.753 21.734-20.774 36.543-25.627l29.758-9.752 1.123 6.886c3.744 22.958 15.566 43.899 33.289 58.965 15.809 13.44 35.478 21.474 56.052 23.056v323.331h-109.006v-174.828c-1.454-14.379 5.824-114.802-47.759-202.031zm171.765 376.858v-323.33c20.574-1.582 40.244-9.617 56.053-23.057 17.723-15.065 29.545-36.005 33.288-58.963l1.123-6.887 29.758 9.752c14.824 4.858 27.413 13.891 36.57 25.662-37.691 61.378-47.785 131.163-47.785 201.997v174.827h-109.007zm178.351 57.952-3.808-24.337h49.375l3.808 24.337z"/><path d="m252.24 52.384h7.521c4.143 0 7.5-3.357 7.5-7.5s-3.357-7.5-7.5-7.5h-7.521c-4.143 0-7.5 3.357-7.5 7.5s3.357 7.5 7.5 7.5z"/><path d="m277.12 134.516c-4.143 0-7.5 3.357-7.5 7.5v5.715c0 4.143 3.357 7.5 7.5 7.5s7.5-3.357 7.5-7.5v-5.715c0-4.142-3.357-7.5-7.5-7.5z"/><path d="m277.12 183.234c-4.143 0-7.5 3.357-7.5 7.5v5.714c0 4.143 3.357 7.5 7.5 7.5s7.5-3.357 7.5-7.5v-5.714c0-4.143-3.357-7.5-7.5-7.5z"/><path d="m277.12 231.951c-4.143 0-7.5 3.357-7.5 7.5v5.714c0 4.143 3.357 7.5 7.5 7.5s7.5-3.357 7.5-7.5v-5.714c0-4.143-3.357-7.5-7.5-7.5z"/><path d="m277.12 280.668c-4.143 0-7.5 3.357-7.5 7.5v5.714c0 4.143 3.357 7.5 7.5 7.5s7.5-3.357 7.5-7.5v-5.714c0-4.143-3.357-7.5-7.5-7.5z"/><path d="m277.12 329.384c-4.143 0-7.5 3.357-7.5 7.5v5.715c0 4.143 3.357 7.5 7.5 7.5s7.5-3.357 7.5-7.5v-5.715c0-4.142-3.357-7.5-7.5-7.5z"/><path d="m277.12 378.101c-4.143 0-7.5 3.357-7.5 7.5v5.715c0 4.143 3.357 7.5 7.5 7.5s7.5-3.357 7.5-7.5v-5.715c0-4.142-3.357-7.5-7.5-7.5z"/><path d="m166.78 407.694c.748.235 1.506.347 2.25.347 3.189 0 6.146-2.051 7.153-5.254l14.368-45.731c1.241-3.952-.955-8.162-4.907-9.403-3.953-1.242-8.161.957-9.403 4.907l-14.368 45.731c-1.241 3.952.955 8.162 4.907 9.403z"/><path d="m335.76 352.559c-1.241-3.951-5.449-6.15-9.403-4.907-3.952 1.241-6.148 5.451-4.907 9.403l14.368 45.731c1.007 3.204 3.964 5.254 7.153 5.254.744 0 1.502-.111 2.25-.347 3.952-1.241 6.148-5.451 4.907-9.403z"/></g></g></svg>