<svg id="Capa_1" enable-background="new 0 0 511.481 511.481" height="512" viewBox="0 0 511.481 511.481" width="512" xmlns="http://www.w3.org/2000/svg"><g><path d="m8.198 242.025c2.78-23.753 10.299-47.704 22.311-71.843 1.602-3.219 6.095-3.475 8.016-.435.194.307.391.615.591.923 36.664 56.526 119.115 57.757 158.559 3.134 5.013-6.943 10.087-13.861 15.791-20.349 1.828-2.079 5.071-2.049 6.899.03 76.431 86.885 238.569 96.019 278.148 154.499 3.64 5.379 5.469 11.781 5.469 18.276 0 18.171-14.59 33.01-32.759 33.252-47.709.634-94.717-3.747-140.95-13.675-65.941-14.16-134.211-12.489-199.796 3.237-.651.156-1.301.31-1.951.463-66.439 15.592-128.261-39.733-120.328-107.512z" fill="#f9f6f9"/><g><path d="m498.512 307.983c-39.579-58.48-201.717-67.614-278.148-154.499-1.828-2.078-5.072-2.108-6.899-.03-5.704 6.488-10.777 13.407-15.791 20.349-.624.864-1.259 1.713-1.904 2.549 78.412 81.473 234.071 91.517 272.742 148.656 3.64 5.379 5.469 11.78 5.469 18.276 0 5.892-1.542 11.429-4.234 16.236.492-.005.983-.003 1.475-.01 18.169-.242 32.759-15.081 32.759-33.251 0-6.495-1.828-12.896-5.469-18.276z" fill="#dddaec"/></g><path d="m245.766 177.428v-.018c-9.186-7.282-17.731-15.207-25.402-23.926-1.828-2.078-5.071-2.108-6.898-.03-5.704 6.488-10.778 13.407-15.791 20.35-39.443 54.623-121.894 53.392-158.559-3.134-.2-.308-.397-.615-.591-.923-1.921-3.04-6.414-2.784-8.016.436-5.751 11.558-10.46 23.071-14.124 34.542 0-.001 117.656 124.978 229.381-27.297z" fill="#e28086"/><g><path d="m225.667 201.867c6.703-7.214 13.412-15.325 20.099-24.439v-.018c-9.186-7.282-17.731-15.207-25.402-23.926-1.828-2.078-5.071-2.108-6.898-.03-5.704 6.488-10.778 13.407-15.791 20.35-.624.864-1.259 1.713-1.904 2.549 9.039 9.392 19.1 17.839 29.896 25.514z" fill="#dd636e"/></g><path d="m149.488 315.462c-34.46-22.586-76.675-30.051-116.791-20.65l-14.492 3.396c19.673 38.457 63.866 62.23 110.321 51.328.649-.152 1.299-.307 1.949-.462 18.262-4.379 36.732-7.665 55.301-9.826z" fill="#e28086"/><path d="m436.531 265.719c-22.029 25.749-26.189 62.305-10.508 92.345l.277.531c14.837.81 29.745 1.113 44.722.918 18.126-.236 32.959-15.126 32.959-33.254 0-6.679-1.979-13.226-5.774-18.723-11.8-17.09-34.116-29.958-61.676-41.817z" fill="#e28086"/><path d="m498.207 307.537c-11.8-17.091-34.116-29.958-61.676-41.817-6.258 7.314-11.069 15.502-14.398 24.165 20.539 10.053 36.946 21.186 46.379 35.125 3.64 5.379 5.469 11.78 5.469 18.276 0 5.892-1.541 11.428-4.234 16.235 20.704-.238 34.233-16.036 34.233-33.26.001-6.681-1.978-13.228-5.773-18.724z" fill="#dd636e"/><path d="m504.723 303.779c-19.706-29.117-64.783-45.763-116.978-65.037-32.031-11.828-65.152-24.059-95.645-40.34-3.656-1.954-8.198-.571-10.148 3.084-1.951 3.653-.57 8.197 3.084 10.148 31.396 16.765 65.008 29.176 97.513 41.179 14.823 5.474 29.035 10.726 42.147 16.066-5.449 8.02-9.542 16.826-12.202 26.291-1.12 3.988 1.204 8.129 5.191 9.25 3.996 1.121 8.13-1.211 9.25-5.191 2.49-8.859 6.501-17.016 11.91-24.339 24.257 10.818 43.4 22.439 53.456 37.297 2.734 4.041 4.18 8.908 4.18 14.073 0 14.014-11.376 25.566-25.358 25.753-13.435.172-26.8-.078-40.073-.719-3.627-7.851-5.856-16.204-6.633-24.881-.369-4.125-3.999-7.159-8.139-6.801-4.126.369-7.171 4.013-6.801 8.139.694 7.756 2.374 15.291 4.978 22.527-28.126-2.09-55.761-6.01-82.609-11.775-46.507-9.987-95.469-12.29-144.154-6.967l-34.092-22.346c-25.804-16.914-55.717-25.839-86.568-25.839-.335 0-.67.001-1.005.003-4.142.026-7.479 3.405-7.453 7.547.026 4.126 3.379 7.453 7.499 7.453h.048c28.289-.179 55.65 7.907 79.257 23.381l19.597 12.845c-15.518 2.462-25.849 4.776-38.163 7.654-29.203 6.855-58.824-.696-81.265-20.714-6.172-5.505-11.464-11.66-15.832-18.306 4.445-1.03 4.95-1.187 7.92-1.812 4.053-.854 6.646-4.832 5.792-8.885s-4.83-6.639-8.885-5.793c-3.347.705-3.998.904-12.204 2.813-6.211-14.383-8.599-30.325-6.689-46.64.939-8.021 2.464-16.14 4.561-24.327 16.817 14.511 54.91 41.919 102.738 41.919 2.506 0 5.048-.075 7.606-.232 42.415-2.596 81.629-26.916 116.65-72.285 3.617 2.679 7.381 5.318 11.309 7.923 3.451 2.291 8.105 1.348 10.396-2.104s1.347-8.106-2.104-10.396c-5.766-3.824-11.148-7.717-16.197-11.705-.09-.076-.183-.146-.276-.217-9.174-7.27-17.222-14.859-24.333-22.943-2.304-2.618-5.625-4.12-9.111-4.119-3.467 0-6.767 1.492-9.053 4.092-5.864 6.67-11.055 13.732-16.238 20.91-17.26 23.901-45.202 37.735-74.729 36.992-30.897-.772-56.799-16.59-72-40.664-2.329-3.686-6.489-5.841-10.83-5.615-4.367.223-8.291 2.797-10.241 6.716-11.518 23.147-20.015 48.426-23.045 74.312-4.075 34.818 8.613 68.19 34.812 91.561 26.14 23.317 60.649 32.109 94.675 24.124 65.36-15.305 131.251-18.102 198.462-3.669 43.057 9.246 88.193 13.901 133.668 13.901 2.98 0 5.97-.02 8.956-.06 22.144-.295 40.159-18.576 40.159-40.751-.003-8.174-2.34-15.948-6.761-22.481zm-446.143-101.728c7.178 5.226 15.007 9.464 23.333 12.63v23.224c-8.491-3.081-16.323-6.841-23.333-10.794zm76.666 18.124c8.05-1.256 15.874-3.446 23.333-6.485v25.773c-7.666 2.648-15.447 4.416-23.333 5.316zm81.701-59.265c5.63 6.174 11.77 12.07 18.491 17.758-7.661 9.938-15.508 18.777-23.526 26.513v-37.979c1.647-2.134 3.313-4.244 5.035-6.292zm-20.035 25.769v31.54c-7.638 5.917-15.419 10.876-23.333 14.874v-26.966c8.618-5.263 16.488-11.797 23.333-19.448zm-76.666 34.74v24.02c-8.092-.213-15.898-1.317-23.333-3.057v-23.287c6.338 1.352 12.88 2.138 19.577 2.306 1.255.031 2.507.032 3.756.018zm-85.21-43.391c2.642 3.763 5.501 7.299 8.544 10.615v28.989c-8.668-6.091-15.065-11.696-18.599-14.996 2.8-8.164 6.154-16.376 10.055-24.608z"/></g></svg>