<svg id="Capa_1" enable-background="new 0 0 509.747 509.747" height="512" viewBox="0 0 509.747 509.747" width="512" xmlns="http://www.w3.org/2000/svg"><g><path d="m382.407 487.375c2.172 7.813-5.86 14.647-13.18 11.157-7.394-3.524-12.521-8.286-26.374-8.286-21.993 0-21.993 12-43.985 12-21.994 0-21.994-12-43.987-12s-21.993 12-43.986 12c-21.996 0-21.996-12-43.992-12-13.858 0-18.985 4.763-26.383 8.288-7.321 3.488-15.352-3.345-13.18-11.158 36.812-132.402-4.9-232.877 15.602-276.995 1.765-3.799 1.631-8.215-.436-11.858-20.37-35.905-50.784 6.575-77.383-11.662-6.118-4.195-8.823-11.876-6.937-19.051l31.094-118.302c4.361-16.591 17.29-29.566 33.866-33.985l28.509-7.6c5.789-1.543 11.843 1.342 14.29 6.811l25.161 56.223c1.87 4.178 6.02 6.868 10.598 6.868h106.337c4.578 0 8.728-2.69 10.598-6.868l25.161-56.223c2.447-5.469 8.501-8.354 14.29-6.811l28.509 7.6c16.576 4.419 29.505 17.393 33.866 33.984l31.095 118.302c1.886 7.175-.819 14.856-6.937 19.051-26.599 18.237-57.013-24.242-77.383 11.662-2.067 3.644-2.201 8.059-.436 11.858 20.503 44.12-21.208 144.593 15.603 276.995z" fill="#eab14d"/><g fill="#e49542"><path d="m139.511 490.246c-5.116 0-9.037.652-12.327 1.648 1.192 5.624 7.487 9.426 13.335 6.64 4.277-2.038 7.804-4.484 12.689-6.19-3.565-1.245-7.85-2.098-13.697-2.098z"/><path d="m315.462 490.246c-16.146 0-20.446 6.464-30.29 9.903 3.564 1.245 7.849 2.097 13.696 2.097 16.145 0 20.445-6.463 30.288-9.902-3.565-1.244-7.848-2.098-13.694-2.098z"/><path d="m366.805 210.381c-1.765-3.799-23.745 9.981-22.802 15.891 7.956 49.875-21.898 142.728 11.013 261.102.437 1.572.455 3.102.155 4.518 5.622 1.702 9.39 4.416 14.055 6.639 7.32 3.489 15.353-3.344 13.18-11.157-36.81-132.401 4.901-232.874-15.601-276.993z"/><path d="m451.561 167.81-31.095-118.302c-4.361-16.591-17.29-29.566-33.866-33.984l-28.509-7.6c-5.789-1.543-11.843 1.342-14.29 6.811l-4.076 9.108 23.188 6.181c16.576 4.419 29.505 17.393 33.866 33.984l27.39 103.802c1.886 7.175-.819 14.856-6.937 19.051-1.229.843-2.467 1.554-3.711 2.152 10.413 2.953 21.031 4.754 31.102-2.152 6.12-4.195 8.824-11.877 6.938-19.051z"/><path d="m227.489 490.246c-16.147 0-20.447 6.464-30.292 9.903 3.565 1.245 7.85 2.097 13.696 2.097 16.147 0 20.447-6.464 30.291-9.903-3.564-1.244-7.849-2.097-13.695-2.097z"/></g><path d="m342.809 102.635c-3.235 7.228-12.526 9.31-18.519 4.135-3.452-2.981-6.926-5.945-13.831-5.945-13.895 0-13.895 12-27.79 12s-13.895-12-27.79-12c-13.896 0-13.896 12-27.791 12-13.897 0-13.897-12-27.795-12-6.908 0-10.382 2.965-13.836 5.947-5.993 5.175-15.284 3.092-18.518-4.135l-39.497-88.258 24.214-6.455c5.789-1.543 11.843 1.342 14.29 6.811l25.161 56.223c1.87 4.178 6.02 6.868 10.598 6.868h106.337c4.578 0 8.728-2.69 10.598-6.868l25.161-56.223c2.447-5.469 8.501-8.354 14.29-6.811l24.213 6.455z" fill="#ffe07d"/><path d="m339.725 23.842 23.188 6.181c3.707.988 7.217 2.425 10.504 4.214l8.887-19.859-24.213-6.455c-5.754-1.534-11.828 1.308-14.29 6.811z" fill="#ffd064"/><path d="m136.965 250.098c.107 8.662.675 18.119 1.43 28.327 77.651 22.644 155.304 22.645 232.958.003.755-10.208 1.323-19.665 1.43-28.327-78.608 23.201-157.214 23.201-235.818-.003z" fill="#86a0af"/><path d="m371.352 278.428c.571-8.312 1.302-17.945 1.43-28.327-9.191 2.713-18.381 5.095-27.572 7.173-.323 8.728-1.003 18.182-1.795 28.313 9.312-2.063 18.625-4.444 27.937-7.159z" fill="#738b95"/><path d="m458.815 165.903-31.094-118.301c-5.035-19.155-20.051-34.225-39.188-39.326l-28.509-7.6c-9.392-2.505-19.096 2.12-23.068 10.994l-25.16 56.223c-.661 1.478-2.134 2.432-3.753 2.432h-106.338c-1.618 0-3.092-.954-3.753-2.432l-25.161-56.223c-3.971-8.873-13.671-13.495-23.067-10.993l-28.509 7.6c-19.137 5.102-34.153 20.171-39.188 39.326l-31.095 118.3c-2.707 10.299 1.292 21.207 9.95 27.144 14.714 10.089 30.224 5.391 42.686 1.612 16.207-4.911 24.355-6.641 32.415 7.564.854 1.505.912 3.373.157 4.997-10.367 22.311-6.056 61.669-4.097 86.303 2.771 34.845 6.22 78.21.664 126.922-.469 4.115 2.487 7.832 6.603 8.302 4.113.463 7.832-2.486 8.302-6.603 5.483-48.085 2.652-88.527-.92-133.639 35.923 9.542 72.049 14.329 108.185 14.329 36.125 0 72.258-4.787 108.177-14.326-5.222 65.907-8.348 127.227 12.129 200.875.286 1.03-.204 1.708-.665 2.096-.638.536-1.334.631-2.062.282-1.34-.638-2.64-1.348-4.016-2.099-5.941-3.241-12.676-6.916-25.586-6.916s-19.644 3.675-25.586 6.916c-5.205 2.841-9.316 5.084-18.399 5.084-9.084 0-13.196-2.243-18.402-5.084-5.941-3.241-12.676-6.916-25.585-6.916s-19.644 3.675-25.585 6.916c-5.206 2.841-9.317 5.084-18.401 5.084-9.085 0-13.197-2.243-18.404-5.084-5.942-3.241-12.677-6.916-25.588-6.916-12.91 0-19.645 3.674-25.587 6.915-1.378.752-2.68 1.462-4.022 2.102-.73.349-1.425.252-2.063-.283-.461-.387-.95-1.064-.664-2.095 3.349-12.044 6.206-24.404 8.493-36.736.756-4.072-1.934-7.986-6.006-8.741-4.074-.753-7.987 1.935-8.742 6.007-2.208 11.901-4.965 23.83-8.196 35.453-1.809 6.503.287 13.247 5.468 17.599 5.151 4.326 12.112 5.224 18.163 2.338 1.713-.815 3.259-1.659 4.754-2.475 5.206-2.84 9.318-5.083 18.403-5.083s13.197 2.243 18.404 5.084c5.942 3.242 12.677 6.916 25.588 6.916 12.909 0 19.644-3.675 25.585-6.916 5.206-2.841 9.317-5.084 18.401-5.084s13.195 2.243 18.401 5.084c5.941 3.241 12.676 6.916 25.586 6.916 12.909 0 19.644-3.675 25.584-6.916 5.206-2.841 9.317-5.084 18.401-5.084s13.196 2.243 18.401 5.084c1.492.814 3.036 1.656 4.746 2.472 6.051 2.885 13.012 1.99 18.164-2.337 5.182-4.352 7.277-11.096 5.469-17.6-21.144-76.051-16.035-140.256-11.931-191.846 1.956-24.582 6.275-63.984-4.095-86.299-.755-1.625-.696-3.493.157-4.997 8.059-14.206 16.206-12.478 32.415-7.565 12.462 3.777 27.974 8.477 42.686-1.612 8.656-5.937 12.655-16.845 9.948-27.144zm-18.432 14.773c-8.776 6.015-18.544 3.054-29.854-.372-9.054-2.743-20.132-6.088-30.647-2.722 1.254-14.8-1.878-25.859-2.028-26.38-1.15-3.969-5.289-6.246-9.265-5.108-3.972 1.137-6.272 5.286-5.148 9.263.524 1.856 12.346 45.756-31.926 69.878-3.637 1.982-4.979 6.537-2.997 10.175 1.361 2.497 3.936 3.912 6.593 3.912 1.212 0 2.442-.294 3.582-.915 10.108-5.507 17.782-11.916 23.61-18.624 1.999 6.904 2.846 15.184 2.978 24.669-31.269 8.793-62.925 13.908-94.183 15.202-4.138.171-7.354 3.665-7.183 7.804.166 4.032 3.488 7.189 7.487 7.189.105 0 .21-.002.316-.007 30.966-1.281 62.288-6.18 93.258-14.552-.183 4.029-.435 8.216-.732 12.553-72.608 20.228-146.145 20.227-218.746-.003-.297-4.337-.548-8.524-.731-12.553 32.016 8.656 64.395 13.597 96.4 14.676.087.003.172.004.258.004 4.025 0 7.354-3.194 7.491-7.247.139-4.141-3.104-7.609-7.243-7.749-32.258-1.086-64.932-6.242-97.208-15.32.133-9.484.979-17.763 2.978-24.666 5.828 6.708 13.502 13.117 23.61 18.624 1.141.621 2.369.916 3.582.915 2.657 0 5.231-1.415 6.593-3.912 1.981-3.638.64-8.193-2.997-10.175-44.268-24.119-32.453-68.011-31.926-69.878 1.138-3.971-1.15-8.117-5.121-9.269-3.973-1.151-8.139 1.134-9.292 5.114-.151.52-3.282 11.579-2.028 26.378-10.514-3.365-21.592-.02-30.647 2.723-11.309 3.428-21.077 6.39-29.853.372-3.449-2.365-5.026-6.77-3.925-10.96l31.095-118.3c3.503-13.327 13.647-23.922 26.696-28.085l36.862 82.37c2.522 5.636 7.426 9.638 13.454 10.979 6.015 1.338 12.146-.203 16.812-4.229 3.08-2.659 4.776-4.124 8.935-4.124s5.877 1.483 8.996 4.177c3.823 3.302 9.061 7.823 18.799 7.823s14.975-4.521 18.798-7.823c3.118-2.693 4.836-4.177 8.993-4.177s5.874 1.483 8.992 4.176c3.823 3.302 9.06 7.824 18.798 7.824 9.737 0 14.974-4.521 18.797-7.823 3.118-2.693 4.836-4.177 8.993-4.177s5.852 1.464 8.928 4.12c4.665 4.028 10.795 5.568 16.812 4.232 6.029-1.341 10.934-5.343 13.456-10.979l16.16-36.11c1.692-3.78-.001-8.217-3.782-9.909-3.779-1.692-8.217 0-9.909 3.782l-16.16 36.11c-.775 1.731-2.226 2.287-3.021 2.464-.789.175-2.328.287-3.751-.941-3.796-3.278-8.995-7.769-18.732-7.769-9.738 0-14.975 4.522-18.798 7.824-3.118 2.692-4.835 4.176-8.992 4.176s-5.875-1.483-8.993-4.177c-3.823-3.302-9.06-7.823-18.797-7.823-9.738 0-14.975 4.521-18.798 7.823-3.118 2.693-4.836 4.177-8.993 4.177-4.159 0-5.877-1.483-8.996-4.177-3.823-3.302-9.061-7.823-18.799-7.823s-14.939 4.491-18.737 7.771c-1.423 1.228-2.962 1.116-3.751.941-.796-.177-2.246-.732-3.021-2.464l-35.899-80.217 15.701-4.186c2.245-.6 4.563.507 5.513 2.627l25.161 56.223c3.073 6.867 9.921 11.305 17.444 11.305h106.337c7.523 0 14.371-4.438 17.444-11.305l25.16-56.222c.949-2.12 3.268-3.228 5.514-2.628l15.701 4.185-7.466 16.684c-1.692 3.78.001 8.218 3.782 9.909.995.445 2.035.656 3.06.656 2.866 0 5.604-1.652 6.85-4.438l8.43-18.837c13.05 4.162 23.194 14.758 26.697 28.085l31.095 118.301c1.1 4.19-.477 8.594-3.926 10.96z"/></g></svg>