<svg id="Capa_1" enable-background="new 0 0 512 512" height="512" viewBox="0 0 512 512" width="512" xmlns="http://www.w3.org/2000/svg"><g><path d="m326.681 160.302c6.946-10.069 12.925-20.428 17.839-31.107 4.622-10.043 5.602-21.383 2.772-32.071l-22.779-86.016c-.563-2.127-2.488-3.608-4.688-3.608h-17.676c-2.918 0-5.175 2.558-4.812 5.453l7.316 58.33c-17.658-.441-32.237 6.218-44.026 19.306-2.47 2.742-6.784 2.742-9.254 0-11.789-13.088-26.368-19.747-44.026-19.306l7.316-58.33c.363-2.895-1.894-5.453-4.812-5.453h-17.676c-2.2 0-4.125 1.481-4.688 3.608l-22.779 86.016c-2.83 10.687-1.85 22.027 2.772 32.071 4.914 10.679 10.894 21.038 17.839 31.107 11.769 17.061 13.982 38.955 6.28 58.198-2.746 6.86-5.833 13.797-9.22 20.801-4.439 9.178-7.171 19.1-8.03 29.259-6.046 71.529-5.5 148.178.978 229.434.293 3.672 3.369 6.506 7.053 6.506h34.482c3.521 0 6.506-2.591 7-6.078l26.74-188.748c.886-6.251 9.913-6.251 10.798 0l26.74 188.748c.494 3.486 3.478 6.078 7 6.078h34.483c3.684 0 6.76-2.833 7.053-6.506 6.478-81.257 7.024-157.905.978-229.434-.859-10.159-3.591-20.081-8.03-29.259-3.388-7.004-6.474-13.941-9.22-20.801-7.705-19.243-5.492-41.137 6.277-58.198z" fill="#dd636e"/><g><path d="m344.52 129.195c4.622-10.043 5.602-21.383 2.772-32.071l-22.779-86.016c-.563-2.127-2.488-3.608-4.688-3.608h-17.676c-.953 0-1.833.277-2.577.745 1.022.637 1.808 1.636 2.133 2.863l22.779 86.016c2.83 10.688 1.85 22.027-2.772 32.071-4.914 10.679-10.894 21.038-17.839 31.107-11.769 17.062-13.982 38.955-6.28 58.198 2.746 6.86 5.833 13.797 9.22 20.801 4.439 9.178 7.171 19.1 8.03 29.259 6.046 71.529 5.5 148.178-.978 229.434-.293 3.672-3.369 6.506-7.052 6.506h-11.675.001 34.483c3.684 0 6.76-2.833 7.052-6.506 6.479-81.257 7.024-157.905.978-229.434-.859-10.159-3.591-20.081-8.03-29.259-3.388-7.004-6.474-13.941-9.22-20.801-7.703-19.242-5.489-41.136 6.28-58.198 6.945-10.069 12.924-20.428 17.838-31.107z" fill="#da4a54"/></g><path d="m191.905 217.698h128.19c-3.937-10.236-5.09-21.184-3.514-31.737h-121.162c1.576 10.553.423 21.502-3.514 31.737z" fill="#f4c3c6"/><path d="m316.581 185.962h-22.808c-1.576 10.553-.423 21.501 3.514 31.737h22.808c-3.937-10.236-5.091-21.185-3.514-31.737z" fill="#eab1b7"/><path d="m351.334 132.33c5.338-11.599 6.478-24.783 3.209-37.126l-9.387-35.444c-1.061-4.005-5.166-6.395-9.17-5.33-4.004 1.061-6.391 5.166-5.33 9.17l9.387 35.444c2.378 8.981 1.549 18.575-2.336 27.016-4.63 10.062-10.417 20.15-17.199 29.983-4.76 6.899-8.135 14.499-10.101 22.419h-62.222c-4.143 0-7.5 3.357-7.5 7.5s3.357 7.5 7.5 7.5h60.208c-.132 5.577.408 11.195 1.631 16.736h-15.357c-.004 0-.008 0-.013 0h-77.317c-.003 0-.005 0-.008 0h-15.355c1.224-5.541 1.764-11.159 1.632-16.736h14.591c4.143 0 7.5-3.357 7.5-7.5s-3.357-7.5-7.5-7.5h-16.605c-1.966-7.92-5.341-15.519-10.1-22.419-6.781-9.832-12.568-19.92-17.2-29.983-3.884-8.44-4.713-18.035-2.335-27.016l22.257-84.044h12.633l-6.942 55.35c-.272 2.168.414 4.346 1.88 5.966 1.424 1.573 3.445 2.468 5.562 2.468.062 0 .125-.001.187-.002 15.217-.395 27.726 5.125 38.268 16.829 2.598 2.882 6.314 4.535 10.199 4.535s7.602-1.653 10.2-4.536c10.54-11.703 23.092-17.206 38.266-16.828 2.219.023 4.283-.846 5.749-2.466s2.152-3.798 1.88-5.966l-6.943-55.35h12.633l5.186 19.583c1.061 4.005 5.162 6.392 9.17 5.33 4.004-1.061 6.391-5.166 5.33-9.17l-5.708-21.557c-1.433-5.409-6.344-9.186-11.939-9.186h-17.676c-3.542 0-6.917 1.523-9.26 4.179-2.344 2.655-3.435 6.193-2.993 9.708l6.297 50.209c-15.462 1.538-28.947 8.391-40.193 20.443-11.246-12.053-24.731-18.906-40.193-20.443l6.298-50.209c.441-3.514-.649-7.053-2.993-9.708-2.344-2.656-5.72-4.179-9.261-4.179h-17.677c-5.598 0-10.507 3.779-11.938 9.188l-22.779 86.017c-3.269 12.342-2.129 25.526 3.208 37.126 4.992 10.846 11.209 21.689 18.479 32.23 10.289 14.916 12.342 34.038 5.49 51.152-2.611 6.524-5.643 13.362-9.01 20.322-4.869 10.068-7.813 20.799-8.751 31.893-4.231 50.069-5.295 104.098-3.16 160.586.153 4.043 3.479 7.217 7.49 7.217.096 0 .192-.002.288-.006 4.14-.156 7.368-3.639 7.212-7.777-2.113-55.88-1.064-109.294 3.117-158.756.782-9.258 3.24-18.216 7.308-26.625 2.855-5.903 5.468-11.721 7.823-17.368h12.6c-.585 5-2.276 11.701-6.935 16.359-2.929 2.93-2.929 7.678 0 10.607 1.465 1.464 3.385 2.196 5.304 2.196s3.839-.732 5.304-2.196c8.266-8.266 10.732-19.447 11.395-26.967h5.928c-.224 3.856-1.012 7.647-2.586 9.178-2.969 2.889-3.033 7.637-.146 10.606 1.471 1.511 3.423 2.27 5.377 2.27 1.885 0 3.771-.706 5.229-2.124 5.43-5.283 6.921-13.576 7.172-19.93h20.851c.021.538.049 1.087.089 1.65.578 8.145 2.948 14.295 7.044 18.279 1.458 1.418 3.344 2.124 5.229 2.124 1.954 0 3.907-.759 5.377-2.271 2.889-2.969 2.822-7.717-.146-10.605-1.574-1.531-2.362-5.322-2.586-9.178h5.928c.663 7.52 3.129 18.701 11.395 26.967 1.465 1.464 3.385 2.196 5.304 2.196s3.839-.732 5.304-2.196c2.929-2.93 2.929-7.678 0-10.607-4.667-4.666-6.356-11.359-6.938-16.359h12.603c2.358 5.655 4.972 11.473 7.823 17.368 4.067 8.408 6.526 17.366 7.309 26.625 5.868 69.424 5.548 146.072-.949 227.809h-33.717l-26.688-188.378c-.914-6.453-6.309-11.137-12.826-11.137-6.517.001-11.91 4.685-12.823 11.137l-26.688 188.378h-33.718c-1.014-12.756-1.907-25.955-2.657-39.236-.234-4.136-3.798-7.287-7.911-7.065-4.136.233-7.299 3.775-7.065 7.911.765 13.534 1.677 26.986 2.713 39.981.601 7.52 6.982 13.409 14.529 13.409h34.482c7.212 0 13.414-5.385 14.426-12.526l24.714-174.44 24.713 174.439c1.01 7.142 7.212 12.527 14.425 12.527h34.482c7.547 0 13.929-5.89 14.529-13.41 6.594-82.703 6.922-160.309.976-230.662-.938-11.095-3.883-21.825-8.752-31.893-3.361-6.949-6.393-13.787-9.01-20.322-6.851-17.115-4.798-36.237 5.491-51.152 7.271-10.542 13.488-21.387 18.479-32.231z"/></g></svg>