<svg id="Capa_1" enable-background="new 0 0 511 511" height="512" viewBox="0 0 511 511" width="512" xmlns="http://www.w3.org/2000/svg"><g><path d="m372.353 338.638 60.229-12.579c13.186-2.754 21.44-15.915 18.179-28.984l-60.98-235.31c-4.112-15.869-15.202-29.014-30.152-35.74l-41.17-18.525c-41.97 43.407-83.941 43.407-125.911 0l-41.171 18.524c-14.949 6.726-26.04 19.872-30.152 35.74l-60.98 235.31c-3.262 13.069 4.993 26.231 18.179 28.985l60.229 12.579-9.456 35.578c-3.687 13.87 5.683 27.814 19.918 29.642l58.893 7.563-8.038 42.424c-2.77 14.621 8.442 28.157 23.323 28.157h64.421c14.882 0 26.093-13.535 23.323-28.157l-8.038-42.424 58.893-7.563c14.235-1.828 23.605-15.772 19.918-29.642z" fill="#eab14d"/><g><path d="m450.761 297.074-60.979-235.31c-4.112-15.869-15.203-29.014-30.152-35.741l-41.171-18.523c-4.503 4.657-9.005 8.81-13.508 12.468l31.241 14.056c14.949 6.727 26.04 19.872 30.152 35.741l60.979 235.31c2.237 8.963-.944 17.969-7.417 23.632l12.676-2.647c13.186-2.755 21.44-15.916 18.179-28.986z" fill="#e49542"/></g><path d="m346.12 19.946-27.661-12.446c-41.97 43.407-83.941 43.407-125.911 0l-27.661 12.445c28.401 29.199 58.881 53.626 90.617 53.626 31.736.001 62.215-24.428 90.616-53.625z" fill="#dd636e"/><g><path d="m333.211 32.683c4.347-4.096 8.652-8.361 12.908-12.737l-27.66-12.446c-4.502 4.657-9.005 8.81-13.508 12.468z" fill="#da4a54"/></g><g fill="#dd636e"><path d="m146.475 299.286c-13.476-3.557-11.434-11.292-24.91-14.849s-15.518 4.178-28.993.621c-13.474-3.557-11.432-11.292-24.906-14.848l6.607-29.077c13.474 3.557 11.432 11.292 24.906 14.848 13.476 3.557 15.518-4.178 28.993-.621 13.476 3.557 11.434 11.292 24.91 14.849z"/><path d="m212.005 377.13c-12.93-2.702-11.293-10.533-24.223-13.235s-14.566 5.129-27.496 2.426c-12.928-2.702-11.291-10.533-24.219-13.234l6.368-32.194c12.928 2.702 11.291 10.533 24.219 13.234 12.93 2.702 14.566-5.129 27.496-2.426 12.93 2.702 11.293 10.533 24.223 13.235z"/><path d="m364.531 299.286c13.476-3.557 11.434-11.292 24.91-14.849s15.518 4.178 28.993.621c13.474-3.557 11.432-11.292 24.906-14.848l-6.607-29.077c-13.474 3.557-11.432 11.292-24.906 14.848-13.476 3.557-15.518-4.178-28.993-.621-13.476 3.557-11.434 11.292-24.91 14.849z"/></g><path d="m421.849 283.95c9.812-3.867 9.284-10.519 21.491-13.741l-6.607-29.077c-12.546 3.312-11.646 10.244-22.338 14.055z" fill="#da4a54"/><path d="m299.001 377.13c12.93-2.702 11.293-10.533 24.223-13.235s14.566 5.129 27.496 2.426c12.928-2.702 11.291-10.533 24.219-13.234l-6.368-32.194c-12.928 2.702-11.291 10.533-24.219 13.234-12.93 2.702-14.566-5.129-27.496-2.426-12.93 2.702-11.293 10.533-24.223 13.235z" fill="#dd636e"/><path d="m307.79 436.708c-17.177 0-18.65-8-35.827-8s-17.177 8-34.354 8c-17.175 0-15.702-8-32.876-8l5.658-32.302c15.248 0 14.613 8 29.861 8 15.25 0 15.25-8 30.5-8s15.885 8 31.135 8z" fill="#dd636e"/><path d="m458.02 295.193-60.979-235.311c-4.707-18.164-17.222-32.998-34.334-40.698l-41.171-18.523c-2.884-1.297-6.271-.647-8.469 1.627-19.42 20.084-38.787 30.268-57.563 30.268s-38.145-10.184-57.564-30.269c-2.199-2.273-5.587-2.923-8.469-1.626l-41.171 18.523c-17.112 7.7-29.627 22.534-34.334 40.698l-30.129 116.258c-1.039 4.01 1.368 8.103 5.378 9.142 4.016 1.047 8.104-1.37 9.142-5.378l30.128-116.258c3.561-13.739 13.026-24.959 25.969-30.782l8.747-3.936c24.864 25.058 57.173 52.144 92.303 52.144 14.224 0 28.604-4.259 43.962-13.021 3.599-2.053 4.852-6.633 2.799-10.23-2.053-3.599-6.635-4.852-10.23-2.799-13.034 7.436-24.983 11.05-36.53 11.05-27.988 0-55.515-21.977-77.661-43.731l13.051-5.872c21.176 20.633 42.892 31.087 64.609 31.087s43.434-10.454 64.608-31.087l13.038 5.866c-6.118 5.99-11.865 11.231-17.396 15.854-3.179 2.656-3.602 7.387-.945 10.564 1.483 1.775 3.613 2.69 5.759 2.69 1.696 0 3.402-.572 4.806-1.745 7.083-5.919 14.454-12.746 22.431-20.771l8.748 3.936c12.942 5.823 22.408 17.043 25.969 30.782l44.854 173.083c-3.865 2.05-6.292 4.444-8.365 6.492-2.586 2.553-4.293 4.24-9.097 5.508-4.804 1.27-7.123.644-10.633-.301-4.316-1.162-9.689-2.607-18.36-.32-10.628 2.805-14.176 8.049-17.827 11.256l-9.639-45.134c-.865-4.051-4.854-6.634-8.901-5.769-4.051.865-6.633 4.851-5.769 8.901l21.045 98.547c-3.904 1.845-6.372 4.145-8.484 6.116-2.478 2.311-4.114 3.838-8.528 4.76-4.416.924-6.527.181-9.723-.946-4.126-1.452-9.259-3.261-17.773-1.48-9.156 1.914-12.55 5.737-17.01 9.683l-4.658-29.352c-.648-4.091-4.488-6.884-8.583-6.231-4.091.649-6.881 4.492-6.231 8.583l13.993 88.166c-5.073-2.169-10.343-6.303-22.081-6.303-9.473 0-14.608 2.693-18.734 4.858-3.477 1.824-5.988 3.142-11.766 3.142-5.705 0-8.063-1.291-11.328-3.078-2.573-1.409-5.559-3.036-9.891-4.021l13.136-82.764c.649-4.091-2.141-7.934-6.231-8.583-4.093-.655-7.935 2.141-8.583 6.231l-4.659 29.352c-3.787-3.348-7.378-7.669-17.01-9.683-8.517-1.781-13.647.028-17.773 1.48-3.195 1.125-5.305 1.867-9.723.946-4.414-.922-6.051-2.449-8.528-4.76-2.113-1.971-4.581-4.271-8.484-6.116l21.046-98.547c.865-4.051-1.718-8.036-5.769-8.901-4.05-.86-8.036 1.717-8.901 5.769l-9.639 45.135c-3.665-3.219-7.204-8.453-17.827-11.257-8.67-2.286-14.043-.841-18.36.32-3.508.946-5.824 1.571-10.633.301-4.803-1.268-6.511-2.955-9.097-5.508-2.076-2.051-4.502-4.443-8.365-6.492l7.185-27.725c1.039-4.01-1.369-8.103-5.378-9.142-4.014-1.045-8.104 1.37-9.142 5.378l-23.327 90.018c-2.076 8.318-.711 16.899 3.844 24.162.861 1.374 1.816 2.664 2.853 3.867v16.351c0 4.143 3.357 7.5 7.5 7.5s7.5-3.357 7.5-7.5v-6.795c2.098.597 2.48.582 8.808 1.933v14.179c0 4.143 3.357 7.5 7.5 7.5s7.5-3.357 7.5-7.5v-11.046l8.035 1.678v13.139c0 4.143 3.357 7.5 7.5 7.5s7.5-3.357 7.5-7.5v-10.005l7.862 1.642-7.423 27.928c-2.312 8.699-.759 17.975 4.261 25.445 5.021 7.473 13.021 12.415 21.95 13.562l2.769.355v12.562c0 4.143 3.357 7.5 7.5 7.5s7.5-3.357 7.5-7.5v-10.636l8.808 1.131v14.821c0 4.143 3.357 7.5 7.5 7.5s7.5-3.357 7.5-7.5v-12.895l9.288 1.193-1.674 9.559-4.749 25.061c-1.737 9.171.681 18.553 6.635 25.741 2.704 3.265 5.993 5.89 9.648 7.791v17.52c0 4.143 3.357 7.5 7.5 7.5s7.5-3.357 7.5-7.5v-13.999h11.08v13.999c0 4.143 3.357 7.5 7.5 7.5s7.5-3.357 7.5-7.5v-13.999h11.079v13.999c0 4.143 3.357 7.5 7.5 7.5s7.5-3.357 7.5-7.5v-13.999h11.08v13.999c0 4.143 3.357 7.5 7.5 7.5s7.5-3.357 7.5-7.5v-17.52c3.655-1.901 6.944-4.525 9.648-7.791 5.954-7.188 8.372-16.57 6.635-25.741l-3.239-17.093-3.203-17.524 9.307-1.195v12.895c0 4.143 3.357 7.5 7.5 7.5s7.5-3.357 7.5-7.5v-14.821l8.808-1.131v10.636c0 4.143 3.357 7.5 7.5 7.5s7.5-3.357 7.5-7.5v-12.562l2.769-.355c8.929-1.146 16.929-6.089 21.95-13.562 5.021-7.471 6.573-16.746 4.261-25.445l-7.423-27.928 7.861-1.642v10.006c0 4.143 3.357 7.5 7.5 7.5s7.5-3.357 7.5-7.5v-13.139l8.036-1.678v11.046c0 4.143 3.357 7.5 7.5 7.5s7.5-3.357 7.5-7.5v-14.179c6.326-1.351 6.696-1.333 8.807-1.933v6.795c0 4.143 3.357 7.5 7.5 7.5s7.5-3.357 7.5-7.5v-16.35c1.037-1.203 1.992-2.494 2.854-3.868 4.552-7.263 5.917-15.844 3.824-24.228zm-139.63 43.849c4.415-.926 6.526-.181 9.723.946 4.125 1.451 9.255 3.257 17.773 1.48 9.591-2.005 12.938-6.174 17.283-9.922 3.771 17.583.579 2.934 3.843 16.192-4.373 1.898-7.036 4.37-9.298 6.48-2.566 2.394-4.114 3.838-8.528 4.76-4.417.923-6.526.18-9.724-.945-4.124-1.451-9.259-3.255-17.772-1.48-8.515 1.78-12.494 5.492-15.692 8.475-.861.803-1.621 1.509-2.43 2.13l-2.699-17.005c9.171-4.109 9.142-9.361 17.521-11.111zm-78.139 72.863c9.473 0 14.608-2.694 18.734-4.858 3.477-1.824 5.988-3.142 11.766-3.142 5.843 0 8.507 1.342 12.194 3.198 3.156 1.59 6.892 3.465 12.461 4.326 4.246 22.694 2.781 14.867 3.098 16.56-1.965-.586-3.729-1.34-5.671-2.174-5.034-2.159-10.741-4.607-20.87-4.607-10.249 0-15.611 2.498-20.343 4.701-3.958 1.843-7.084 3.299-14.012 3.299-6.787 0-9.407-1.335-13.033-3.183-2.792-1.422-6.041-3.074-10.938-4.027 3.582-18.967.494-2.505 3.032-17.312 5.915 1.762 9.929 7.219 23.582 7.219zm-75.131-70.436c8.515 1.778 13.647-.029 17.773-1.48 3.194-1.126 5.303-1.871 9.723-.946 4.415.922 6.052 2.449 8.53 4.761 2.21 2.061 4.795 4.47 8.991 6.35l-2.699 17.004c-3.759-2.886-7.242-8.329-18.122-10.604-8.516-1.781-13.648.026-17.772 1.48-3.197 1.126-5.308 1.871-9.724.945-4.414-.922-5.962-2.366-8.528-4.76-2.262-2.11-4.924-4.582-9.298-6.48 4.075-15.386.458-1.533 3.843-16.192 3.615 3.117 7.285 7.831 17.283 9.922zm-67.856-78.236c8.673 2.289 14.045.843 18.361-.32 3.509-.943 5.828-1.569 10.632-.301s6.513 2.955 9.099 5.51c2.232 2.204 4.854 4.783 9.209 6.918l-2.924 13.69c-3.768-3.164-7.205-8.653-18.162-11.545-8.67-2.288-14.043-.843-18.36.32-3.509.944-5.827 1.571-10.633.301-4.803-1.268-6.511-2.954-9.096-5.508-2.228-2.2-4.844-4.775-9.186-6.909l3.431-13.24c3.656 3.286 7.217 8.335 17.629 11.084zm-17.307 55.484c-4.362-.911-8.068-3.491-10.436-7.267-2.368-3.775-3.078-8.236-2.016-12.494l4.763-18.38c3.912 3.179 7.233 8.788 18.389 11.733 8.672 2.288 14.043.842 18.36-.32 3.509-.943 5.828-1.57 10.633-.301 4.804 1.268 6.513 2.955 9.099 5.509 2.292 2.264 4.998 4.923 9.569 7.091l-5.442 25.481zm70.112 77.702c-4.641-.597-8.8-3.166-11.409-7.05-2.61-3.884-3.417-8.705-2.216-13.227l3.593-13.518c1.044.719 1.956 1.568 3.023 2.563 3.198 2.983 7.178 6.695 15.691 8.475 8.514 1.776 13.647-.027 17.772-1.48 3.197-1.125 5.31-1.866 9.724-.945 4.415.922 6.052 2.449 8.53 4.761 2.409 2.248 5.266 4.909 10.171 6.846-.341 2.065 1.235-7.481-3.335 20.196zm150.15 72.202c-3.096 3.736-7.653 5.88-12.506 5.88h-64.421c-4.853 0-9.41-2.144-12.506-5.88-3.095-3.736-4.352-8.613-3.448-13.38l3.509-18.521c2.762.552 4.642 1.509 6.918 2.669 4.212 2.146 9.455 4.817 19.843 4.817 10.25 0 15.612-2.498 20.344-4.701 3.958-1.843 7.083-3.299 14.011-3.299 7.048 0 10.538 1.497 14.957 3.393 3.885 1.667 8.18 3.5 14.59 4.252l2.158 11.389c.903 4.768-.354 9.645-3.449 13.381zm72.127-79.251c-2.609 3.884-6.769 6.453-11.409 7.05l-51.672 6.636-3.208-20.212c4.905-1.937 7.761-4.598 10.171-6.846 2.479-2.312 4.115-3.839 8.53-4.761 4.414-.925 6.525-.181 9.724.945 4.125 1.453 9.262 3.257 17.772 1.48 8.514-1.779 12.494-5.491 15.691-8.475 1.067-.995 1.979-1.844 3.023-2.563l3.593 13.518c1.202 4.522.396 9.344-2.215 13.228zm58.703-70.653-52.921 11.053-5.442-25.481c4.571-2.167 7.278-4.825 9.571-7.087 2.008-1.981 3.459-3.412 6.245-4.563 3.827-1.582 5.648-5.969 4.066-9.797-1.582-3.827-5.964-5.646-9.797-4.066-7.292 3.014-10.287 7.34-13.408 9.959l-2.924-13.694c4.355-2.135 6.977-4.715 9.208-6.918 2.586-2.555 4.295-4.241 9.1-5.51 4.805-1.27 7.123-.644 10.632.301 4.319 1.163 9.692 2.607 18.361.32 10.122-2.672 13.483-7.355 17.629-11.084l3.431 13.24c-4.343 2.133-6.959 4.709-9.186 6.909-2.585 2.554-4.293 4.24-9.091 5.507-.727.191-1.428.343-2.145.464-4.085.688-6.839 4.556-6.15 8.641.616 3.663 3.791 6.256 7.387 6.256.413 0 .832-.034 1.254-.105 1.167-.196 2.303-.441 3.478-.75 11.163-2.947 14.508-8.58 18.39-11.733l4.746 18.314c1.079 4.323.369 8.784-1.999 12.56-2.366 3.773-6.072 6.353-10.435 7.264z"/></g></svg>