<svg id="Capa_1" enable-background="new 0 0 512 512" height="512" viewBox="0 0 512 512" width="512" xmlns="http://www.w3.org/2000/svg"><g><path d="m477.559 466.268-50.998-329.382c-4.786-30.909-25.633-56.947-54.747-68.378l-40.969-16.086-74.668-18.846v-.122l-.177.061-.177-.061v.122l-74.668 18.846-40.969 16.086c-29.113 11.431-49.961 37.469-54.747 68.378l-50.997 329.382c-.199 1.288.797 2.45 2.1 2.45h67.702c1.01 0 1.881-.711 2.082-1.701l36.875-181.078v165.848h225.596v-165.847l36.875 181.078c.202.99 1.072 1.701 2.082 1.701h67.702c1.306 0 2.302-1.163 2.103-2.451z" fill="#86a0af"/><g><path d="m477.559 466.268-50.999-329.382c-4.786-30.909-25.633-56.947-54.747-68.378l-40.969-16.086-74.668-18.846v-.122l-.176.061-.177-.061v.122l-22.725 12.439v-.122l.177.061.177-.061v.122l74.668 18.846 40.969 16.086c29.113 11.431 49.961 37.469 54.747 68.378l49.451 319.393h22.171c1.304.001 2.3-1.162 2.101-2.45z" fill="#738b95"/></g><path d="m92.786 504.5h-58.723l5.598-35.781h58.723z" fill="#d0e2e7"/><path d="m419.215 504.5h58.723l-5.598-35.781h-58.723z" fill="#d0e2e7"/><path d="m472.34 468.719h-19.494l5.598 35.781h19.494z" fill="#b4d0d5"/><path d="m356.159 482.158h-200.318c-6.981 0-12.639-5.659-12.639-12.639v-17.731h225.596v17.731c.001 6.98-5.658 12.639-12.639 12.639z" fill="#d0e2e7"/><path d="m331.199 52.422c-36.681 9.314-113.362 9.314-150.043 0v-38.124c0-3.754 3.044-6.798 6.798-6.798h136.447c3.754 0 6.798 3.043 6.798 6.798z" fill="#d0e2e7"/><path d="m324.401 7.5h-23.246c3.754 0 6.798 5.545 6.798 12.384v36.662c8.733-1.073 16.64-2.447 23.246-4.124v-38.124c0-3.754-3.044-6.798-6.798-6.798z" fill="#b4d0d5"/><g><path d="m59.425 304.91c.389.06.775.089 1.157.089 3.635 0 6.828-2.649 7.402-6.354l24.868-160.612c4.359-28.163 23.548-52.129 50.075-62.544l38.765-15.22c19.018 4.448 46.748 6.673 74.485 6.673 27.629 0 55.25-2.208 74.261-6.622l38.633 15.169c3.19 1.252 6.347 2.733 9.38 4.402 1.147.631 2.387.93 3.608.93 2.646 0 5.213-1.403 6.578-3.886 1.996-3.63.673-8.19-2.956-10.187-3.597-1.979-7.341-3.735-11.128-5.223l-35.856-14.079v-33.15c.001-7.882-6.412-14.296-14.296-14.296h-136.447c-7.884 0-14.298 6.414-14.298 14.298v33.011l-36.211 14.217c-31.476 12.358-54.243 40.795-59.417 74.212l-24.868 160.613c-.634 4.092 2.171 7.925 6.265 8.559zm156.364-254.688v-35.222h16.926v36.373c-5.808-.278-11.482-.662-16.926-1.151zm31.926 1.629v-36.851h16.925v36.851c-5.629.094-11.297.094-16.925 0zm31.925-36.851h16.926v35.222c-5.444.489-11.118.872-16.926 1.15zm44.058 31.446c-3.74.772-7.817 1.457-12.133 2.066v-33.512h12.133zm-135.042-31.446h12.133v33.512c-4.316-.609-8.393-1.294-12.133-2.066z"/><path d="m485.348 503.341-4.503-28.786c.704-.477 1.357-1.038 1.922-1.698 1.83-2.136 2.634-4.955 2.204-7.736l-50.998-329.383c-2.802-18.095-10.709-34.916-22.865-48.646-2.746-3.1-7.486-3.391-10.587-.644-3.102 2.746-3.39 7.486-.644 10.587 10.247 11.573 16.911 25.749 19.271 40.997l50.039 323.186h-57.041l-35.848-176.038v-79.535c0-4.143-3.357-7.5-7.5-7.5s-7.5 3.357-7.5 7.5v238.642h-210.596v-238.641c0-4.143-3.357-7.5-7.5-7.5s-7.5 3.357-7.5 7.5v79.535l-35.848 176.038h-57.04l20.528-132.587c.634-4.094-2.171-7.926-6.265-8.56-4.098-.626-7.926 2.173-8.56 6.265l-21.487 138.785c-.43 2.78.374 5.601 2.205 7.736.565.659 1.217 1.22 1.921 1.697l-4.504 28.786c-.339 2.165.287 4.37 1.712 6.035s3.507 2.624 5.698 2.624h58.724c3.694 0 6.839-2.69 7.41-6.341l4.61-29.465c4.318-.254 8-3.401 8.87-7.679l22.026-108.162v109.166c0 11.105 9.034 20.14 20.14 20.14h75.956c4.143 0 7.5-3.357 7.5-7.5s-3.357-7.5-7.5-7.5h-75.956c-2.834 0-5.14-2.306-5.14-5.14v-10.231h210.597v10.231c0 2.834-2.306 5.14-5.14 5.14h-94.374c-4.143 0-7.5 3.357-7.5 7.5s3.357 7.5 7.5 7.5h94.374c11.105 0 20.14-9.034 20.14-20.14v-109.165l22.026 108.163c.873 4.278 4.556 7.422 8.87 7.676l4.61 29.465c.571 3.65 3.716 6.341 7.41 6.341h58.723c2.191 0 4.273-.959 5.698-2.624s2.051-3.869 1.712-6.034zm-398.98-6.341h-43.541l3.252-20.781h43.54zm339.265 0-3.251-20.781h43.54l3.251 20.781z"/></g></g></svg>