<svg id="Capa_1" enable-background="new 0 0 512.003 512.003" height="512" viewBox="0 0 512.003 512.003" width="512" xmlns="http://www.w3.org/2000/svg"><g><path d="m409.978 59.863c33.322 78.948 46.623 223.732 58.234 374.073-44.261 10.333-74.111 20.57-119.583 46.378l-70.261-128.936-68.86-58.548 63.322-200.926 69.898-32.041z" fill="#ac80dd"/><path d="m468.212 433.936c-11.611-150.342-24.912-295.126-58.234-374.073h-35.355c31.674 75.042 46.676 238.318 58.055 383.403 11.124-3.355 22.724-6.34 35.534-9.33z" fill="#9d66d5"/><path d="m79.145 7.5h330.833v52.363h-330.833z" fill="#e4d5f4"/><path d="m374.623 7.5h35.355v52.363h-35.355z" fill="#ddc8f1"/><path d="m342.728 59.863h-263.583c-31.951 78.689-32.928 252.095-35.355 421.067 69.444-10.882 136.018-.424 200.771 23.57z" fill="#bc95e2"/><path d="m340.643 465.658c-28.286-3.238-59.648-.553-91.617 18.62l29.342-132.901z" fill="#ddc8f1"/><g><path d="m475.689 433.358c-11.74-152.024-25.039-295.078-58.211-374.984v-50.874c0-4.143-3.357-7.5-7.5-7.5h-251.782c-4.143 0-7.5 3.357-7.5 7.5s3.357 7.5 7.5 7.5h244.282v37.362h-315.833v-37.362h41.564c4.143 0 7.5-3.357 7.5-7.5s-3.357-7.5-7.5-7.5h-49.064c-4.143 0-7.5 3.357-7.5 7.5v50.938c-27.185 68.655-31.815 207.27-34.008 331.982-.072 4.142 3.226 7.558 7.367 7.631 4.1.069 7.558-3.226 7.631-7.367 2.134-121.332 6.541-255.848 31.641-323.321h249.116l-94.313 427.181c-65.291-23.015-126.866-30.33-187.665-22.292l.182-12.907c.181-12.911.36-25.822.555-38.691.062-4.142-3.244-7.55-7.386-7.612-.039-.001-.077-.001-.115-.001-4.09 0-7.436 3.284-7.497 7.387-.194 12.875-.375 25.792-.555 38.708l-.306 21.688c-.068 4.645 4.068 8.234 8.66 7.517 63.563-9.959 128.004-2.373 197.003 23.194 4.26 1.578 8.949-.97 9.93-5.416l3.757-17.015c24.176-13.761 50.518-19.13 80.307-16.385l6.095 11.185c2.007 3.683 6.646 5.002 10.288 2.934 20.36-11.556 37.794-20.078 54.864-26.819 3.853-1.521 5.742-5.878 4.221-9.73-1.521-3.854-5.88-5.742-9.73-4.221-15.835 6.253-31.906 13.944-50.102 23.996l-65.287-119.809 62.456-282.89h56.192c30.916 77.371 43.931 214.433 55.295 360.756-10.519 2.537-19.521 4.934-27.945 7.434-3.971 1.179-6.234 5.354-5.057 9.324 1.175 3.958 5.339 6.237 9.324 5.057 9.762-2.897 20.36-5.66 33.355-8.693 3.604-.846 6.056-4.193 5.771-7.885zm-148.233 23.776c-24.388-.923-46.721 3.358-67.619 12.965l21.534-97.537z"/><path d="m298.598 124.341c.545.121 1.089.179 1.624.179 3.442 0 6.544-2.385 7.316-5.885l1.646-7.458c.894-4.045-1.662-8.048-5.706-8.94-4.05-.901-8.048 1.662-8.94 5.706l-1.646 7.458c-.893 4.044 1.662 8.047 5.706 8.94z"/><path d="m280.48 164.412-1.646 7.457c-.894 4.045 1.661 8.048 5.706 8.94.545.121 1.089.179 1.624.179 3.442 0 6.544-2.385 7.316-5.885l1.646-7.457c.894-4.045-1.661-8.048-5.706-8.94-4.05-.901-8.047 1.662-8.94 5.706z"/><path d="m267.154 220.697-1.646 7.458c-.894 4.045 1.662 8.048 5.706 8.94.545.121 1.089.179 1.624.179 3.442 0 6.544-2.385 7.316-5.885l1.646-7.458c.894-4.045-1.662-8.048-5.706-8.94-4.05-.898-8.047 1.662-8.94 5.706z"/><path d="m260.686 278.049c-4.049-.9-8.048 1.662-8.94 5.706l-1.646 7.458c-.894 4.045 1.662 8.048 5.706 8.94.545.121 1.089.179 1.624.179 3.442 0 6.544-2.385 7.316-5.885l1.646-7.458c.894-4.045-1.662-8.048-5.706-8.94z"/></g></g></svg>