<svg id="Capa_1" enable-background="new 0 0 512 512" height="512" viewBox="0 0 512 512" width="512" xmlns="http://www.w3.org/2000/svg"><g><path d="m499.574 462.469-56.68-366.081c-4.836-31.235-26.801-57.109-56.836-66.952l-66.94-21.936c-42.079 22.864-84.157 22.864-126.236 0l-66.94 21.937c-30.035 9.843-52 35.717-56.836 66.952l-56.68 366.081c-.219 1.416.876 2.694 2.309 2.694h74.429c1.111 0 2.068-.782 2.289-1.87l40.54-199.071v182.327h248.014v-182.328l40.54 199.071c.222 1.088 1.179 1.87 2.289 1.87h74.429c1.433 0 2.528-1.278 2.309-2.694z" fill="#eab14d"/><g><path d="m499.574 462.47-56.68-366.081c-4.836-31.235-26.801-57.109-56.836-66.952l-66.94-21.937c-42.079 22.864-66.228 35.864-24.15 13l66.94 21.937c30.035 9.843 52 35.717 56.836 66.952l55.084 355.775h23.436c1.434-.001 2.529-1.279 2.31-2.694z" fill="#e49542"/></g><path d="m76.567 504.5h-64.558l6.154-39.337h64.558z" fill="#86a0af"/><path d="m435.433 504.5h64.558l-6.154-39.337h-64.558z" fill="#86a0af"/><path d="m493.837 465.163h-21.431l6.154 39.337h21.431z" fill="#738b95"/><path d="m366.111 479.938h-220.222c-7.674 0-13.895-6.221-13.895-13.895v-19.493h248.014v19.493c-.001 7.674-6.222 13.895-13.897 13.895z" fill="#86a0af"/><path d="m256 134.124c13.471 0 25.679-6.88 32.654-18.401l59.728-98.633-29.264-9.59c-42.079 22.864-84.157 22.864-126.236 0l-29.265 9.59 59.727 98.63c6.977 11.524 19.185 18.404 32.656 18.404z" fill="#86a0af"/><path d="m262.993 100.183 56.125-92.683c-42.079 22.864-84.157 22.864-126.236 0l56.125 92.683c3.182 5.255 10.804 5.255 13.986 0z" fill="#ffe07d"/><path d="m276.976 22.74c-5.074 15.763-15.409 38.379-36.406 63.51l8.438 13.933c3.182 5.254 10.804 5.254 13.986 0l56.124-92.683c-14.047 7.633-28.095 12.703-42.142 15.24z" fill="#ffd064"/><g><path d="m312.556 208.605-10.771-17.821c-1.474-2.439-1.474-5.493 0-7.932l10.771-17.821c2.983-4.935 10.141-4.935 13.124 0l10.771 17.821c1.474 2.439 1.474 5.493 0 7.932l-10.771 17.821c-2.983 4.935-10.141 4.935-13.124 0z" fill="#86a0af"/></g><g><path d="m507.401 503.341-5.024-32.114c.876-.534 1.675-1.204 2.358-2.001 1.871-2.184 2.691-5.065 2.251-7.903l-49.246-318.069c-.635-4.094-4.467-6.887-8.56-6.265-4.094.634-6.898 4.466-6.265 8.56l48.324 312.114h-64.186l-39.548-194.2v-87.513c0-4.143-3.357-7.5-7.5-7.5s-7.5 3.357-7.5 7.5v263.1h-233.012v-263.1c0-4.143-3.357-7.5-7.5-7.5s-7.5 3.357-7.5 7.5v87.514l-39.547 194.2h-64.187l3.204-20.69c.634-4.094-2.171-7.926-6.265-8.56-4.098-.627-7.925 2.173-8.56 6.265l-4.123 26.641c-.441 2.841.379 5.723 2.25 7.906.683.797 1.482 1.467 2.358 2.001l-5.024 32.115c-.339 2.165.287 4.37 1.712 6.035s3.507 2.623 5.698 2.623h64.558c3.694 0 6.839-2.69 7.41-6.341l5.162-32.996h.024c4.655 0 8.709-3.311 9.64-7.874l25.689-126.152v127.406c0 11.797 9.598 21.395 21.396 21.395h153.226c4.143 0 7.5-3.357 7.5-7.5s-3.357-7.5-7.5-7.5h-153.226c-3.526 0-6.396-2.868-6.396-6.395v-11.994h233.014v11.994c0 3.526-2.869 6.395-6.396 6.395h-37.01c-4.143 0-7.5 3.357-7.5 7.5s3.357 7.5 7.5 7.5h37.011c11.798 0 21.396-9.598 21.396-21.395v-127.408l25.691 126.155c.929 4.562 4.982 7.873 9.638 7.873h.025l5.162 32.996c.571 3.65 3.716 6.341 7.41 6.341h64.558c2.191 0 4.273-.959 5.698-2.624s2.051-3.87 1.712-6.035zm-437.252-6.341h-49.375l3.807-24.337h49.376zm371.702 0-3.808-24.337h49.375l3.808 24.337z"/><path d="m20.047 413.25c.389.06.775.089 1.156.089 3.636 0 6.829-2.649 7.403-6.354l47.912-309.45c4.427-28.597 24.261-51.96 51.76-60.972l32.011-10.49 56.638 93.532c8.349 13.787 22.955 22.019 39.072 22.019s30.724-8.23 39.069-22.017l56.641-93.534 32.011 10.49c27.5 9.012 47.334 32.375 51.761 60.972l2.791 18.026c.634 4.095 4.463 6.889 8.56 6.265 4.094-.634 6.898-4.466 6.265-8.56l-2.791-18.026c-5.297-34.206-29.021-62.151-61.913-72.931l-66.939-21.936c-1.961-.643-4.101-.449-5.917.537-40.062 21.768-79.012 21.768-119.074 0-1.815-.986-3.955-1.181-5.917-.537l-66.94 21.937c-32.892 10.779-56.615 38.724-61.912 72.931l-47.912 309.45c-.634 4.093 2.171 7.926 6.265 8.559zm262.191-301.412c-5.605 9.259-15.414 14.786-26.238 14.786s-20.634-5.528-26.241-14.788l-54.838-90.558 14.633-4.796 53.038 87.586c2.864 4.731 7.877 7.556 13.408 7.556s10.544-2.824 13.408-7.556l53.038-87.586 14.632 4.795zm17.995-87.629-43.655 72.09c-.064.105-.197.325-.578.325s-.514-.22-.578-.325l-43.654-72.089c29.427 10.547 59.037 10.546 88.465-.001z"/><path d="m252.512 56.785h6.975c4.143 0 7.5-3.357 7.5-7.5s-3.357-7.5-7.5-7.5h-6.975c-4.143 0-7.5 3.357-7.5 7.5s3.358 7.5 7.5 7.5z"/><path d="m319.117 219.807c.001 0 .001 0 0 0 5.357 0 10.21-2.737 12.982-7.322l10.771-17.821c2.924-4.839 2.924-10.851 0-15.689l-10.771-17.822c-2.771-4.585-7.624-7.321-12.981-7.321-5.356.001-10.209 2.737-12.979 7.322l-10.77 17.819c-2.927 4.84-2.927 10.854-.001 15.691l10.771 17.821v.001c2.769 4.584 7.621 7.32 12.978 7.321zm-10.912-33.075 10.816-17.883c.038-.024.159-.023.24.062l10.771 17.821c.032.054.032.12 0 .174l-10.816 17.883c-.037.023-.157.025-.194 0-.004-.003-.021-.021-.046-.062l-10.771-17.823c-.033-.053-.033-.118 0-.172z"/></g></g></svg>