<svg id="Capa_1" enable-background="new 0 0 512 512" height="512" viewBox="0 0 512 512" width="512" xmlns="http://www.w3.org/2000/svg"><g><path d="m110.081 7.5h297.546v49.976h-297.546z" fill="#dd636e"/><path d="m376.085 7.5h31.542v49.976h-31.542z" fill="#da4a54"/><path d="m407.627 57.476h-297.546c-73.365 158.164 13.307 267.776 1.07 434.754-.485 6.622 4.736 12.269 11.376 12.269h42.818c4.078 0 7.845-2.175 9.884-5.707l7.479-12.955c4.393-7.609 15.375-7.609 19.768 0l7.479 12.955c2.039 3.531 5.807 5.707 9.884 5.707h175.34c6.639 0 11.861-5.648 11.376-12.269-12.235-166.978 74.437-276.59 1.072-434.754z" fill="#f4c3c6"/><path d="m417.738 92.895h-311.18l-7.294 7.164c-.62.609-3.652 3.632-8.125 8.769-20.078 73.092-8.472 137.314 4.063 205.244 26.44-2.43 64.197-8.352 104.096-22.591 49.704-17.739 94.666-45.281 130.228-84.511 6.036-6.659 16.845-5.354 21.127 2.548 17.256 31.848 43.186 56.396 78.173 69.232 9.887-58.755 14.922-116.351-5.608-181.262z" fill="#eab1b7"/><path d="m116.781 117.894s-78.132 76.738-59.161 172.755c0 0 211.435 8.321 294.646-161.485 0 0 6.467 116.628 110.75 132.637 0 0 3.524-95.368-54.371-143.907z" fill="#e28086"/><path d="m110.081 57.476s-84.653 79.011-65.313 177.872c0 0 200.093 15.48 307.498-106.184 0 0 38.494 77.291 117.791 76.481 0 0-3.408-98.193-62.43-148.169z" fill="#dd636e"/><g><path d="m438.272 201.575c9.752 2.67 20.341 4.187 31.786 4.07 0 0-3.408-98.193-62.43-148.169h-31.542c51.875 43.926 60.788 125.086 62.186 144.099z" fill="#da4a54"/></g><path d="m477.552 205.386c-.036-1.037-.977-25.76-9.331-57.02-10.77-40.304-29.094-72.814-53.094-94.297v-46.569c0-4.143-3.357-7.5-7.5-7.5h-210.18c-4.143 0-7.5 3.357-7.5 7.5s3.357 7.5 7.5 7.5h202.68v34.977h-282.546v-34.977h49.881c4.143 0 7.5-3.357 7.5-7.5s-3.357-7.5-7.5-7.5h-57.381c-4.143 0-7.5 3.357-7.5 7.5v46.824c-6.191 6.222-23.274 24.493-38.886 51.235-25.46 43.612-34.551 88.991-26.287 131.229.646 3.309 3.421 5.778 6.782 6.038.303.023 1.623.121 3.835.235-1.672 16.58-.923 33.044 2.239 49.042.67 3.394 3.576 5.889 7.032 6.039.42.018 2.661.106 6.457.106 4.71 0 11.825-.139 20.8-.714 1.161 6.446 2.357 12.93 3.525 19.255 9.998 54.176 20.336 110.197 15.594 174.894-.383 5.236 1.446 10.443 5.018 14.285 3.562 3.833 8.606 6.031 13.839 6.031h42.818c6.734 0 13.011-3.624 16.379-9.457l7.479-12.954c1.02-1.767 2.71-1.957 3.389-1.957.68 0 2.37.19 3.39 1.957l7.479 12.953c3.367 5.834 9.644 9.458 16.38 9.458h45.672c4.143 0 7.5-3.357 7.5-7.5s-3.357-7.5-7.5-7.5h-45.675c-1.394 0-2.691-.749-3.389-1.957l-7.479-12.954c-3.418-5.922-9.541-9.457-16.38-9.457-6.838 0-12.961 3.535-16.379 9.457l-7.479 12.954c-.697 1.207-1.995 1.957-3.389 1.957h-42.818c-1.477 0-2.421-.779-2.853-1.243-.437-.47-1.153-1.481-1.044-2.979 4.883-66.618-5.633-123.603-15.803-178.711-1.079-5.847-2.182-11.828-3.258-17.782 20.69-2.113 47.359-6.421 76.319-15.088 37.548-11.236 71.077-27.516 99.657-48.384 29.726-21.706 54.106-48.426 72.697-79.626 2.447 11.139 6.578 25.285 13.513 39.93 14.262 30.12 35.618 52.057 62.75 64.849-2.694 18.486-6.068 36.815-9.629 56.116-10.168 55.104-20.683 112.084-15.801 178.695.11 1.498-.606 2.51-1.043 2.979-.432.464-1.376 1.243-2.853 1.243h-99.679c-4.143 0-7.5 3.357-7.5 7.5s3.357 7.5 7.5 7.5h99.682c5.232 0 10.276-2.198 13.839-6.031 3.571-3.842 5.4-9.049 5.017-14.286-4.74-64.69 5.596-120.707 15.592-174.879 3.361-18.216 6.558-35.574 9.196-53.115 7.339 2.438 15.025 4.293 23.053 5.525 2.111.327 4.267-.269 5.916-1.633 1.649-1.362 2.638-3.365 2.717-5.503.035-.951.723-21.707-4.32-48.965 1.312.029 2.626.044 3.944.032 4.224-.042 7.562-3.561 7.416-7.757zm-210.628 15.149c-27.134 19.855-59.057 35.385-94.883 46.156-37.264 11.204-77.605 16.411-108.116 16.534-2.018-13.006-2.304-26.326-.86-39.736 29.85.277 63.537-2.337 96.495-8.226 37.47-6.696 71.955-17.252 102.496-31.374 20.581-9.516 39.377-20.688 56.284-33.389-14.563 18.888-31.737 35.635-51.416 50.035zm188.525 32.228c-37.571-8.312-63.681-31.591-79.931-65.634-4.126-8.645-7.182-17.167-9.45-24.902 7.512 8.764 17.103 18.246 28.875 26.655 3.371 2.408 8.056 1.625 10.462-1.743 2.408-3.37 1.627-8.055-1.743-10.462-29.544-21.104-44.54-50.571-44.684-50.857-1.113-2.233-3.264-3.767-5.737-4.092-2.476-.327-4.947.602-6.599 2.473-23.762 26.917-54.271 49.116-90.682 65.981-29.323 13.583-62.518 23.76-98.661 30.248-49.61 8.905-91.352 8.333-106.179 7.743-5.792-37.258 2.71-75.805 25.309-114.676 14.653-25.205 31.064-42.792 36.724-48.521h291.675c27.571 24.485 41.745 60.619 48.812 86.926 5.229 19.468 7.434 36.533 8.333 46.036-11.57-.722-22.845-3.271-33.615-7.611-3.841-1.553-8.212.312-9.759 4.153-1.549 3.842.311 8.211 4.153 9.759 9.027 3.638 18.358 6.156 27.907 7.567 3.458 17.086 4.499 32.026 4.79 40.957z"/></g></svg>