<svg id="Capa_1" enable-background="new 0 0 511.971 511.971" height="512" viewBox="0 0 511.971 511.971" width="512" xmlns="http://www.w3.org/2000/svg"><g><path d="m363.219 40.165-22.495 40h-168.254l-23.588-40v-32.665h214.337z" fill="#f4c3c6"/><path d="m333.231 7.5h29.989v32.665h-29.989z" fill="#eab1b7"/><path d="m363.219 40.165h-214.337c-108.049 203.558 6.412 258.928.514 452.292-.2 6.57 5.061 12.013 11.634 12.013h25.052c3.744 0 7.302-1.632 9.745-4.469l10.41-12.089c5.192-6.03 14.56-5.945 19.641.179l9.736 11.732c2.443 2.944 6.07 4.647 9.896 4.647h105.56c6.573 0 11.834-5.443 11.634-12.013-5.897-193.364 108.564-248.734.515-452.292z" fill="#e28086"/><g><path d="m363.219 40.165h-29.989c108.049 203.558-6.412 258.928-.514 452.292.2 6.57-5.061 12.013-11.634 12.013h29.989c6.573 0 11.834-5.443 11.634-12.013-5.898-193.364 108.563-248.734.514-452.292z" fill="#dd636e"/></g><g><path d="m266.551 454.108v3.872c0 4.143 3.357 7.5 7.5 7.5s7.5-3.357 7.5-7.5v-3.872c0-4.143-3.357-7.5-7.5-7.5s-7.5 3.357-7.5 7.5z"/><path d="m280.918 395.462c4.143 0 7.5-3.357 7.5-7.5v-3.872c0-4.143-3.357-7.5-7.5-7.5s-7.5 3.357-7.5 7.5v3.872c0 4.143 3.358 7.5 7.5 7.5z"/><path d="m292.095 317.945c0 4.143 3.357 7.5 7.5 7.5s7.5-3.357 7.5-7.5v-3.872c0-4.143-3.357-7.5-7.5-7.5s-7.5 3.357-7.5 7.5z"/><path d="m308.924 247.927c0 4.142 3.357 7.5 7.5 7.5s7.5-3.358 7.5-7.5v-3.872c0-4.142-3.357-7.5-7.5-7.5s-7.5 3.358-7.5 7.5z"/><path d="m318.424 185.41c4.143 0 7.5-3.358 7.5-7.5v-3.872c0-4.142-3.357-7.5-7.5-7.5s-7.5 3.358-7.5 7.5v3.872c0 4.142 3.357 7.5 7.5 7.5z"/><path d="m300.45 115.392c4.143 0 7.5-3.358 7.5-7.5v-3.872c0-4.142-3.357-7.5-7.5-7.5s-7.5 3.358-7.5 7.5v3.872c0 4.142 3.358 7.5 7.5 7.5z"/><path d="m407.765 129.875c-1.06-4.003-5.164-6.389-9.169-5.332-4.004 1.06-6.392 5.165-5.331 9.169 18.99 71.759 4.791 122.867-11.65 182.043-13.433 48.346-28.656 103.141-26.405 176.931.046 1.536-.716 2.558-1.174 3.03-.454.469-1.444 1.255-2.964 1.255h-43.917c-3.006-73.885 11.58-126.381 25.702-177.199 22.218-79.953 41.483-149.322-20.526-272.107h46.34c10.284 19.732 18.817 38.796 25.341 56.708 1.109 3.045 3.984 4.935 7.048 4.935.852 0 1.719-.146 2.566-.455 3.892-1.417 5.897-5.722 4.479-9.614-7.014-19.257-16.235-39.745-27.387-60.912v-30.827c0-4.142-3.357-7.5-7.5-7.5h-139.85c-4.143 0-7.5 3.358-7.5 7.5s3.357 7.5 7.5 7.5h132.35v17.665c-9.145 0-187.574 0-199.337 0v-17.665h37c4.143 0 7.5-3.358 7.5-7.5s-3.357-7.5-7.5-7.5h-44.5c-4.143 0-7.5 3.358-7.5 7.5v30.819c-67.796 128.655-48.127 199.496-25.353 281.457 9.152 32.938 18.616 66.996 23.239 107.694.435 3.828 3.68 6.654 7.442 6.654.283 0 .569-.017.856-.049 4.115-.468 7.073-4.183 6.605-8.299-4.758-41.877-14.383-76.518-23.691-110.017-11.028-39.69-21.445-77.179-20.67-119.453.842-45.922 14.719-93.258 43.605-148.643h142.056c28.885 55.384 42.763 102.719 43.605 148.641.774 42.273-9.643 79.761-20.671 119.449-13.728 49.402-29.224 105.18-26.257 181.216h-46.636c-1.6 0-3.104-.706-4.125-1.938l-9.736-11.73c-3.835-4.621-9.478-7.304-15.482-7.357-.062-.001-.125-.001-.188-.001-5.935 0-11.549 2.572-15.427 7.075l-10.41 12.089c-1.019 1.184-2.499 1.862-4.062 1.862h-25.051c-1.52 0-2.51-.786-2.964-1.255-.459-.473-1.22-1.494-1.174-3.03.372-12.192.277-24.447-.28-36.424-.193-4.138-3.713-7.315-7.841-7.144-4.138.193-7.336 3.703-7.144 7.841.54 11.594.632 23.46.272 35.27-.16 5.229 1.758 10.177 5.398 13.931 3.636 3.748 8.512 5.812 13.731 5.812h25.052c5.934 0 11.558-2.579 15.429-7.075l10.41-12.089c1.413-1.641 3.214-1.862 4.11-1.862.929.009 2.694.271 4.076 1.938l9.736 11.73c3.881 4.677 9.591 7.358 15.668 7.358h105.56c5.22 0 10.096-2.063 13.731-5.812 3.641-3.754 5.559-8.701 5.398-13.931-2.181-71.513 12.077-122.83 25.865-172.458 16.321-58.728 31.734-114.202 11.702-189.894z"/></g></g></svg>