<svg id="Capa_1" enable-background="new 0 0 511.962 511.962" height="512" viewBox="0 0 511.962 511.962" width="512" xmlns="http://www.w3.org/2000/svg"><g><path d="m100.327 455.125h-23.758c-5.029 0-9.106-4.077-9.106-9.106v-37.127h41.969v37.127c0 5.029-4.076 9.106-9.105 9.106z" fill="#d0e2e7"/><path d="m411.635 455.125h23.757c5.029 0 9.106-4.077 9.106-9.106v-37.127h-41.969v37.127c0 5.029 4.077 9.106 9.106 9.106z" fill="#d0e2e7"/><path d="m398.382 140.376c-12.722-27.889-38.372-47.721-68.526-53.23l-30.358-5.546h-43.517-43.517l-30.358 5.546c-30.154 5.509-55.804 25.342-68.526 53.23-39.532 86.658-47.562 192.462-50.348 279.639-.111 3.48 2.685 6.358 6.167 6.358h38.993c2.908 0 5.421-2.031 6.032-4.874l31.266-145.536v211.006c0 9.661 7.832 17.493 17.493 17.493h185.597c9.661 0 17.493-7.832 17.493-17.493v-211.006l31.266 145.536c.611 2.843 3.124 4.874 6.032 4.874h38.993c3.482 0 6.278-2.878 6.167-6.358-2.786-87.177-10.817-192.981-50.349-279.639z" fill="#86a0af"/><g><path d="m398.382 140.376c-12.722-27.889-38.372-47.721-68.527-53.23l-30.358-5.546h-43.517l43.517 4.22 10.628 7.057c30.154 5.509 55.804 25.342 68.527 53.23 39.532 86.658 47.562 192.462 50.348 279.639.007.212.002.421-.012.627h13.576c3.481 0 6.278-2.878 6.167-6.358-2.786-87.177-10.817-192.981-50.349-279.639z" fill="#738b95"/></g><path d="m240.921 81.599h30.119v422.863h-30.119z" fill="#b4d0d5"/><path d="m161.287 90.2c4.106 6.43 8.898 13.087 14.431 20.638 3.769 5.143 10.06 7.811 16.376 6.941 6.996-.964 12.711-6.072 14.452-12.916l5.918-23.263 43.517-19.952 43.517 19.952 5.918 23.263c1.741 6.845 7.456 11.952 14.452 12.916 6.316.871 12.607-1.798 16.376-6.941 5.533-7.551 10.325-14.208 14.431-20.638 17.909-28.047 3.129-65.619-29.051-74.094-43.762-11.525-87.524-11.525-131.286 0-32.18 8.476-46.96 46.047-29.051 74.094z" fill="#d0e2e7"/><g><path d="m321.624 16.106c-25.801-6.795-51.603-9.58-77.404-8.363 17.961.848 35.921 3.633 53.882 8.363 32.18 8.475 46.96 46.047 29.051 74.094-4.106 6.43-8.897 13.087-14.431 20.638-.671.916-1.426 1.749-2.243 2.502 2.552 2.352 5.799 3.943 9.39 4.438 6.316.871 12.607-1.797 16.376-6.94 5.533-7.551 10.325-14.208 14.431-20.638 17.908-28.047 3.127-65.619-29.052-74.094z" fill="#b4d0d5"/></g><path d="m299.498 81.599h-87.034v-34.748c0-2.847 2.308-5.156 5.156-5.156h76.723c2.847 0 5.156 2.308 5.156 5.156v34.748z" fill="#f9f6f9"/><path d="m294.342 41.695h-19.705c2.848 0 5.156 2.308 5.156 5.156v34.748h19.705v-34.748c0-2.847-2.308-5.156-5.156-5.156z" fill="#dddaec"/><path d="m456.227 419.775c-2.9-90.753-11.23-195.288-51.021-282.512-9.428-20.669-25.432-37.368-45.522-47.75 6.958-13.594 8.129-29.366 3.089-44.068-1.344-3.917-5.61-6.006-9.527-4.662-3.918 1.344-6.005 5.608-4.662 9.527 4.144 12.087 2.603 25.155-4.229 35.853-3.805 5.959-8.239 12.163-14.158 20.241-2.146 2.928-5.707 4.444-9.304 3.944-3.992-.55-7.214-3.43-8.207-7.335l-5.687-22.353v-33.808c0-6.979-5.678-12.656-12.656-12.656h-76.723c-6.979 0-12.655 5.678-12.655 12.656v33.809l-5.687 22.353c-.993 3.905-4.215 6.785-8.208 7.335-3.592.496-7.155-1.016-9.302-3.944-5.926-8.085-10.361-14.292-14.159-20.24-7.213-11.295-8.532-24.981-3.622-37.549 4.932-12.619 15.232-21.825 28.262-25.256 42.289-11.139 85.176-11.139 127.467 0 4.878 1.284 9.412 3.395 13.477 6.272 3.382 2.393 8.062 1.593 10.455-1.787 2.394-3.381 1.594-8.062-1.787-10.455-5.537-3.921-11.703-6.792-18.325-8.536-44.826-11.805-90.282-11.805-135.106 0-17.717 4.666-31.718 17.169-38.412 34.303-6.006 15.371-5.125 31.977 2.263 46.357-20.09 10.382-36.095 27.081-45.523 47.749-39.794 87.227-48.123 191.76-51.023 282.511-.119 3.728 1.244 7.257 3.84 9.937.124.127.26.24.389.362v15.946c0 9.156 7.449 16.605 16.605 16.605h23.758c9.156 0 16.605-7.449 16.605-16.605v-15.172c2.392-1.919 4.148-4.628 4.823-7.773l16.433-76.492v96.984c0 4.143 3.357 7.5 7.5 7.5s7.5-3.357 7.5-7.5v-23.373c27.023 4.536 53.566 5.217 80.232-.082v76.851h-70.239c-5.511 0-9.993-4.482-9.993-9.993v-13.415c0-4.143-3.357-7.5-7.5-7.5s-7.5 3.357-7.5 7.5v13.415c0 13.781 11.212 24.993 24.993 24.993h185.598c13.781 0 24.993-11.212 24.993-24.993v-140.387l16.434 76.494c.676 3.144 2.432 5.852 4.823 7.771v15.172c0 9.156 7.449 16.605 16.605 16.605h23.758c9.156 0 16.605-7.449 16.605-16.605v-15.945c.128-.122.263-.233.387-.361 2.597-2.68 3.961-6.208 3.843-9.938zm-177.687-211.136v-50.089c10.172 2.016 20.618 3.21 31.417 3.558.601 12.409 3.837 25.22 4.799 28.798 1.075 3.998 5.185 6.368 9.188 5.294 3.999-1.074 6.371-5.188 5.298-9.188-1.846-6.883-3.705-16.766-4.249-24.961 11.113-.414 22.606-1.661 34.541-3.738-1.428 15.447-2.271 32.389-2.509 50.79-28.681 4.888-54.466 4.743-78.485-.464zm15.127-119.539 4.48 17.611c2.028 7.972 7.739 14.246 15.179 17.084 1.161 4.992 2.142 13.084-.643 18.691-.694 1.398-1.233 2.966-1.652 4.649-11.234-.327-22.035-1.623-32.491-3.885v-54.15zm134.01 177.83c-6.125 2.471-25.99 8.683-54.462-.229-.603-11.153-1.461-31.978-1.177-56.259 14.268 4.163 29.445 4.336 43.09-.893 5.134 18.793 9.236 38.011 12.549 57.381zm-68.904 72.647c-29.37 5.196-55.726 5.155-80.232-.158v-50.072c27.17 5.466 52.762 4.482 80.232-.48zm-80.233 15.144c26.664 5.299 53.208 4.619 80.232.083v50.163c-29.372 5.196-55.727 5.154-80.232-.157zm96.896-71.815c17.901 4.506 37.456 4.867 54.66-.915 2.904 19.364 5.073 38.811 6.712 58.079-6.182 2.529-24.039 7.94-49.204-.522zm16.123-139.417c7.572 16.599 13.958 33.889 19.379 51.623-5.7 2.451-19.451 6.469-38.556-.322.757-23.344 2.724-48.491 6.979-70.662 4.867 5.834 8.987 12.322 12.198 19.361zm-49.265-28.218c3.573-4.876 6.617-9.091 9.343-13.02 5.354 2.667 10.379 5.847 15.007 9.499-2.166 9.364-3.973 19.711-5.417 31.011-11.842 2.246-23.197 3.642-34.132 4.184 3.064-7.716 2.712-16.136 1.685-22.388 5.333-1.455 10.126-4.665 13.514-9.286zm-122.33-66.076h72.034v24.905h-72.034zm-95.607 290.354c-25.167 8.466-42.966 3.081-49.203.519 1.639-19.267 3.808-38.713 6.712-58.077 17.216 5.787 36.777 5.416 54.66.916zm-27.525-129.999c13.681 5.243 28.865 5.043 43.092.893.285 24.282-.574 45.106-1.177 56.259-28.477 8.914-48.342 2.698-54.463.227 3.313-19.369 7.415-38.587 12.548-57.379zm90.137-47.499c-.544 8.195-2.402 18.077-4.247 24.958-1.076 4 1.294 8.115 5.294 9.19 4.007 1.078 8.117-1.301 9.19-5.294.962-3.578 4.198-16.389 4.799-28.798 10.797-.348 21.245-1.542 31.416-3.558v50.089c-24.017 5.207-49.801 5.352-78.484.463-.238-18.401-1.081-35.343-2.509-50.79 11.936 2.079 23.428 3.325 34.541 3.74zm-31.972 62.268c26.04 4.201 52.034 4.868 78.424-.377v50.092c-24.646 5.362-50.378 5.298-80.068-.189.44-6.77 1.523-25.696 1.644-49.526zm-1.808 64.726c26.968 4.75 53.071 5.717 80.232.292v50.082c-24.506 5.314-50.861 5.355-80.232.158zm80.232-145.795c-10.457 2.262-21.257 3.557-32.491 3.884-.419-1.682-.958-3.25-1.652-4.648-2.786-5.609-1.823-13.637-.64-18.693 7.439-2.839 13.149-9.111 15.177-17.083l4.48-17.611h15.126zm-50.24-18.692c-1.027 6.252-1.378 14.672 1.685 22.387-10.935-.542-22.29-1.938-34.132-4.184-1.443-11.3-3.25-21.647-5.417-31.011 4.628-3.651 9.654-6.832 15.008-9.498 2.724 3.927 5.769 8.142 9.343 13.02 3.387 4.621 8.18 7.831 13.513 9.286zm-62.779 18.93c3.211-7.039 7.332-13.527 12.199-19.361 4.255 22.171 6.222 47.319 6.979 70.663-19.048 6.767-32.794 2.784-38.555.313 5.42-17.729 11.806-35.018 19.377-51.615zm-20.075 304.137h-23.758c-.886 0-1.605-.72-1.605-1.605v-12.147h26.969v12.147c0 .885-.72 1.605-1.606 1.605zm6.989-28.753h-36.543c.668-20.538 1.629-41.78 3.174-63.338 14.957 4.749 31.403 4.511 46.831.677zm45.873-13.905v-50.163c27.083 4.547 53.619 5.207 80.232-.083v50.089c-24.504 5.312-50.859 5.354-80.232.157zm95.232 91.995v-407.862h15.119v144.598c0 4.143 3.357 7.5 7.5 7.5s7.5-3.357 7.5-7.5v-9.755c26.384 5.244 52.383 4.58 78.425.377.12 23.603 1.183 42.389 1.632 49.322-30.09 5.69-55.211 5.829-80.056.396v-10.353c0-4.143-3.357-7.5-7.5-7.5s-7.5 3.357-7.5 7.5v233.277zm100.358 0h-70.239v-76.85c26.614 5.289 53.155 4.627 80.232.082v66.775c.001 5.51-4.482 9.993-9.993 9.993zm42.404-140.751c15.455 3.841 31.901 4.064 46.832-.678 1.545 21.559 2.507 42.801 3.175 63.339h-36.545zm44.21 91.414h-23.758c-.886 0-1.605-.72-1.605-1.605v-12.147h26.969v12.147c-.001.885-.721 1.605-1.606 1.605z"/></g></svg>