<svg id="Capa_1" enable-background="new 0 0 512 512" height="512" viewBox="0 0 512 512" width="512" xmlns="http://www.w3.org/2000/svg"><g><path d="m150.692 7.5h210.617v38.313h-210.617z" fill="#d6f6b2"/><path d="m336.031 7.5h25.278v38.313h-25.278z" fill="#ccf49f"/><path d="m179.067 504.5h-37.908c-4.914 0-8.897-3.983-8.897-8.897v-32.9h55.703v32.9c0 4.913-3.984 8.897-8.898 8.897z" fill="#d6f6b2"/><path d="m332.932 504.5h37.908c4.914 0 8.897-3.983 8.897-8.897v-32.9h-55.703v32.9c.001 4.913 3.985 8.897 8.898 8.897z" fill="#d6f6b2"/><g><path d="m150.691 45.812c-30.652 111.098 4.738 180.971-19.37 395.41-.248 2.203-1.302 4.246-2.954 5.725-6.175 5.525-2.266 15.755 6.02 15.755h54.596c6.594 0 10.456-7.444 6.628-12.84-1.373-1.936-1.752-4.408-1.135-6.699l58.974-218.932c.702-2.605 4.398-2.605 5.1 0l58.975 218.932c.617 2.291.238 4.764-1.135 6.699-3.828 5.395.033 12.84 6.628 12.84h54.595c8.286 0 12.195-10.229 6.02-15.755-1.652-1.479-2.707-3.521-2.954-5.725-24.107-214.439 11.282-284.312-19.37-395.41z" fill="#b3e59f"/></g><g><path d="m383.632 446.947c-1.652-1.479-2.707-3.521-2.954-5.725-24.107-214.439 11.282-284.312-19.37-395.41h-25.35c30.651 111.098-4.738 180.971 19.37 395.41.248 2.203 1.302 4.246 2.954 5.725 6.175 5.525 2.267 15.755-6.02 15.755h25.35c8.287 0 12.195-10.229 6.02-15.755z" fill="#95d6a4"/></g><path d="m150.691 45.812c-7.841 28.42-11.354 54.143-12.654 80.277 26.531-22.25 47.967-52.302 60.456-80.277z" fill="#eab14d"/><path d="m313.506 45.812c12.489 27.976 33.925 58.028 60.456 80.277-1.299-26.135-4.813-51.857-12.654-80.277z" fill="#eab14d"/><path d="m373.962 126.09c-1.387-27.909-5.279-53.555-12.654-80.277h-25.35c5.034 18.247 8.279 35.379 10.306 52.225 8.367 10.109 17.667 19.639 27.698 28.052z" fill="#e49542"/><path d="m388.633 441.358c-.277-.249-.46-.603-.502-.974-11.721-104.259-9.283-174.762-7.325-231.412 2.064-59.724 3.673-106.73-11.998-164.146v-37.326c0-4.143-3.357-7.5-7.5-7.5h-161.745c-4.143 0-7.5 3.357-7.5 7.5s3.357 7.5 7.5 7.5h154.245v23.312c-9.382 0-70.567 0-78.805 0-.957-1.811-1.625-3.385-2.094-4.725 2.722-1.125 4.638-3.803 4.638-6.932 0-4.143-3.357-7.5-7.5-7.5h-28.095c-4.143 0-7.5 3.357-7.5 7.5 0 3.128 1.916 5.807 4.638 6.932-.469 1.34-1.137 2.914-2.094 4.725-8.316 0-69.626 0-78.805 0v-23.312h11.385c4.143 0 7.5-3.357 7.5-7.5s-3.357-7.5-7.5-7.5h-18.885c-4.143 0-7.5 3.357-7.5 7.5v37.327c-15.688 57.48-14.058 104.58-11.999 164.147.332 9.604.675 19.535.963 29.929.114 4.141 3.591 7.385 7.704 7.29 4.141-.114 7.404-3.563 7.29-7.704-.289-10.446-.633-20.403-.966-30.033-.98-28.337-1.86-53.797-.773-78.829 23.564-20.438 44.358-47.868 57.866-76.313h22.58c-.926.994-1.904 2.012-2.953 3.061-12.244 12.245-3.414 32.53 3.733 42.586 1.462 2.056 3.768 3.15 6.111 3.15 1.499 0 3.013-.448 4.33-1.381 3.377-2.39 4.177-7.067 1.793-10.448-3.712-5.267-10.215-18.446-5.36-23.301 4.948-4.948 8.777-9.508 11.756-13.667h3.232v164.752c-1.056 1.165-1.854 2.592-2.292 4.216l-58.975 218.932c-1.217 4.518-.393 9.253 2.261 12.99.085.119.226.317.05.658-.177.342-.417.342-.561.342h-54.596c-.26 0-1.051 0-1.427-.982-.375-.982.215-1.51.408-1.684 3.033-2.714 4.953-6.435 5.406-10.476 6.762-60.145 9.615-115.131 8.98-173.046-.046-4.114-3.395-7.418-7.498-7.418h-.084c-4.143.046-7.463 3.44-7.418 7.582.396 36.046-.096 93.01-8.887 171.208-.041.369-.225.723-.502.972-5.151 4.608-6.885 11.759-4.418 18.216 1.196 3.13 3.241 5.716 5.813 7.557v28.472c0 9.042 7.355 16.397 16.396 16.397h37.909c9.041 0 16.396-7.355 16.396-16.397v-26.805c3.132-1.424 5.76-3.867 7.406-7.053 2.694-5.216 2.256-11.432-1.145-16.225-.022-.032-.067-.189-.009-.406l54.289-201.517 54.282 201.516c.059.217.014.374-.011.408-3.398 4.791-3.837 11.007-1.143 16.223 1.646 3.186 4.274 5.629 7.406 7.053v26.805c0 9.042 7.355 16.397 16.396 16.397h.744c4.143 0 7.5-3.357 7.5-7.5s-3.357-7.5-7.5-7.5h-.744c-.771 0-1.396-.627-1.396-1.397v-25.4h40.702v25.4c0 .771-.627 1.397-1.397 1.397h-7.177c-4.143 0-7.5 3.357-7.5 7.5s3.357 7.5 7.5 7.5h7.177c9.042 0 16.397-7.355 16.397-16.397v-28.472c2.572-1.841 4.618-4.427 5.813-7.557 2.469-6.458.736-13.608-4.416-18.217zm-241.709-333.679c1.698-17.688 4.648-35.521 9.525-54.366h30.096c-10.201 19.667-23.991 38.559-39.621 54.366zm33.54 387.924c0 .771-.626 1.397-1.396 1.397h-37.909c-.771 0-1.396-.627-1.396-1.397v-25.4h40.702v25.4zm175.086-442.291c4.877 18.846 7.827 36.678 9.525 54.366-15.63-15.807-29.42-34.698-39.621-54.366zm-101.018-19.156h2.935c.276 1.268.664 2.658 1.181 4.156h-5.297c.517-1.498.905-2.888 1.181-4.156zm68.485 421.046c-.144 0-.384 0-.561-.342-.176-.341-.035-.539.048-.656 2.655-3.739 3.479-8.475 2.263-12.992l-58.975-218.932c-.438-1.624-1.236-3.052-2.292-4.217v-164.751h3.234c2.979 4.159 6.808 8.718 11.756 13.666 4.854 4.855-1.648 18.035-5.353 23.289-2.399 3.377-1.608 8.059 1.768 10.459 1.318.937 2.836 1.388 4.339 1.388 2.347 0 4.657-1.098 6.12-3.155 7.147-10.056 15.978-30.341 3.733-42.587-1.049-1.048-2.026-2.066-2.952-3.06h22.578c13.51 28.446 34.302 55.875 57.866 76.313 1.086 25.031.206 50.492-.773 78.829-1.975 57.141-4.434 128.254 7.41 233.604.453 4.043 2.373 7.764 5.406 10.478.193.174.783.701.408 1.684s-1.167.982-1.427.982z"/></g></svg>