<svg id="Capa_1" enable-background="new 0 0 512 512" height="512" viewBox="0 0 512 512" width="512" xmlns="http://www.w3.org/2000/svg"><g><g><path d="m394.035 53.386-78.395-28.185-59.64-2.874-59.64 2.874-78.396 28.186c-14.535 5.226-25.224 17.746-28.107 32.92l-68.151 358.777h53.972l47.58-246.055 18.8 36.02c7.861 15.062 10.516 32.298 7.54 49.025-11.604 65.241-27.492 149.541-16.101 215.72.468 2.718 2.821 4.706 5.579 4.706h116.924v-20h116.931c2.759 0 5.104-1.995 5.578-4.713 11.382-65.3-4.517-130.56-16.12-195.78-2.971-16.702-.297-33.919 7.552-48.958l18.8-36.02 47.58 246.055h53.973l-68.152-358.778c-2.882-15.174-13.572-27.694-28.107-32.92z" fill="#eab14d"/></g><g><path d="m234.294 34.807 59.64 2.874 78.396 28.186c14.535 5.226 25.224 17.746 28.107 32.92l65.781 346.298h24.077l-68.153-358.779c-2.883-15.175-13.572-27.695-28.107-32.92l-78.395-28.185-59.64-2.874z" fill="#e49542"/></g><path d="m26.089 445.084h45.498v31.818h-45.498z" fill="#f9f6f9"/><path d="m440.413 445.084h45.498v31.818h-45.498z" fill="#f9f6f9" transform="matrix(-1 0 0 -1 926.324 921.986)"/><path d="m468.028 445.084h17.882v31.818h-17.882z" fill="#dddaec"/><path d="m304.985 87.374 41.756-11.097c-9.963-25.324-23.04-47.853-41.561-65.495-2.225-2.119-5.193-3.283-8.266-3.283h-40.914-40.915c-3.072 0-6.041 1.164-8.266 3.283-18.52 17.641-31.597 40.171-41.561 65.495l41.756 11.097-16.353 27.907 65.339 99.41v-28.618l65.338-70.792z" fill="#ffe07d"/><path d="m256 92.14 40.042-49.152h-80.084z" fill="#86a0af"/><path d="m363.554 290.48c-.392-2.158-.781-4.315-1.165-6.473-1.223-6.873-1.474-13.832-.818-20.692-70.383 10.398-140.766 10.398-211.15-.001.657 6.882.403 13.863-.823 20.76-.376 2.115-.758 4.254-1.142 6.407 71.7 10.791 143.399 10.791 215.098-.001z" fill="#ffe07d"/><path d="m214.007 312.775h-17.453c-4.827 0-8.74-3.913-8.74-8.74v-42.065c0-4.827 3.913-8.74 8.74-8.74h17.453c4.827 0 8.74 3.913 8.74 8.74v42.065c0 4.827-3.913 8.74-8.74 8.74z" fill="#dd636e"/><path d="m16.334 445.084h65.377c2.498 0 4.676-1.7 5.281-4.124l4.254-17.02c.859-3.436-1.74-6.764-5.281-6.764h-65.377c-2.498 0-4.676 1.7-5.281 4.124l-4.254 17.02c-.859 3.436 1.739 6.764 5.281 6.764z" fill="#ffe07d"/><path d="m495.665 445.084h-65.377c-2.498 0-4.676-1.7-5.281-4.124l-4.254-17.02c-.859-3.436 1.74-6.764 5.281-6.764h65.377c2.498 0 4.676 1.7 5.281 4.124l4.254 17.02c.86 3.436-1.739 6.764-5.281 6.764z" fill="#ffe07d"/><path d="m500.947 438.32-4.254-17.02c-.606-2.424-2.783-4.124-5.281-4.124h-21.334c2.498 0 4.676 1.7 5.281 4.124l4.254 17.02c.859 3.436-1.74 6.764-5.281 6.764h21.334c3.541 0 6.139-3.328 5.281-6.764z" fill="#ffd064"/><g><path d="m197.52 222.191h1.576c4.143 0 7.5-3.357 7.5-7.5s-3.357-7.5-7.5-7.5h-1.576c-4.143 0-7.5 3.357-7.5 7.5s3.357 7.5 7.5 7.5z"/><path d="m223.879 222.191h1.576c4.143 0 7.5-3.357 7.5-7.5s-3.357-7.5-7.5-7.5h-1.576c-4.143 0-7.5 3.357-7.5 7.5s3.358 7.5 7.5 7.5z"/><path d="m197.52 351.916h1.576c4.143 0 7.5-3.357 7.5-7.5s-3.357-7.5-7.5-7.5h-1.576c-4.143 0-7.5 3.357-7.5 7.5s3.357 7.5 7.5 7.5z"/><path d="m223.879 351.916h1.576c4.143 0 7.5-3.357 7.5-7.5s-3.357-7.5-7.5-7.5h-1.576c-4.143 0-7.5 3.357-7.5 7.5s3.358 7.5 7.5 7.5z"/><path d="m197.52 391.566h1.576c4.143 0 7.5-3.357 7.5-7.5s-3.357-7.5-7.5-7.5h-1.576c-4.143 0-7.5 3.357-7.5 7.5s3.357 7.5 7.5 7.5z"/><path d="m223.879 391.566h1.576c4.143 0 7.5-3.357 7.5-7.5s-3.357-7.5-7.5-7.5h-1.576c-4.143 0-7.5 3.357-7.5 7.5s3.358 7.5 7.5 7.5z"/><path d="m197.52 431.217h1.576c4.143 0 7.5-3.357 7.5-7.5s-3.357-7.5-7.5-7.5h-1.576c-4.143 0-7.5 3.357-7.5 7.5s3.357 7.5 7.5 7.5z"/><path d="m223.879 431.217h1.576c4.143 0 7.5-3.357 7.5-7.5s-3.357-7.5-7.5-7.5h-1.576c-4.143 0-7.5 3.357-7.5 7.5s3.358 7.5 7.5 7.5z"/><path d="m508.223 436.502-4.255-17.023c-1.444-5.771-6.608-9.802-12.557-9.802h-.209l-61.692-324.77c-3.362-17.7-15.983-32.482-32.938-38.578l-72.652-26.121c-4.274-5.349-8.786-10.302-13.566-14.855-3.623-3.452-8.397-5.353-13.44-5.353h-25.915c-4.143 0-7.5 3.357-7.5 7.5s3.357 7.5 7.5 7.5h25.915c1.174 0 2.272.431 3.094 1.214 14.584 13.892 26.583 31.943 36.541 55.012l-33.49 8.9c-2.265.602-4.118 2.227-5.01 4.394-.892 2.166-.72 4.625.465 6.646l13.543 23.112-48.558 52.61v-72.08l38.356-47.083c1.829-2.245 2.202-5.342.96-7.956-1.243-2.615-3.879-4.281-6.774-4.281h-80.084c-2.896 0-5.531 1.666-6.774 4.281-1.242 2.614-.869 5.711.96 7.956l38.356 47.083v94.816l-49.012-74.57 13.997-23.889c1.185-2.021 1.356-4.48.465-6.646-.892-2.167-2.745-3.792-5.009-4.394l-33.49-8.9c9.958-23.068 21.957-41.12 36.541-55.012.821-.783 1.92-1.214 3.093-1.214h25.928c4.143 0 7.5-3.357 7.5-7.5s-3.357-7.5-7.5-7.5h-25.928c-5.043 0-9.815 1.901-13.438 5.353-4.781 4.554-9.292 9.507-13.567 14.856l-72.652 26.121c-16.955 6.096-29.576 20.877-32.938 38.578l-61.691 324.77h-.209c-5.951 0-11.115 4.032-12.558 9.805l-4.253 17.018c-.975 3.894-.116 7.941 2.354 11.105s6.188 4.979 10.203 4.979h2.254v24.318c0 4.143 3.357 7.5 7.5 7.5h45.498c4.143 0 7.5-3.357 7.5-7.5v-24.318h2.624c5.95 0 11.113-4.031 12.559-9.806l4.254-17.02c.973-3.894.114-7.941-2.356-11.104-1.603-2.053-3.737-3.526-6.131-4.315l36.51-188.803 8.864 16.982c7.058 13.523 9.474 29.235 6.805 44.243-8.807 49.389-18.323 101.482-19.911 152.278-.13 4.14 3.122 7.602 7.262 7.73.08.003.159.004.238.004 4.034 0 7.365-3.205 7.492-7.266 1.432-45.789 9.641-93.677 17.273-136.572 8.568 1.203 17.178 2.256 25.745 3.155v1.944c0 8.954 7.285 16.239 16.239 16.239h17.454c8.424 0 15.367-6.45 16.16-14.67 6.102.218 12.213.359 18.333.421v190.976h-107.867c-1.622-9.808-2.701-20.587-3.211-32.07-.183-4.139-3.703-7.372-7.824-7.16-4.138.183-7.344 3.687-7.16 7.824.562 12.71 1.798 24.646 3.672 35.479 1.097 6.331 6.55 10.927 12.967 10.927h116.922c4.143 0 7.5-3.357 7.5-7.5v-12.5h109.432c6.41 0 11.864-4.595 12.967-10.925 10.069-57.768-.77-115.777-11.252-171.877-1.624-8.692-3.303-17.681-4.873-26.504-2.662-14.963-.241-30.651 6.816-44.175l8.865-16.984 36.509 188.804c-2.395.79-4.529 2.262-6.132 4.316-2.47 3.164-3.328 7.212-2.354 11.104l4.255 17.021c1.444 5.772 6.607 9.804 12.557 9.804h2.624v24.318c0 4.143 3.357 7.5 7.5 7.5h45.498c4.143 0 7.5-3.357 7.5-7.5v-24.318h2.255c4.015 0 7.733-1.814 10.203-4.979s3.327-7.211 2.353-11.103zm-227.965-386.014-24.259 29.777-24.259-29.777zm-216.172 418.914h-30.498v-16.818h30.498zm16.02-31.818h-61.138l3.226-12.907h61.138zm49.899-241.836c-.315-.722-4.026-9.607-2.761-24.536.35-4.127-2.713-7.756-6.841-8.106-4.108-.334-7.756 2.713-8.106 6.841-1.273 15.025 1.53 25.299 3.177 29.834l-40.588 209.896h-38.821l61.16-321.971c2.376-12.508 11.295-22.954 23.276-27.262l53.202-19.128c-5.644 9.697-10.773 20.394-15.425 32.215-.783 1.99-.679 4.221.286 6.13s2.7 3.315 4.768 3.864l32.226 8.564-11.367 19.399c-1.442 2.461-1.363 5.527.203 7.911l64.105 97.535v46.631c-6.096-.064-12.184-.212-18.253-.432v-1.165c0-8.954-7.285-16.239-16.239-16.239h-17.454c-8.138 0-14.878 6.024-16.042 13.843-7.796-.833-15.63-1.802-23.426-2.892-1.461-8.72-4.263-17.219-8.378-25.103zm27.169 88.41c.654-4.029 1.018-8.095 1.079-12.162 7.351.994 14.725 1.867 22.061 2.637v12.379c-7.704-.826-15.439-1.779-23.14-2.854zm58.072 19.877c0 .684-.556 1.239-1.239 1.239h-17.454c-.684 0-1.239-.556-1.239-1.239v-42.065c0-.684.556-1.239 1.239-1.239h17.454c.684 0 1.239.556 1.239 1.239zm15-13.442v-12.447c6.07.215 12.157.357 18.253.42v12.453c-6.093-.061-12.177-.206-18.253-.426zm141.13 186.407h-107.877v-170.979c31.329-.335 62.787-2.701 93.981-7.081.808 4.375 1.621 8.73 2.422 13.013 10.143 54.292 20.63 110.42 11.474 165.047zm-8.085-245.421c-4.116 7.887-6.92 16.383-8.382 25.096-12.282 1.716-24.728 3.148-37.099 4.229-4.126.36-7.179 3.998-6.818 8.125.342 3.904 3.616 6.847 7.463 6.847.219 0 .439-.009.662-.028 11.536-1.008 23.141-2.311 34.622-3.862.061 4.074.427 8.144 1.085 12.177-30.317 4.231-60.881 6.513-91.325 6.846v-12.443c8.46-.087 16.912-.318 25.318-.7 4.139-.188 7.341-3.694 7.152-7.832s-3.704-7.312-7.832-7.152c-8.181.372-16.405.597-24.639.684v-74.561l63.35-68.637c2.238-2.426 2.628-6.03.959-8.879l-11.366-19.399 32.227-8.564c2.067-.549 3.802-1.955 4.768-3.864.965-1.909 1.069-4.139.286-6.13-4.651-11.821-9.781-22.519-15.425-32.215l53.202 19.128c11.98 4.308 20.899 14.754 23.275 27.262l61.16 321.971h-38.822l-40.587-209.896c1.647-4.536 4.449-14.81 3.176-29.834-.351-4.129-3.996-7.178-8.106-6.841-4.128.351-7.19 3.979-6.841 8.106 1.267 14.951-2.457 23.842-2.762 24.541zm65.377 193.098h61.138l3.226 12.907h-61.138zm49.742 44.725h-30.498v-16.818h30.498z"/></g></g></svg>