<svg id="Capa_1" enable-background="new 0 0 511.997 511.997" height="512" viewBox="0 0 511.997 511.997" width="512" xmlns="http://www.w3.org/2000/svg"><g><path d="m499.572 462.466-56.68-366.081c-4.836-31.235-26.801-57.109-56.836-66.952l-66.94-21.937c-42.079 22.864-84.157 22.864-126.236 0l-66.94 21.937c-30.035 9.843-52 35.717-56.836 66.952l-56.68 366.081c-.219 1.416.876 2.694 2.309 2.694h74.429c1.111 0 2.068-.782 2.289-1.87l40.54-199.071v182.327h248.014v-182.327l40.54 199.071c.222 1.088 1.179 1.87 2.289 1.87h74.429c1.433 0 2.529-1.278 2.309-2.694z" fill="#9dc6fb"/><g><path d="m499.572 462.466-56.68-366.081c-4.836-31.235-26.801-57.109-56.836-66.952l-66.94-21.937c-42.079 22.864-66.228 35.864-24.15 13l66.94 21.937c30.035 9.843 52 35.717 56.836 66.952l55.084 355.775h23.436c1.434 0 2.53-1.278 2.31-2.694z" fill="#80b4fb"/></g><path d="m76.565 504.497h-64.558l6.155-39.337h64.558z" fill="#86a0af"/><path d="m435.431 504.497h64.558l-6.154-39.337h-64.558z" fill="#86a0af"/><path d="m493.835 465.16h-21.431l6.154 39.337h21.432z" fill="#738b95"/><path d="m366.11 479.935h-220.223c-7.674 0-13.895-6.221-13.895-13.895v-19.493h248.014v19.493c-.001 7.674-6.222 13.895-13.896 13.895z" fill="#86a0af"/><path d="m255.998 111.728 63.118-104.231c-42.079 22.864-84.157 22.864-126.236 0z" fill="#cbe2ff"/><path d="m276.974 22.737c-5.074 15.763-15.409 38.379-36.406 63.51l15.43 25.481 63.118-104.231c-14.047 7.633-28.094 12.703-42.142 15.24z" fill="#bed8fb"/><path d="m248.432 124.223 70.684-116.726 33.343 10.927-88.027 137.184z" fill="#738b95"/><path d="m267.963 128.753-11.965-17.025-63.118-104.231-33.343 10.927 71.148 121c4.05 6.888 6.186 14.734 6.186 22.724v284.398h38.254v-295.146c0-8.106-2.501-16.015-7.162-22.647z" fill="#86a0af"/><g><path d="m507.399 503.338-5.024-32.114c.876-.534 1.675-1.204 2.358-2.001 1.871-2.184 2.691-5.065 2.251-7.903l-49.246-318.068c-.634-4.094-4.472-6.887-8.56-6.265-4.094.634-6.898 4.466-6.265 8.56l48.324 312.114h-64.186l-39.548-194.2v-87.514c0-4.143-3.357-7.5-7.5-7.5s-7.5 3.357-7.5 7.5v263.1h-89.88v-287.648c0-3.024-.287-6.011-.85-8.931l73.863-115.111 28.082 9.203c27.5 9.012 47.334 32.375 51.761 60.972l2.791 18.026c.634 4.095 4.473 6.889 8.56 6.265 4.094-.634 6.898-4.466 6.265-8.56l-2.791-18.026c-5.297-34.206-29.021-62.151-61.913-72.931l-66.939-21.936c-1.899-.623-4.059-.47-5.917.537-40.062 21.768-79.012 21.768-119.074 0-1.771-.961-3.945-1.183-5.917-.537l-66.939 21.937c-32.893 10.779-56.616 38.724-61.913 72.93l-47.912 309.451c-.634 4.094 2.171 7.926 6.265 8.56.389.06.775.089 1.156.089 3.636 0 6.829-2.649 7.403-6.354l47.912-309.45c4.427-28.597 24.261-51.96 51.76-60.972l27.858-9.129 68.087 115.794c3.37 5.73 5.151 12.273 5.151 18.923v276.897h-89.881v-263.1c0-4.143-3.357-7.5-7.5-7.5s-7.5 3.357-7.5 7.5v87.514l-39.547 194.2h-64.186l3.204-20.69c.634-4.094-2.171-7.926-6.265-8.56-4.099-.627-7.926 2.173-8.56 6.265l-4.124 26.642c-.441 2.841.379 5.723 2.25 7.906.683.797 1.482 1.467 2.358 2.001l-5.024 32.115c-.339 2.165.287 4.37 1.712 6.035s3.507 2.624 5.698 2.624h64.558c3.694 0 6.839-2.69 7.41-6.341l5.162-32.996h.024c4.655 0 8.709-3.311 9.64-7.874l25.689-126.152v127.405c0 11.797 9.598 21.395 21.396 21.395h153.226c4.143 0 7.5-3.357 7.5-7.5s-3.357-7.5-7.5-7.5h-153.225c-3.526 0-6.396-2.868-6.396-6.395v-11.994h233.014v11.994c0 3.526-2.869 6.395-6.396 6.395h-37.011c-4.143 0-7.5 3.357-7.5 7.5s3.357 7.5 7.5 7.5h37.011c11.798 0 21.396-9.598 21.396-21.395v-127.408l25.691 126.155c.929 4.562 4.982 7.873 9.638 7.873h.025l5.162 32.996c.571 3.65 3.716 6.341 7.41 6.341h64.558c2.191 0 4.273-.959 5.698-2.624s2.051-3.87 1.712-6.035zm-437.252-6.341h-49.375l3.807-24.337h49.376zm204.68-371.477c-1.002-1.511-.025-.056-9.876-14.096l57.494-94.943 18.467 6.052zm25.403-101.314-44.232 73.044-44.232-73.043c29.427 10.546 59.037 10.546 88.464-.001zm-55.858 414.84v-276.898c0-9.32-2.497-18.493-7.222-26.526l-66.426-112.972 18.828-6.17c88.574 146.267 48.499 80.845 72.275 116.585 3.793 5.397 5.798 11.737 5.798 18.334v287.646h-23.253zm197.478 57.951-3.808-24.337h49.375l3.808 24.337z"/><path d="m252.511 56.782h6.975c4.143 0 7.5-3.357 7.5-7.5s-3.357-7.5-7.5-7.5h-6.975c-4.143 0-7.5 3.357-7.5 7.5s3.357 7.5 7.5 7.5z"/><path d="m255.998 199.166c-4.143 0-7.5 3.357-7.5 7.5v6.19c0 4.143 3.357 7.5 7.5 7.5s7.5-3.357 7.5-7.5v-6.19c0-4.143-3.357-7.5-7.5-7.5z"/><path d="m255.998 262.922c-4.143 0-7.5 3.357-7.5 7.5v6.189c0 4.143 3.357 7.5 7.5 7.5s7.5-3.357 7.5-7.5v-6.189c0-4.143-3.357-7.5-7.5-7.5z"/><path d="m255.998 326.677c-4.143 0-7.5 3.357-7.5 7.5v6.19c0 4.143 3.357 7.5 7.5 7.5s7.5-3.357 7.5-7.5v-6.19c0-4.143-3.357-7.5-7.5-7.5z"/><path d="m255.998 390.433c-4.143 0-7.5 3.357-7.5 7.5v6.19c0 4.143 3.357 7.5 7.5 7.5s7.5-3.357 7.5-7.5v-6.19c0-4.143-3.357-7.5-7.5-7.5z"/></g></g></svg>