<svg id="Capa_1" enable-background="new 0 0 512 512" height="512" viewBox="0 0 512 512" width="512" xmlns="http://www.w3.org/2000/svg"><g><path d="m449.036 278.772h46.87c4.746 0 8.594-3.848 8.594-8.594v-28.358c0-4.746-3.848-8.594-8.594-8.594h-46.87z" fill="#f4c3c6"/><path d="m460.634 208.632c3.212 31.578 3.212 63.156 0 94.734-1.9 18.672-18.445 32.28-37.157 30.813-45.955-3.603-91.909-15.061-137.864-34.373v-87.615c45.955-19.312 91.909-30.769 137.864-34.373 18.712-1.466 35.257 12.142 37.157 30.814z" fill="#dd636e"/><path d="m285.613 299.807c12.897 5.42 25.794 10.198 38.69 14.38 1.959-3.591 3.074-7.71 3.074-12.089v-92.198c0-4.379-1.114-8.498-3.074-12.089-12.897 4.182-25.794 8.96-38.69 14.38z" fill="#da4a54"/><path d="m62.965 278.772h-46.87c-4.746 0-8.594-3.848-8.594-8.594v-28.358c0-4.746 3.848-8.594 8.594-8.594h46.87z" fill="#f4c3c6"/><path d="m51.367 208.632c-3.212 31.578-3.212 63.156 0 94.734 1.9 18.672 18.445 32.28 37.157 30.813 45.955-3.603 91.909-15.061 137.864-34.373v-87.615c-45.955-19.312-91.909-30.769-137.864-34.373-18.712-1.466-35.258 12.142-37.157 30.814z" fill="#dd636e"/><path d="m184.623 209.901v92.198c0 4.379 1.115 8.498 3.074 12.089 12.897-4.183 25.794-8.961 38.69-14.38v-87.615c-12.897-5.42-25.794-10.198-38.69-14.38-1.959 3.59-3.074 7.708-3.074 12.088z" fill="#da4a54"/><path d="m289.57 307.978h-67.14c-10.166 0-18.408-8.241-18.408-18.408v-67.14c0-10.166 8.242-18.408 18.408-18.408h67.14c10.166 0 18.408 8.242 18.408 18.408v67.14c0 10.166-8.241 18.408-18.408 18.408z" fill="#e28086"/><path d="m495.906 225.727h-26.336c-.379-5.963-.87-11.916-1.474-17.853-2.324-22.852-22.182-39.332-45.204-37.532-42.673 3.347-84.214 13.395-123.292 28.201-3.086-1.301-6.475-2.021-10.029-2.021h-67.14c-3.563 0-6.96.723-10.053 2.03-6.625-2.509-13.264-4.871-19.914-7.064-.002-.001-.003-.001-.005-.002-32.271-10.641-64.776-17.548-96.915-20.571-4.11-.386-7.781 2.641-8.169 6.765s2.641 7.781 6.765 8.169c8.086.761 16.2 1.792 24.328 3.061l-61.89 57.453c.258-12.356 1.003-24.698 2.252-36.971.757-7.445 4.467-14.055 10.446-18.612 3.295-2.511 3.93-7.217 1.419-10.511-2.509-3.294-7.216-3.93-10.511-1.419-9.181 6.996-15.113 17.575-16.278 29.024-.604 5.937-1.095 11.89-1.474 17.853h-26.337c-8.875 0-16.095 7.219-16.095 16.093v28.358c0 8.874 7.22 16.094 16.095 16.094h26.336c.379 5.963.87 11.916 1.474 17.854 2.326 22.865 22.199 39.342 45.204 37.53 40.868-3.204 82.324-12.704 123.261-28.212 3.095 1.309 6.494 2.033 10.06 2.033h18.576c4.143 0 7.5-3.357 7.5-7.5s-3.357-7.5-7.5-7.5h-18.576c-6.015 0-10.908-4.894-10.908-10.908v-67.14c0-6.015 4.894-10.908 10.908-10.908h67.14c6.015 0 10.908 4.894 10.908 10.908v67.14c0 6.015-4.894 10.908-10.908 10.908h-18.576c-4.143 0-7.5 3.357-7.5 7.5s3.357 7.5 7.5 7.5h18.576c3.555 0 6.944-.721 10.031-2.022 52.504 19.892 106.739 28.334 126.682 28.334 8.217 0 16.133-2.359 23.073-6.905 3.465-2.271 4.435-6.919 2.165-10.384-2.271-3.466-6.919-4.431-10.384-2.165-5.09 3.335-10.995 4.844-17.074 4.366-5.772-.453-11.557-1.05-17.35-1.761l48.238-45.919c-.377 7.539-.936 15.065-1.682 22.567-.41 4.122 2.599 7.796 6.72 8.206.253.025.504.038.752.038 3.808 0 7.069-2.889 7.454-6.758.556-5.589 1.008-11.193 1.365-16.804h26.346c8.874 0 16.094-7.22 16.094-16.094v-28.356c0-8.874-7.22-16.093-16.094-16.093zm-296.136 76.384c-17.55 6.323-35.176 11.503-52.786 15.515l49.538-45.987v17.931c0 4.547 1.182 8.822 3.248 12.541zm-24.279-100.225-115.262 107c-.697-1.985-1.177-4.085-1.4-6.278-1.21-11.885-1.95-23.834-2.23-35.799l80.358-74.597c12.839 2.601 25.696 5.837 38.534 9.674zm-159.396 69.387c-.604 0-1.095-.49-1.095-1.094v-28.359c0-.604.491-1.094 1.095-1.094h25.628c-.326 10.177-.326 20.368 0 30.546h-25.628zm71.843 55.429c-7.094.555-13.716-1.581-18.862-5.561l122.817-114.014c2.628.894 5.255 1.812 7.88 2.757-2.068 3.719-3.25 7.996-3.25 12.545v28.741l-77.043 71.521c-.105.097-.198.202-.295.303-10.446 1.652-20.868 2.895-31.247 3.708zm336.125-141.405c10.502-.83 19.981 4.251 25.148 12.5l-116.733 111.12c-6.763-2.089-13.517-4.358-20.259-6.787 2.073-3.723 3.259-8.005 3.259-12.561v-11.011l96.794-92.141c3.935-.427 7.867-.812 11.791-1.12zm-111.844 24.571c24.76-8.919 49.692-15.568 74.534-19.868l-71.275 67.848v-35.418c.001-4.556-1.186-8.838-3.259-12.562zm75.639 112.313c-12.878-2.193-25.781-5.012-38.674-8.455l104.455-99.433c1.312 14.435 1.935 28.958 1.878 43.481zm109.142-52.002c0 .604-.49 1.094-1.094 1.094h-25.631c.106-3.297.186-6.595.223-9.894.012-.229.013-.458.003-.688.066-6.656-.013-13.314-.225-19.965h25.629c.604 0 1.094.49 1.094 1.094v28.359z"/></g></svg>