<svg id="Capa_1" enable-background="new 0 0 511.65 511.65" height="512" viewBox="0 0 511.65 511.65" width="512" xmlns="http://www.w3.org/2000/svg"><g><path d="m398.193 504.15c-17.791 0-17.791-10.941-35.583-10.941s-17.792 10.941-35.584 10.941c-17.794 0-17.794-10.941-35.588-10.941s-17.794 10.941-35.589 10.941-17.795-10.941-35.59-10.941-17.795 10.941-35.589 10.941c-17.797 0-17.797-10.941-35.594-10.941s-17.797 10.941-35.594 10.941c8.78-72.645 7.374-132.113 0-218.56-24.798-17.211-48.857-21.847-72.147-13.488-13.096 4.7-27.165-3.958-28.976-17.753-3.067-23.37-4.638-46.244-4.382-68.513.489-42.693 35.248-77.042 77.944-77.042 17.923 0 35.395-5.615 49.962-16.055l25.181-18.048 94.773-7.749 94.773 7.749 25.181 18.048c14.568 10.441 32.04 16.055 49.962 16.055 42.696 0 77.455 34.349 77.944 77.042.255 22.27-1.315 45.144-4.382 68.513-1.81 13.796-15.879 22.453-28.976 17.753-23.291-8.359-47.35-3.723-72.147 13.488-7.373 86.448-8.779 145.915.001 218.56z" fill="#e28086"/><path d="m503.698 185.835c-.489-42.693-35.249-77.042-77.945-77.042-17.923 0-35.395-5.615-49.962-16.055l-25.181-18.048-94.773-7.749-30.612 15.566 94.773 7.749 25.181 18.048c14.568 10.441 32.04 16.055 49.963 16.055 42.696 0 77.455 34.349 77.944 77.042.255 22.27-1.315 45.144-4.382 68.513-.068.522-.16 1.033-.263 1.54.634.208 1.267.421 1.9.648 13.096 4.7 27.165-3.958 28.976-17.753 3.066-23.37 4.636-46.244 4.381-68.514z" fill="#dd636e"/><path d="m398.138 286.244c5.377-46.754 15.078-68.978 15.078-68.978-17.811-1.978-34.061 10.125-37.438 27.724-3.529 18.391-6.233 37.125-8.197 56.165-6.462 75.749-8.34 130.783-2.799 192.119 15.641.856 16.379 10.876 33.411 10.876-8.758-72.46-7.38-131.815-.055-217.906z" fill="#dd636e"/><path d="m329.354 15.356c-49.011-10.941-98.023-10.941-147.034 0l-31.985 36.791c15.042 35.141 38.31 72.28 69.883 93.847l35.618-20.828 35.618 20.828c31.574-21.567 54.841-58.706 69.883-93.847z" fill="#f4c3c6"/><path d="m211.444 55.549c8.014 24.131 23.725 47.212 44.393 69.616 20.667-22.404 36.379-45.485 44.393-69.616-29.595-13.247-59.19-13.247-88.786 0z" fill="#e28086"/><path d="m234.85 99.694c6.205 8.598 13.248 17.082 20.987 25.472 20.667-22.404 36.379-45.485 44.393-69.616-7.439-3.33-14.878-5.821-22.317-7.477-5.673 14.175-17.928 35.853-43.063 51.621z" fill="#dd636e"/><path d="m118.898 437.595 136.939-50.963 136.939 50.963c-.678-16.95-.812-33.878-.466-51.39l-128.102-47.675c-5.4-2.01-11.342-2.01-16.742 0l-128.102 47.674c.347 17.513.212 34.44-.466 51.391z" fill="#f4c3c6"/><path d="m392.309 386.362c.001-.053.001-.104.002-.157l-29.745-11.07c-.779 17.588-1.144 34.354-1.032 50.833l31.243 11.627c-.648-16.406-.826-33.031-.468-51.233z" fill="#eab1b7"/><path d="m503.699 194.81h.061c4.142-.033 7.473-3.418 7.44-7.56v-.599c0-.303.001-.605-.003-.903-.259-22.635-9.27-43.865-25.372-59.779-16.101-15.913-37.435-24.677-60.071-24.677-16.454 0-32.221-5.066-45.594-14.65l-19.913-14.272c2.71-5.443 5.38-11.182 7.987-17.272 1.132-2.644.652-5.701-1.234-7.872l-31.984-36.791c-1.052-1.209-2.462-2.05-4.026-2.399-19.818-4.424-39.943-7.125-59.816-8.029-4.134-.15-7.646 3.014-7.833 7.151-.188 4.138 3.014 7.645 7.151 7.833 18.204.828 36.639 3.235 54.832 7.159l27.244 31.338c-10.406 23.28-30.725 60.729-61.511 83.584l-23.511-13.748c19.568-22.449 32.62-43.87 39.752-65.26l4.838-13.461c1.4-3.897-.624-8.193-4.522-9.594-3.894-1.402-8.192.622-9.594 4.521l-2.195 6.108c-26.569-9.993-53.403-9.992-79.972 0l-2.196-6.109c-1.401-3.898-5.7-5.923-9.595-4.521-3.897 1.4-5.922 5.696-4.521 9.595l4.847 13.484c0 .001 0 .001.001.001 7.132 21.379 20.18 42.793 39.742 65.234l-23.51 13.748c-30.788-22.856-51.105-60.305-61.511-83.584l27.244-31.338c18.193-3.924 36.628-6.331 54.832-7.159 4.138-.188 7.34-3.695 7.151-7.833-.188-4.139-3.688-7.312-7.833-7.151-19.873.904-39.998 3.605-59.816 8.029-1.564.35-2.975 1.19-4.026 2.399l-31.984 36.791c-1.887 2.171-2.366 5.229-1.234 7.872 2.607 6.09 5.277 11.829 7.986 17.273l-19.914 14.272c-13.373 9.584-29.139 14.65-45.593 14.65-22.638 0-43.972 8.764-60.072 24.677-16.104 15.916-25.115 37.146-25.374 59.781-.25 21.787 1.246 45.196 4.445 69.575 1.163 8.862 6.205 16.613 13.832 21.268 7.596 4.635 16.748 5.57 25.113 2.569 20.058-7.198 40.513-3.721 62.444 10.639 6.641 78.909 8.653 139.572-.276 213.45-.257 2.131.41 4.27 1.834 5.875 1.423 1.606 3.467 2.525 5.612 2.525 11.02 0 16.955-3.648 21.725-6.581 4.117-2.53 7.092-4.359 13.87-4.359 6.777 0 9.752 1.829 13.869 4.359 4.77 2.932 10.705 6.581 21.725 6.581 11.019 0 16.954-3.649 21.723-6.581 4.116-2.531 7.091-4.359 13.866-4.359 6.777 0 9.751 1.829 13.868 4.359 4.769 2.932 10.704 6.581 21.723 6.581s16.953-3.649 21.723-6.581c4.115-2.531 7.09-4.359 13.865-4.359 6.776 0 9.751 1.828 13.867 4.359 4.769 2.932 10.704 6.581 21.722 6.581s16.952-3.649 21.721-6.582c4.115-2.53 7.089-4.358 13.862-4.358 6.774 0 9.748 1.828 13.863 4.359 4.769 2.932 10.703 6.581 21.72 6.581 2.146 0 4.189-.919 5.612-2.525 1.424-1.605 2.091-3.744 1.834-5.875-8.888-73.528-7.038-132.809-.275-213.451 21.933-14.359 42.386-17.838 62.443-10.638 8.364 3.001 17.52 2.064 25.114-2.569 7.627-4.654 12.669-12.405 13.832-21.268 1.666-12.7 2.884-25.343 3.62-37.576.249-4.135-2.901-7.688-7.036-7.938-4.131-.27-7.688 2.901-7.937 7.035-.716 11.885-1.9 24.174-3.521 36.527-.569 4.34-3.038 8.136-6.772 10.414-3.701 2.26-8.161 2.718-12.234 1.255-21.287-7.639-43.338-5.505-65.725 6.309 1.69-11.568 5.326-29.507 13.138-51.582 1.382-3.905-.663-8.19-4.568-9.572-3.903-1.382-8.19.664-9.572 4.568-14.188 40.095-15.357 67.329-15.445 70.419-2.769 32.482-4.782 61.884-5.624 90.326l-118.252-44.009c-7.086-2.637-14.889-2.637-21.975 0l-118.252 44.01c-.842-28.442-2.855-57.845-5.624-90.327-.089-3.09-1.257-30.323-15.444-70.419-1.382-3.906-5.668-5.953-9.572-4.568-3.904 1.382-5.95 5.667-4.568 9.572 7.779 21.984 11.42 39.966 13.12 51.573-22.381-11.806-44.429-13.938-65.707-6.299-4.071 1.459-8.531 1.004-12.233-1.256-3.734-2.278-6.203-6.074-6.772-10.414-3.108-23.679-4.562-46.372-4.319-67.452.44-38.393 32.042-69.628 70.445-69.628 19.607 0 38.395-6.037 54.331-17.459l18.259-13.086c20.09 35.658 41.577 55.577 57.477 66.438 1.272.869 2.75 1.307 4.23 1.307.241 0 .481-.024.722-.047v132.1c0 4.143 3.357 7.5 7.5 7.5s7.5-3.357 7.5-7.5v-140.057l12.396-7.249v110.711c0 4.143 3.357 7.5 7.5 7.5s7.5-3.357 7.5-7.5v-110.711l12.397 7.249v140.057c0 4.143 3.357 7.5 7.5 7.5s7.5-3.357 7.5-7.5v-132.091c1.717.166 3.473-.258 4.952-1.268 15.899-10.86 37.386-30.78 57.477-66.439l18.258 13.086c15.937 11.422 34.725 17.459 54.332 17.459 38.403 0 70.005 31.235 70.445 69.632.002.227.001.454.001.682v.764c.032 4.122 3.384 7.44 7.498 7.44zm-253.617 150.75c3.711-1.381 7.799-1.381 11.51 0l123.129 45.823c-.174 12.113-.111 23.773.19 35.282l-126.458-47.062c-1.688-.627-3.545-.627-5.232 0l-70.173 26.115c-3.882 1.445-5.857 5.763-4.413 9.646 1.444 3.881 5.763 5.855 9.646 4.413l67.557-25.142 129.68 48.261c.785 17.005 2.117 34.274 4.089 52.268-1.825-.75-3.437-1.741-5.276-2.873-4.769-2.932-10.703-6.581-21.721-6.581-11.017 0-16.951 3.649-21.72 6.581-4.115 2.531-7.089 4.359-13.863 4.359-6.775 0-9.75-1.828-13.866-4.359-4.769-2.932-10.704-6.581-21.723-6.581s-16.953 3.649-21.722 6.581c-4.116 2.531-7.091 4.359-13.866 4.359-6.776 0-9.75-1.828-13.867-4.359-4.769-2.932-10.704-6.581-21.724-6.581-11.018 0-16.953 3.649-21.722 6.581-4.116 2.531-7.091 4.359-13.867 4.359-6.777 0-9.752-1.829-13.869-4.359-4.77-2.932-10.705-6.581-21.725-6.581s-16.956 3.649-21.726 6.581c-1.843 1.133-3.456 2.124-5.284 2.875 1.973-17.995 3.305-35.264 4.09-52.27l34.001-12.653c3.882-1.445 5.857-5.763 4.413-9.646-1.445-3.882-5.764-5.855-9.646-4.413l-28.161 10.48c.302-11.509.364-23.169.19-35.282zm40.651-285.828c-6.938 17.56-18.427 35.408-34.895 54.217-16.469-18.811-27.957-36.659-34.895-54.217 23.419-8.897 46.37-8.898 69.79 0z"/></g></svg>