<svg id="Capa_1" enable-background="new 0 0 511.993 511.993" height="512" viewBox="0 0 511.993 511.993" width="512" xmlns="http://www.w3.org/2000/svg"><g><path d="m423.434 500.794h-334.876c-12.163 0-22.584-8.702-24.753-20.67l-55.858-308.165c-3.072-16.948 9.95-32.543 27.175-32.543h441.749c17.225 0 30.247 15.595 27.175 32.543l-55.858 308.165c-2.17 11.968-12.591 20.67-24.754 20.67z" fill="#ac80dd"/><path d="m476.871 139.415h-28.5c17.225 0 30.247 15.595 27.175 32.543l-59.604 328.835h7.494c12.163 0 22.584-8.702 24.753-20.67l55.858-308.165c3.07-16.948-9.952-32.543-27.176-32.543z" fill="#9d66d5"/><path d="m373.77 272.874h-235.548v22.504c0 27.929 20.103 51.804 47.624 56.561 12.462 2.154 22.389 11.624 25.126 23.972 3.711 16.74 18.555 28.654 35.701 28.654h18.647c17.147 0 31.991-11.914 35.701-28.654 2.737-12.348 12.663-21.818 25.126-23.972 27.521-4.757 47.624-28.632 47.624-56.561v-22.504z" fill="#eab14d"/><g><path d="m350.388 272.874v9.532c0 27.929-20.103 51.804-47.624 56.561-12.462 2.154-22.388 11.624-25.125 23.972-3.711 16.74-18.555 28.654-35.702 28.654h-18.647c-1.63 0-3.238-.109-4.819-.318 6.774 8.199 16.995 13.29 28.201 13.29h18.647c17.147 0 31.991-11.914 35.701-28.654 2.737-12.348 12.663-21.818 25.125-23.972 27.521-4.757 47.624-28.632 47.624-56.561v-22.504z" fill="#e49542"/></g><path d="m114.715 457.247c-8.273 0-15.254-6.157-16.286-14.366l-2.114-16.806c-1.288-10.243-11.114-17.153-21.189-14.901l-22.862 5.109c-.009.014-.014.022-.023.035l11.565 63.807c2.169 11.968 12.59 20.67 24.753 20.67h43.046c.386-1.446.612-2.957.612-4.525v-21.521c-.001-9.666-7.837-17.502-17.502-17.502z" fill="#eab14d"/><path d="m459.753 416.318c-.009-.014-.014-.022-.023-.035l-22.862-5.109c-10.075-2.251-19.901 4.659-21.189 14.902l-2.039 16.211c-1.073 8.533-8.322 14.687-16.918 14.963-9.44.303-16.944 8.045-16.944 17.499v21.521c0 1.567.226 3.079.612 4.525h43.046c12.163 0 22.584-8.702 24.753-20.67z" fill="#eab14d"/><path d="m448.188 480.124 11.565-63.807c-.009-.014-.014-.022-.023-.035l-22.862-5.109c-1.555-.348-3.1-.452-4.612-.385l-16.314 90.005h7.494c12.161.001 22.582-8.701 24.752-20.669z" fill="#e49542"/><path d="m312.495 56.221h-112.998c-5.547 0-10.043-4.496-10.043-10.043v-24.936c0-5.547 4.496-10.043 10.043-10.043h112.999c5.547 0 10.043 4.496 10.043 10.043v24.936c0 5.546-4.497 10.043-10.044 10.043z" fill="#bc95e2"/><path d="m312.495 11.198h-23.62c5.547 0 10.043 4.496 10.043 10.043v24.936c0 5.547-4.496 10.043-10.043 10.043h23.62c5.547 0 10.043-4.496 10.043-10.043v-24.935c0-5.547-4.496-10.044-10.043-10.044z" fill="#ac80dd"/><path d="m307.749 228.327h-103.505c-5.934 0-10.744-4.81-10.744-10.744v-18.636c0-5.934 4.81-10.744 10.744-10.744h103.505c5.934 0 10.744 4.81 10.744 10.744v18.636c-.001 5.934-4.811 10.744-10.744 10.744z" fill="#f9f6f9"/><path d="m307.749 188.204h-22.371c5.934 0 10.744 4.81 10.744 10.744v18.636c0 5.934-4.81 10.744-10.744 10.744h22.371c5.933 0 10.744-4.81 10.744-10.744v-18.636c-.001-5.934-4.811-10.744-10.744-10.744z" fill="#dddaec"/><g><path d="m511.425 173.296c1.862-10.271-.908-20.759-7.599-28.771-6.691-8.014-16.517-12.609-26.956-12.609h-109.331c-7.574-27.676-7.474-53.371-5.99-70.326.796-9.095-2.275-18.162-8.427-24.876-5.939-6.481-14.315-10.268-23.084-10.483v-4.989c0-9.673-7.87-17.543-17.543-17.543h-63.485c-4.143 0-7.5 3.357-7.5 7.5s3.357 7.5 7.5 7.5h63.485c1.402 0 2.543 1.141 2.543 2.543v24.937c0 1.402-1.141 2.543-2.543 2.543h-112.998c-1.402 0-2.543-1.141-2.543-2.543v-24.937c0-1.402 1.141-2.543 2.543-2.543h18.312c4.143 0 7.5-3.357 7.5-7.5s-3.357-7.5-7.5-7.5h-18.312c-9.673 0-17.543 7.87-17.543 17.543v4.989c-8.769.216-17.145 4.002-23.084 10.483-6.151 6.714-9.223 15.781-8.427 24.876 1.485 16.956 1.584 42.65-5.99 70.326h-109.331c-10.439 0-20.265 4.596-26.956 12.609-6.69 8.013-9.46 18.5-7.599 28.771l32.94 181.734c.739 4.075 4.642 6.781 8.718 6.042 4.075-.739 6.78-4.642 6.042-8.718l-13.047-71.98h95.502v15.004c0 31.663 22.646 58.558 53.846 63.951 9.504 1.643 16.993 8.789 19.081 18.205 4.507 20.332 22.199 34.531 43.023 34.531h1.823v23.731c0 4.143 3.357 7.5 7.5 7.5s7.5-3.357 7.5-7.5v-23.731h1.824c20.824 0 38.517-14.199 43.023-34.531 2.088-9.416 9.577-16.562 19.081-18.205 13.762-2.379 26.146-8.976 35.814-19.077 2.864-2.992 2.761-7.739-.232-10.604-2.992-2.866-7.741-2.76-10.604.232-7.435 7.767-16.956 12.839-27.534 14.667-15.525 2.684-27.76 14.357-31.17 29.74-2.973 13.411-14.643 22.777-28.379 22.777h-1.824v-20.272h2.938c4.143 0 7.5-3.357 7.5-7.5s-3.357-7.5-7.5-7.5h-20.876c-4.143 0-7.5 3.357-7.5 7.5s3.357 7.5 7.5 7.5h2.938v20.272h-1.823c-13.736 0-25.406-9.366-28.379-22.777-3.41-15.383-15.646-27.057-31.171-29.74-23.989-4.146-41.4-24.825-41.4-49.17v-15.004h220.549v15.004c0 3.516-.38 7.062-1.13 10.539-.872 4.049 1.702 8.039 5.752 8.912 4.04.873 8.039-1.701 8.912-5.752.973-4.514 1.466-9.123 1.466-13.699v-15.004h95.501l-23 126.892-15.268-3.412c-6.859-1.535-14.092-.094-19.841 3.951-5.749 4.043-9.549 10.361-10.426 17.334l-2.04 16.212c-.592 4.706-4.679 8.24-9.718 8.402-13.572.437-24.203 11.416-24.203 24.995v18.546h-232.56v-18.546c0-13.785-11.216-25.001-25.001-25.001-4.483 0-8.285-3.354-8.845-7.803l-2.114-16.806c-.877-6.974-4.677-13.291-10.426-17.334-5.75-4.045-12.981-5.483-19.841-3.951l-15.268 3.412-4.297-23.71c-.738-4.075-4.638-6.784-8.718-6.042-4.075.739-6.78 4.642-6.042 8.718 2.167 11.957 15.567 85.887 17.261 95.23 2.819 15.548 16.333 26.832 32.133 26.832h334.877c15.801 0 29.314-11.285 32.133-26.832 2.68-14.783 53.744-296.496 55.858-308.164zm-346.039-113.015c-.438-4.988 1.177-9.76 4.543-13.434 3.152-3.44 7.4-5.395 12.024-5.598v4.929c0 9.673 7.87 17.543 17.543 17.543h112.999c9.673 0 17.543-7.87 17.543-17.543v-4.929c4.625.203 8.873 2.158 12.024 5.598 3.366 3.674 4.98 8.445 4.543 13.434-1.524 17.401-1.675 43.356 5.424 71.635h-192.067c7.099-28.279 6.948-54.234 5.424-71.635zm-132.885 205.093-17.174-94.754c-1.066-5.884.52-11.892 4.353-16.481 3.833-4.591 9.462-7.224 15.442-7.224h104.493c-5.894 15.782-14.549 31.806-27.073 46.886h-12.123c-4.143 0-7.5 3.357-7.5 7.5s3.357 7.5 7.5 7.5h34.142c4.143 0 7.5-3.357 7.5-7.5s-3.357-7.5-7.5-7.5h-3.058c11.044-15.337 18.748-31.291 24.043-46.886h200.901c5.295 15.595 12.999 31.549 24.043 46.886h-3.057c-4.143 0-7.5 3.357-7.5 7.5s3.357 7.5 7.5 7.5h34.141c4.143 0 7.5-3.357 7.5-7.5s-3.357-7.5-7.5-7.5h-12.124c-12.524-15.08-21.179-31.104-27.073-46.886h104.493c5.98 0 11.609 2.633 15.442 7.224 3.833 4.59 5.419 10.598 4.353 16.481l-17.175 94.754zm38.683 213.412-10.286-56.749 15.862-3.545c2.783-.621 5.605-.062 7.94 1.581 2.334 1.643 3.815 4.105 4.172 6.938l2.114 16.806c1.5 11.933 11.701 20.931 23.728 20.931 5.515 0 10.001 4.486 10.001 10.001v18.546h-36.158c-8.543-.001-15.848-6.102-17.373-14.509zm369.623 0c-1.523 8.406-8.83 14.508-17.373 14.508h-36.158v-18.546c0-5.435 4.255-9.828 9.686-10.003 12.457-.4 22.6-9.452 24.118-21.522l2.04-16.212c.356-2.831 1.838-5.295 4.173-6.938s5.157-2.202 7.939-1.581l15.862 3.545z"/><path d="m203.868 312.605c-4.143 0-7.5 3.357-7.5 7.5s3.357 7.5 7.5 7.5h104.256c4.143 0 7.5-3.357 7.5-7.5s-3.357-7.5-7.5-7.5z"/><path d="m325.992 198.948c0-10.06-8.184-18.244-18.243-18.244h-103.505c-10.06 0-18.244 8.185-18.244 18.244v18.636c0 10.06 8.185 18.244 18.244 18.244h103.505c10.06 0 18.243-8.185 18.243-18.244zm-15 18.635c0 1.789-1.455 3.244-3.243 3.244h-103.505c-1.789 0-3.244-1.455-3.244-3.244v-18.636c0-1.789 1.455-3.244 3.244-3.244h103.505c1.788 0 3.243 1.455 3.243 3.244z"/></g></g></svg>