<svg id="Capa_1" enable-background="new 0 0 512.009 512.009" height="512" viewBox="0 0 512.009 512.009" width="512" xmlns="http://www.w3.org/2000/svg"><g><path d="m437.538 470.247h-103.584c-8.718 0-15.936-6.773-16.489-15.474l-21.137-332.311h157.732v331.262c0 9.126-7.397 16.523-16.522 16.523z" fill="#9dc6fb"/><path d="m302.771 223.752c25.482-2.259 50.328-6.341 73.452-12.123 28.842-7.212 54.888-16.913 77.837-28.959v-60.206h-157.732z" fill="#80b4fb"/><path d="m176.266 421.618h-80.3c-9.82 0-17.473-8.515-16.429-18.28l31.227-291.936h113.532l-31.603 295.451c-.897 8.397-7.983 14.765-16.427 14.765z" fill="#9dc6fb"/><path d="m101.148 201.306c11.045 3.867 22.598 7.312 34.638 10.323 24.034 6.01 49.932 10.173 76.467 12.371l12.044-112.597h-113.532z" fill="#80b4fb"/><path d="m454.06 364.539v-55.716h-145.878l3.544 55.716z" fill="#86a0af"/><path d="m88.712 317.572h113.532l5.169-48.326h-113.532z" fill="#86a0af"/><g><path d="m256.004 200.867c-41.516 0-83.087-4.907-120.218-14.192-38.692-9.674-72.359-23.822-100.257-42.114-5.031-3.299-6.256-10.154-2.734-15.033l84.913-117.626c3.17-4.391 9.135-5.684 13.835-2.994 27.948 15.991 75.281 26.049 124.46 26.049 49.18 0 96.513-10.058 124.462-26.049 4.7-2.689 10.665-1.396 13.835 2.994l84.913 117.627c3.522 4.878 2.297 11.734-2.734 15.033-27.898 18.292-61.565 32.439-100.257 42.114-37.131 9.284-78.702 14.191-120.218 14.191z" fill="#9dc6fb"/></g><g><path d="m479.214 129.529-84.914-117.627c-3.17-4.391-9.135-5.684-13.835-2.994-2.932 1.677-6.089 3.285-9.427 4.828l84.211 135.366c1.303 2.094 1.952 4.501 2.003 6.898 6.676-3.615 13.099-7.42 19.227-11.438 5.032-3.299 6.256-10.155 2.735-15.033z" fill="#80b4fb"/></g><path d="m146.207 189.125c15.855 3.542 32.406 6.316 49.34 8.271l62.223-162.45c-.589.003-1.176.011-1.766.011-16.938 0-33.657-1.194-49.44-3.411z" fill="#86a0af"/><g><path d="m358.703 344.181h44.837c4.143 0 7.5-3.357 7.5-7.5s-3.357-7.5-7.5-7.5h-44.837c-4.143 0-7.5 3.357-7.5 7.5s3.357 7.5 7.5 7.5z"/><path d="m170.481 285.909h-44.837c-4.143 0-7.5 3.357-7.5 7.5s3.357 7.5 7.5 7.5h44.837c4.143 0 7.5-3.357 7.5-7.5s-3.358-7.5-7.5-7.5z"/><path d="m485.294 125.139-4.691-6.499c3.203-.854 5.565-3.767 5.565-7.239 0-4.143-3.357-7.5-7.5-7.5h-2.391l1.669-5.435c1.217-3.96-1.007-8.155-4.967-9.371-3.958-1.216-8.155 1.008-9.371 4.967l-.223.727-18.468-25.583c-2.424-3.358-7.112-4.114-10.471-1.691-3.358 2.425-4.116 7.112-1.691 10.471l40.377 55.934c.681.941.63 1.904.54 2.395-.088.476-.374 1.365-1.305 1.975-73.407 48.134-179.617 61.015-266.324 52.672l56.909-148.577c39.226-.751 88.719-8.36 121.237-26.966 1.372-.783 3.104-.409 4.029.874l26.773 37.088c2.426 3.359 7.115 4.115 10.471 1.691 3.358-2.425 4.116-7.112 1.691-10.471l-26.772-37.089c-5.43-7.521-15.593-9.718-23.641-5.114-16.047 9.182-38.886 16.297-64.733 20.562.813-2.938-.219-6.198-2.838-8.084-3.358-2.421-8.046-1.66-10.469 1.701l-3.189 4.427-.808-.844c-2.866-2.991-7.613-3.094-10.604-.229-1.84 1.763-2.583 4.238-2.218 6.579-45.446 3.325-108.58-2.349-146.614-24.111-8.047-4.604-18.209-2.406-23.641 5.114l-55.233 76.513-6.504-4.014c-3.525-2.175-8.146-1.082-10.321 2.444-2.175 3.524-1.081 8.146 2.444 10.321l5.578 3.443-20.876 28.919c-2.882 3.992-4.021 9.058-3.127 13.899.902 4.887 3.684 9.075 7.83 11.795 18.906 12.396 40.415 22.927 64.218 31.5l-4.87 45.533-.964-.664c-3.411-2.349-8.08-1.489-10.431 1.923-2.35 3.411-1.488 8.081 1.923 10.431l7.657 5.274-2.526 23.614c0 .001 0 .003-.001.004l-5.062 47.331-3.487 32.602c-.441 4.119 2.541 7.814 6.659 8.255.271.029.54.044.807.044 3.784 0 7.037-2.855 7.448-6.703l2.664-24.905h98.448l-8.662 80.983c-.492 4.597-4.349 8.062-8.972 8.062h-80.3c-2.594 0-4.977-1.062-6.71-2.991-1.734-1.929-2.537-4.412-2.262-6.99l2.564-23.969c.441-4.118-2.541-7.814-6.659-8.255-4.118-.445-7.814 2.54-8.255 6.659l-2.564 23.97c-.724 6.767 1.471 13.551 6.02 18.612 2.291 2.549 5.081 4.549 8.154 5.908v22.935c0 4.143 3.357 7.5 7.5 7.5s7.5-3.357 7.5-7.5v-20.879h12.659v20.879c0 4.143 3.357 7.5 7.5 7.5s7.5-3.357 7.5-7.5v-20.879h12.659v20.879c0 4.143 3.357 7.5 7.5 7.5s7.5-3.357 7.5-7.5v-20.879h12.659v20.879c0 4.143 3.357 7.5 7.5 7.5s7.5-3.357 7.5-7.5v-22.251c8.528-2.989 14.908-10.631 15.92-20.095l10.209-95.446.816.771c1.449 1.37 3.302 2.05 5.151 2.05 1.989 0 3.976-.787 5.451-2.348 2.846-3.01 2.712-7.757-.298-10.603l-3.754-3.55 4.912-2.262c3.762-1.733 5.407-6.188 3.675-9.95-1.734-3.762-6.185-5.406-9.95-3.675l-2.988 1.376 8.211-76.765c8.218.527 16.479.87 24.752 1.019-1.017 3.998 1.387 8.07 5.385 9.106.631.164 1.264.242 1.887.242 3.335 0 6.379-2.241 7.255-5.62l.952-3.674c10.825-.118 21.64-.559 32.371-1.322l2.496 39.247c.253 3.972 3.553 7.023 7.479 7.023.159 0 .321-.005.483-.015 4.134-.264 7.271-3.828 7.009-7.962l-2.517-39.572c46.639-4.644 94.718-15.645 137.42-35.889v131.49h-131.337l-1.643-25.837c-.263-4.133-3.817-7.293-7.961-7.008-4.134.263-7.272 3.826-7.01 7.961.695 10.927 4 62.892 5.575 87.647l-1.92-1.039c-3.645-1.97-8.195-.614-10.165 3.028-1.971 3.644-.614 8.194 3.028 10.165l6.545 3.54-5.584 8.245c-2.323 3.429-1.427 8.093 2.003 10.415 1.289.874 2.751 1.292 4.199 1.292 1.44 0 2.861-.422 4.084-1.215l3.608 56.731c.585 9.176 6.317 16.901 14.263 20.434v28.825c0 4.143 3.357 7.5 7.5 7.5s7.5-3.357 7.5-7.5v-26.762h12.206v26.762c0 4.143 3.357 7.5 7.5 7.5s7.5-3.357 7.5-7.5v-26.762h12.205v26.762c0 4.143 3.357 7.5 7.5 7.5s7.5-3.357 7.5-7.5v-26.762h12.206v26.762c0 4.143 3.357 7.5 7.5 7.5s7.5-3.357 7.5-7.5v-26.762h12.206v26.762c0 4.143 3.357 7.5 7.5 7.5s7.5-3.357 7.5-7.5v-29.197c7.983-3.909 13.494-12.115 13.494-21.587 0-26.335 0-142.919 0-167.06l3.028 1.747c1.181.682 2.47 1.005 3.741 1.005 2.593 0 5.114-1.346 6.503-3.753 2.07-3.588.84-8.175-2.748-10.244l-5.632-3.249 7.082-6.811c2.986-2.871 3.079-7.619.208-10.605-2.871-2.985-7.619-3.078-10.604-.208l-1.578 1.518v-93.873c6.6-3.596 12.958-7.376 19.032-11.359 4.147-2.72 6.928-6.909 7.83-11.796.895-4.837-.246-9.903-3.128-13.894zm-328.946 58.48 55.116-143.899c11.52 1.425 23.421 2.321 35.441 2.622l-56.266 146.899c-11.673-1.485-23.139-3.362-34.291-5.622zm-118.011-47.305c-.091-.49-.141-1.453.539-2.396l84.912-117.626c.927-1.282 2.659-1.66 4.03-.875 17.182 9.831 41.304 17.464 68.435 22.077l-54.716 142.852c-35.723-8.561-71.18-21.917-101.896-42.058-.93-.609-1.216-1.498-1.304-1.974zm62.285 140.432h98.447l-3.564 33.326h-98.448c.566-5.295 2.658-24.846 3.565-33.326zm100.052-15h-98.448c2.591-24.224 5.373-50.236 7.969-74.502 31.302 9.854 63.751 15.821 96.433 18.839zm236.864 201.002h-103.584c-4.748 0-8.703-3.712-9.004-8.449l-5.232-82.259h126.842v81.686c0 4.974-4.047 9.022-9.022 9.022zm9.022-146.424v40.716h-127.795l-2.59-40.716z"/></g></g></svg>