<svg id="Capa_1" enable-background="new 0 0 511.998 511.998" height="512" viewBox="0 0 511.998 511.998" width="512" xmlns="http://www.w3.org/2000/svg"><g><path d="m154.924 198.94h202.327v25.624c0 7.013-5.685 12.698-12.698 12.698h-176.931c-7.013 0-12.698-5.685-12.698-12.698z" fill="#eab14d"/><path d="m334.836 198.941v25.624c0 7.013-5.685 12.698-12.698 12.698h22.415c7.013 0 12.698-5.685 12.698-12.698v-25.624z" fill="#e49542"/><path d="m357.251 295.675h-202.327v-16.624c0-7.013 5.685-12.698 12.698-12.698h176.932c7.013 0 12.698 5.685 12.698 12.698v16.624z" fill="#eab14d"/><path d="m344.554 266.353h-24.282c7.013 0 12.698 5.685 12.698 12.698v16.624h24.282v-16.624c-.001-7.013-5.686-12.698-12.698-12.698z" fill="#e49542"/><g><path d="m316.107 46.771 15.729-3.687v-35.586c-50.426 27.047-100.852 27.047-151.278 0v35.586l15.729 3.687c22.244 5.215 38.234 24.69 39.018 47.524l1.433 41.713c6.21 1.649 12.729 2.539 19.458 2.539 6.729 0 13.248-.89 19.458-2.539l1.433-41.713c.786-22.834 16.775-42.309 39.02-47.524z" fill="#d6f6b2"/></g><g fill="#b3e59f"><path d="m331.736 7.55-.119-.052-.329.285c.15-.079.299-.153.448-.233z"/><path d="m358.626 130.982c-4.084-4.452-5.387-10.84-3.319-16.516 7.991-21.934 11.208-44.297 11.873-66 .465-15.168-8.293-29.106-22.208-35.158l-13.135-5.713v55.315c0 41.774-33.865 75.639-75.639 75.639-41.774 0-75.639-33.865-75.639-75.639v-55.412l-13.355 5.809c-13.915 6.052-22.673 19.991-22.208 35.158.665 21.702 3.882 44.066 11.873 66 2.068 5.677.766 12.064-3.319 16.516-13.748 14.986-18.935 30.458-16.402 46.37 2.782 17.479 18.083 30.219 35.782 30.219h83.049.219 83.049c17.699 0 33-12.74 35.782-30.219 2.531-15.911-2.655-31.384-16.403-46.369z"/></g><g><path d="m358.626 130.982c-4.084-4.452-5.387-10.84-3.319-16.516 7.991-21.934 11.208-44.297 11.873-66 .465-15.168-8.293-29.106-22.208-35.158l-13.135-5.713v12.825c7.511 7.147 11.846 17.279 11.516 28.046-.665 21.702-3.882 44.066-11.873 66-2.068 5.677-.766 12.064 3.319 16.516 13.748 14.986 18.935 30.458 16.402 46.37-2.782 17.479-18.083 30.219-35.782 30.219h23.827c17.699 0 33-12.74 35.782-30.219 2.532-15.912-2.654-31.385-16.402-46.37z" fill="#95d6a4"/></g><path d="m357.361 295.675h-101.164-.055-.055-101.163c-32.624 67.011 28.363 108.634 21.041 199.037-.427 5.275 3.756 9.787 9.048 9.787h47.136c4.475 0 8.283-3.26 8.972-7.682l13.677-87.758c.249-1.596 2.548-1.596 2.797 0l13.677 87.758c.689 4.422 4.497 7.682 8.972 7.682h47.027c5.292 0 9.475-4.512 9.048-9.787-7.321-90.403 53.666-132.026 21.042-199.037z" fill="#b3e59f"/><g><path d="m357.361 295.675h-24.337c32.624 67.011-28.363 108.634-21.041 199.037.427 5.275-3.756 9.787-9.048 9.787h24.337c5.292 0 9.475-4.512 9.048-9.787-7.322-90.403 53.665-132.026 21.041-199.037z" fill="#95d6a4"/></g><g><path d="m364.751 279.051c0-11.138-9.061-20.198-20.198-20.198h-176.932c-11.137 0-20.198 9.061-20.198 20.198v14.965c-18.085 38.625-7.205 70.012 4.326 103.209 5.312 15.291 10.804 31.102 14.157 48.939.766 4.071 4.686 6.75 8.757 5.985 4.071-.766 6.75-4.687 5.985-8.757-3.56-18.935-9.238-35.281-14.729-51.09-11.076-31.887-19.923-57.353-6.19-89.129h123.688v193.823h-3.173c-.784 0-1.44-.562-1.562-1.337l-13.678-87.757c-.68-4.37-4.384-7.542-8.807-7.542h-.001c-4.422 0-8.127 3.171-8.809 7.541l-13.677 87.758c-.121.774-.777 1.337-1.562 1.337h-47.136c-.574 0-.951-.278-1.167-.512-.21-.228-.451-.615-.406-1.169.56-6.906.751-13.887.571-20.748-.109-4.141-3.558-7.433-7.695-7.3-4.141.108-7.409 3.554-7.3 7.694.167 6.328-.011 12.769-.527 19.143-.372 4.588 1.207 9.162 4.331 12.55 3.131 3.395 7.575 5.342 12.193 5.342h47.136c8.226 0 15.115-5.898 16.383-14.026l7.665-49.181 7.665 49.18c1.266 8.128 8.156 14.027 16.383 14.027h47.027c4.617 0 9.061-1.946 12.191-5.341 3.124-3.388 4.703-7.962 4.332-12.551-3.198-39.49 7.394-69.982 16.739-96.885 11.555-33.264 22.456-64.709 4.217-103.44v-14.728zm-15 0v9.124h-16.152v-14.322h10.954c2.866 0 5.198 2.332 5.198 5.198zm-51.103 9.124v-14.322h19.951v14.322zm-69.902-14.322h19.951v14.322h-19.951zm-15 14.322h-19.951v-14.322h19.951zm49.952-14.322h19.95v14.322h-19.95zm-101.274 5.198c0-2.866 2.332-5.198 5.198-5.198h11.174v14.322h-16.372zm135.993 24.124h11.786v193.823h-11.786zm47.948 89.125c-9.831 28.301-20.974 60.378-17.521 103.017.045.555-.196.942-.407 1.171-.215.232-.592.511-1.165.511h-2.068v-193.824h27.353c13.73 31.775 4.884 57.239-6.192 89.125z"/><path d="m376.076 166.019c-4.152-.343-7.746 2.744-8.079 6.872-.104 1.276-.223 2.319-.376 3.282-2.167 13.623-14.365 23.896-28.374 23.896h-14.043v-90.463c0-.119-.012-.235-.018-.352 8.931-13.251 14.151-29.2 14.151-46.346v-43.874l2.644 1.15c11.128 4.84 18.077 15.851 17.704 28.051-.728 23.736-4.465 44.561-11.424 63.662-3.037 8.335-1.183 17.59 4.839 24.154 3.578 3.9 6.574 7.927 8.905 11.967 2.069 3.588 6.656 4.819 10.244 2.748 3.588-2.069 4.818-6.656 2.748-10.244-2.877-4.988-6.526-9.904-10.844-14.611-2.189-2.386-2.895-5.871-1.799-8.879 7.515-20.626 11.546-42.979 12.322-68.338.562-18.372-9.924-34.963-26.714-42.266l-12.152-5.285c-2.205-1.375-5.063-1.57-7.519-.254-22.209 11.912-44.679 18.398-66.784 19.277-4.139.165-7.361 3.653-7.196 7.792.164 4.111 3.622 7.358 7.792 7.196 20.698-.823 41.581-6.063 62.233-15.563v17.548l-9.941 2.331c-25.48 5.974-43.904 28.412-44.802 54.567l-1.233 35.901c-3.95.715-8.01 1.109-12.163 1.109s-8.213-.394-12.162-1.109l-1.233-35.901c-.898-26.155-19.322-48.594-44.802-54.567l-9.941-2.331v-17.538c14.113 6.494 28.356 11.014 42.481 13.456 4.118.706 7.968-2.062 8.668-6.113.706-4.081-2.031-7.962-6.112-8.668-16.232-2.806-32.715-8.656-48.992-17.387-1.909-1.028-4.344-1.212-6.536-.269l-13.355 5.809c-16.791 7.304-27.276 23.895-26.713 42.266.776 25.356 4.807 47.71 12.323 68.338 1.096 3.008.39 6.493-1.798 8.879-15.073 16.43-21.225 34.134-18.283 52.619 1.893 11.894 8.456 21.956 17.683 28.49v17.544c0 11.137 9.061 20.197 20.198 20.197h176.932c11.138 0 20.198-9.061 20.198-20.197v-17.543c9.228-6.535 15.791-16.596 17.684-28.491.215-1.354.378-2.763.513-4.433.331-4.129-2.747-7.746-6.874-8.079zm-162.33 49.051v14.692h-19.951v-14.692zm15 0h19.951v14.692h-19.951zm34.952 0h19.95v14.692h-19.95zm34.95 0h19.951v14.692h-19.951zm-.231-15v-65.582c4.178-2.474 8.118-5.305 11.786-8.448v74.03zm-13.834-105.517c.667-19.402 14.333-36.048 33.235-40.479l6.518-1.528v10.363c0 27.855-16.809 51.845-40.809 62.398zm-90.007-40.479c18.902 4.432 32.568 21.077 33.235 40.479l1.056 30.754c-24-10.553-40.808-34.543-40.808-62.398v-10.363zm-35.5 81.978c6.021-6.563 7.876-15.818 4.839-24.154-6.96-19.104-10.697-39.928-11.423-63.662-.374-12.2 6.575-23.211 17.703-28.051l2.864-1.246v43.97c0 46.116 37.624 83.139 83.139 83.139 9.021 0 18.155-1.449 27.22-4.6v58.622h-110.489c-14.008 0-26.207-10.273-28.375-23.896-2.217-13.931 2.534-27.055 14.522-40.122zm3.348 88.513v-10.747c3.37.813 6.887 1.251 10.505 1.251h5.866v14.692h-11.174c-2.866.001-5.197-2.33-5.197-5.196zm187.327 0c0 2.866-2.332 5.197-5.198 5.197h-10.954v-14.692h5.647c3.618 0 7.135-.438 10.505-1.251z"/></g></g></svg>